<svg width="90" height="121" viewBox="0 0 90 121" fill="none" xmlns="http://www.w3.org/2000/svg">
<path d="M45 85C39.7471 85 34.5457 83.9654 29.6927 81.9552C24.8396 79.945 20.4301 76.9986 16.7157 73.2843C13.0014 69.5699 10.055 65.1604 8.04482 60.3073C6.03463 55.4543 5 50.2529 5 45C5 39.7471 6.03463 34.5457 8.04482 29.6927C10.055 24.8396 13.0014 20.4301 16.7157 16.7157C20.4301 13.0014 24.8396 10.055 29.6927 8.04482C34.5457 6.03463 39.7471 5 45 5C50.2529 5 55.4543 6.03463 60.3073 8.04482C65.1604 10.055 69.5699 13.0014 73.2843 16.7157C76.9986 20.4301 79.945 24.8396 81.9552 29.6927C83.9654 34.5457 85 39.7471 85 45C85 50.2529 83.9654 55.4543 81.9552 60.3073C79.945 65.1604 76.9986 69.5699 73.2843 73.2843C69.5699 76.9986 65.1604 79.945 60.3073 81.9552C55.4543 83.9654 50.2529 85 45 85L45 85Z" stroke="#cdcdcd" stroke-width="10"/>
<path d="M85 45C85 52.9112 82.654 60.6448 78.2588 67.2228C73.8635 73.8008 67.6164 78.9277 60.3074 81.9552C52.9983 84.9827 44.9557 85.7748 37.1964 84.2314C29.4372 82.688 22.3099 78.8784 16.7158 73.2843C11.1217 67.6902 7.31202 60.5629 5.7686 52.8037C4.22518 45.0445 5.0173 37.0018 8.04479 29.6927C11.0723 22.3837 16.1992 16.1365 22.7771 11.7413C29.3551 7.346 37.0886 5.00002 44.9999 5" stroke="url(#paint0_linear_8_1130)" stroke-width="10" stroke-linecap="round"/>
<path d="M23.8 51.176C22.8933 51.176 22.1093 51.048 21.448 50.792C20.7867 50.5253 20.28 50.1467 19.928 49.656C19.576 49.1653 19.4 48.584 19.4 47.912C19.4 47.368 19.5067 46.888 19.72 46.472C19.944 46.056 20.248 45.72 20.632 45.464C21.016 45.1973 21.4533 45.0373 21.944 44.984V45.448C21.2827 45.3093 20.744 44.984 20.328 44.472C19.912 43.96 19.704 43.3467 19.704 42.632C19.704 41.9813 19.8693 41.4267 20.2 40.968C20.5307 40.5093 21.0053 40.1573 21.624 39.912C22.2427 39.6667 22.968 39.544 23.8 39.544C24.6427 39.544 25.368 39.6667 25.976 39.912C26.5947 40.1573 27.0693 40.5093 27.4 40.968C27.7307 41.4267 27.896 41.9813 27.896 42.632C27.896 43.112 27.8 43.5547 27.608 43.96C27.4267 44.3547 27.1707 44.68 26.84 44.936C26.52 45.192 26.1467 45.3573 25.72 45.432V44.984C26.4453 45.0907 27.0373 45.4107 27.496 45.944C27.9653 46.4667 28.2 47.1227 28.2 47.912C28.2 48.584 28.024 49.1653 27.672 49.656C27.32 50.1467 26.8133 50.5253 26.152 50.792C25.5013 51.048 24.7173 51.176 23.8 51.176ZM23.8 48.968C24.3653 48.968 24.7973 48.8613 25.096 48.648C25.3947 48.424 25.544 48.104 25.544 47.688C25.544 47.2613 25.3947 46.9413 25.096 46.728C24.7973 46.5147 24.3653 46.408 23.8 46.408C23.2347 46.408 22.8027 46.5147 22.504 46.728C22.2053 46.9413 22.056 47.2613 22.056 47.688C22.056 48.104 22.2053 48.424 22.504 48.648C22.8027 48.8613 23.2347 48.968 23.8 48.968ZM23.8 44.184C24.1093 44.184 24.3707 44.136 24.584 44.04C24.7973 43.944 24.9573 43.8053 25.064 43.624C25.1813 43.432 25.24 43.2133 25.24 42.968C25.24 42.5947 25.112 42.3013 24.856 42.088C24.6 41.864 24.248 41.752 23.8 41.752C23.352 41.752 23 41.864 22.744 42.088C22.4987 42.3013 22.376 42.5947 22.376 42.968C22.376 43.3413 22.4987 43.64 22.744 43.864C23 44.0773 23.352 44.184 23.8 44.184ZM33.3138 51.176C32.8018 51.176 32.2631 51.1173 31.6978 51C31.1324 50.8827 30.6098 50.7013 30.1298 50.456C29.8418 50.3067 29.6391 50.1147 29.5218 49.88C29.4151 49.6347 29.3778 49.3893 29.4098 49.144C29.4524 48.8987 29.5484 48.68 29.6978 48.488C29.8578 48.296 30.0551 48.1733 30.2898 48.12C30.5351 48.056 30.8018 48.0987 31.0898 48.248C31.4418 48.4187 31.8044 48.5467 32.1778 48.632C32.5618 48.7173 32.9191 48.76 33.2498 48.76C33.6124 48.76 33.9218 48.7067 34.1778 48.6C34.4338 48.4933 34.6258 48.3387 34.7538 48.136C34.8924 47.9333 34.9618 47.6933 34.9618 47.416C34.9618 46.9893 34.8178 46.6533 34.5298 46.408C34.2418 46.1627 33.8578 46.04 33.3778 46.04C33.1644 46.04 32.9298 46.072 32.6738 46.136C32.4284 46.2 32.1724 46.3227 31.9058 46.504C31.7884 46.568 31.6284 46.6427 31.4258 46.728C31.2231 46.8027 31.0151 46.84 30.8018 46.84C30.4178 46.84 30.1351 46.7493 29.9538 46.568C29.7724 46.3867 29.6818 46.1307 29.6818 45.8V40.968C29.6818 40.5627 29.7884 40.2533 30.0018 40.04C30.2258 39.8267 30.5351 39.72 30.9298 39.72H35.9538C36.3484 39.72 36.6524 39.8213 36.8658 40.024C37.0791 40.2267 37.1858 40.5253 37.1858 40.92C37.1858 41.304 37.0791 41.5973 36.8658 41.8C36.6524 42.0027 36.3484 42.104 35.9538 42.104H32.4498V44.616H31.7778C32.0338 44.3173 32.3698 44.0933 32.7858 43.944C33.2018 43.784 33.6551 43.704 34.1458 43.704C34.8604 43.704 35.4898 43.8587 36.0338 44.168C36.5778 44.4667 36.9991 44.888 37.2978 45.432C37.6071 45.976 37.7618 46.6107 37.7618 47.336C37.7618 48.104 37.5804 48.7813 37.2178 49.368C36.8658 49.944 36.3538 50.392 35.6818 50.712C35.0204 51.0213 34.2311 51.176 33.3138 51.176ZM40.3635 51.096C39.8835 51.096 39.4995 50.952 39.2115 50.664C38.9342 50.376 38.7955 49.9973 38.7955 49.528C38.7955 49.0693 38.9342 48.7013 39.2115 48.424C39.4995 48.136 39.8835 47.992 40.3635 47.992C40.8648 47.992 41.2488 48.136 41.5155 48.424C41.7928 48.7013 41.9315 49.0693 41.9315 49.528C41.9315 49.9973 41.7928 50.376 41.5155 50.664C41.2488 50.952 40.8648 51.096 40.3635 51.096ZM47.3469 51.176C46.4402 51.176 45.6562 51.048 44.9949 50.792C44.3335 50.5253 43.8269 50.1467 43.4749 49.656C43.1229 49.1653 42.9469 48.584 42.9469 47.912C42.9469 47.368 43.0535 46.888 43.2669 46.472C43.4909 46.056 43.7949 45.72 44.1789 45.464C44.5629 45.1973 45.0002 45.0373 45.4909 44.984V45.448C44.8295 45.3093 44.2909 44.984 43.8749 44.472C43.4589 43.96 43.2509 43.3467 43.2509 42.632C43.2509 41.9813 43.4162 41.4267 43.7469 40.968C44.0775 40.5093 44.5522 40.1573 45.1709 39.912C45.7895 39.6667 46.5149 39.544 47.3469 39.544C48.1895 39.544 48.9149 39.6667 49.5229 39.912C50.1415 40.1573 50.6162 40.5093 50.9469 40.968C51.2775 41.4267 51.4429 41.9813 51.4429 42.632C51.4429 43.112 51.3469 43.5547 51.1549 43.96C50.9735 44.3547 50.7175 44.68 50.3869 44.936C50.0669 45.192 49.6935 45.3573 49.2669 45.432V44.984C49.9922 45.0907 50.5842 45.4107 51.0429 45.944C51.5122 46.4667 51.7469 47.1227 51.7469 47.912C51.7469 48.584 51.5709 49.1653 51.2189 49.656C50.8669 50.1467 50.3602 50.5253 49.6989 50.792C49.0482 51.048 48.2642 51.176 47.3469 51.176ZM47.3469 48.968C47.9122 48.968 48.3442 48.8613 48.6429 48.648C48.9415 48.424 49.0909 48.104 49.0909 47.688C49.0909 47.2613 48.9415 46.9413 48.6429 46.728C48.3442 46.5147 47.9122 46.408 47.3469 46.408C46.7815 46.408 46.3495 46.5147 46.0509 46.728C45.7522 46.9413 45.6029 47.2613 45.6029 47.688C45.6029 48.104 45.7522 48.424 46.0509 48.648C46.3495 48.8613 46.7815 48.968 47.3469 48.968ZM47.3469 44.184C47.6562 44.184 47.9175 44.136 48.1309 44.04C48.3442 43.944 48.5042 43.8053 48.6109 43.624C48.7282 43.432 48.7869 43.2133 48.7869 42.968C48.7869 42.5947 48.6589 42.3013 48.4029 42.088C48.1469 41.864 47.7949 41.752 47.3469 41.752C46.8989 41.752 46.5469 41.864 46.2909 42.088C46.0455 42.3013 45.9229 42.5947 45.9229 42.968C45.9229 43.3413 46.0455 43.64 46.2909 43.864C46.5469 44.0773 46.8989 44.184 47.3469 44.184ZM57.9486 50.712C57.81 50.9573 57.634 51.1173 57.4206 51.192C57.2073 51.2773 56.9993 51.2933 56.7966 51.24C56.594 51.1867 56.418 51.0853 56.2686 50.936C56.1193 50.7867 56.0286 50.6 55.9966 50.376C55.9646 50.152 56.018 49.9173 56.1566 49.672L61.7566 40.024C61.906 39.768 62.082 39.6027 62.2846 39.528C62.4873 39.4427 62.69 39.4267 62.8926 39.48C63.106 39.5333 63.282 39.64 63.4206 39.8C63.57 39.9493 63.6606 40.136 63.6926 40.36C63.7353 40.5733 63.682 40.8027 63.5326 41.048L57.9486 50.712ZM55.6286 46.44C54.6686 46.44 53.922 46.1253 53.3886 45.496C52.866 44.856 52.6046 44.0133 52.6046 42.968C52.6046 42.264 52.7273 41.656 52.9726 41.144C53.218 40.632 53.5646 40.2373 54.0126 39.96C54.4606 39.6827 54.9993 39.544 55.6286 39.544C56.578 39.544 57.314 39.8587 57.8366 40.488C58.37 41.1067 58.6366 41.9333 58.6366 42.968C58.6366 43.6613 58.514 44.2693 58.2686 44.792C58.034 45.3147 57.6926 45.72 57.2446 46.008C56.7966 46.296 56.258 46.44 55.6286 46.44ZM55.6286 44.68C55.7886 44.68 55.922 44.6267 56.0286 44.52C56.146 44.4027 56.2313 44.2213 56.2846 43.976C56.3486 43.72 56.3806 43.384 56.3806 42.968C56.3806 42.3387 56.3113 41.9013 56.1726 41.656C56.0446 41.4107 55.8633 41.288 55.6286 41.288C55.458 41.288 55.314 41.3413 55.1966 41.448C55.09 41.544 55.0046 41.7147 54.9406 41.96C54.8873 42.2053 54.8606 42.5413 54.8606 42.968C54.8606 43.608 54.9246 44.056 55.0526 44.312C55.1806 44.5573 55.3726 44.68 55.6286 44.68ZM64.0766 51.176C63.1273 51.176 62.386 50.8613 61.8526 50.232C61.33 49.6027 61.0686 48.7653 61.0686 47.72C61.0686 47.0053 61.186 46.392 61.4206 45.88C61.666 45.368 62.0126 44.9733 62.4606 44.696C62.9193 44.4187 63.458 44.28 64.0766 44.28C65.026 44.28 65.7673 44.5947 66.3006 45.224C66.834 45.8533 67.1006 46.6853 67.1006 47.72C67.1006 48.4133 66.978 49.0213 66.7326 49.544C66.498 50.056 66.1566 50.456 65.7086 50.744C65.2606 51.032 64.7166 51.176 64.0766 51.176ZM64.0766 49.432C64.2473 49.432 64.386 49.3787 64.4926 49.272C64.61 49.1547 64.6953 48.9733 64.7486 48.728C64.8126 48.472 64.8446 48.136 64.8446 47.72C64.8446 47.0907 64.7753 46.6533 64.6366 46.408C64.5086 46.1627 64.322 46.04 64.0766 46.04C63.9166 46.04 63.778 46.0933 63.6606 46.2C63.554 46.296 63.4686 46.4667 63.4046 46.712C63.3513 46.9467 63.3246 47.2827 63.3246 47.72C63.3246 48.36 63.3886 48.808 63.5166 49.064C63.6446 49.3093 63.8313 49.432 64.0766 49.432Z" fill="url(#paint1_linear_8_1130)"/>
<path d="M8.67719 117C8.17585 117 7.79185 116.872 7.52519 116.616C7.26919 116.349 7.14119 115.971 7.14119 115.48V107.24C7.14119 106.749 7.26919 106.376 7.52519 106.12C7.79185 105.853 8.17585 105.72 8.67719 105.72H12.5812C13.3919 105.72 14.0799 105.843 14.6452 106.088C15.2212 106.323 15.6585 106.659 15.9572 107.096C16.2559 107.533 16.4052 108.045 16.4052 108.632C16.4052 109.293 16.2132 109.859 15.8292 110.328C15.4559 110.797 14.9439 111.117 14.2932 111.288V111.032C15.0612 111.171 15.6532 111.48 16.0692 111.96C16.4959 112.44 16.7092 113.053 16.7092 113.8C16.7092 114.792 16.3519 115.576 15.6372 116.152C14.9332 116.717 13.9679 117 12.7412 117H8.67719ZM9.95719 114.84H12.3412C12.8852 114.84 13.2799 114.739 13.5252 114.536C13.7812 114.323 13.9092 114.008 13.9092 113.592C13.9092 113.176 13.7812 112.867 13.5252 112.664C13.2799 112.461 12.8852 112.36 12.3412 112.36H9.95719V114.84ZM9.95719 110.2H12.0532C12.5865 110.2 12.9759 110.104 13.2212 109.912C13.4772 109.72 13.6052 109.427 13.6052 109.032C13.6052 108.637 13.4772 108.349 13.2212 108.168C12.9759 107.976 12.5865 107.88 12.0532 107.88H9.95719V110.2ZM22.1676 117.176C21.2929 117.176 20.5302 117.011 19.8796 116.68C19.2289 116.349 18.7222 115.875 18.3596 115.256C17.9969 114.637 17.8156 113.907 17.8156 113.064C17.8156 112.424 17.9169 111.853 18.1196 111.352C18.3222 110.84 18.6156 110.408 18.9996 110.056C19.3836 109.693 19.8422 109.421 20.3756 109.24C20.9089 109.048 21.5062 108.952 22.1676 108.952C23.0422 108.952 23.8049 109.117 24.4556 109.448C25.1062 109.779 25.6076 110.253 25.9596 110.872C26.3222 111.48 26.5036 112.211 26.5036 113.064C26.5036 113.693 26.4022 114.264 26.1996 114.776C25.9969 115.288 25.7036 115.725 25.3196 116.088C24.9462 116.44 24.4876 116.712 23.9436 116.904C23.4102 117.085 22.8182 117.176 22.1676 117.176ZM22.1676 115.08C22.4556 115.08 22.7116 115.011 22.9356 114.872C23.1596 114.723 23.3302 114.504 23.4476 114.216C23.5756 113.917 23.6396 113.533 23.6396 113.064C23.6396 112.349 23.5009 111.837 23.2236 111.528C22.9462 111.208 22.5942 111.048 22.1676 111.048C21.8796 111.048 21.6236 111.117 21.3996 111.256C21.1756 111.395 20.9996 111.613 20.8716 111.912C20.7436 112.2 20.6796 112.584 20.6796 113.064C20.6796 113.768 20.8182 114.28 21.0956 114.6C21.3729 114.92 21.7302 115.08 22.1676 115.08ZM31.7926 117.176C30.9179 117.176 30.1552 117.011 29.5046 116.68C28.8539 116.349 28.3472 115.875 27.9846 115.256C27.6219 114.637 27.4406 113.907 27.4406 113.064C27.4406 112.424 27.5419 111.853 27.7446 111.352C27.9472 110.84 28.2406 110.408 28.6246 110.056C29.0086 109.693 29.4672 109.421 30.0006 109.24C30.5339 109.048 31.1312 108.952 31.7926 108.952C32.6672 108.952 33.4299 109.117 34.0806 109.448C34.7312 109.779 35.2326 110.253 35.5846 110.872C35.9472 111.48 36.1286 112.211 36.1286 113.064C36.1286 113.693 36.0272 114.264 35.8246 114.776C35.6219 115.288 35.3286 115.725 34.9446 116.088C34.5712 116.44 34.1126 116.712 33.5686 116.904C33.0352 117.085 32.4432 117.176 31.7926 117.176ZM31.7926 115.08C32.0806 115.08 32.3366 115.011 32.5606 114.872C32.7846 114.723 32.9552 114.504 33.0726 114.216C33.2006 113.917 33.2646 113.533 33.2646 113.064C33.2646 112.349 33.1259 111.837 32.8486 111.528C32.5712 111.208 32.2192 111.048 31.7926 111.048C31.5046 111.048 31.2486 111.117 31.0246 111.256C30.8006 111.395 30.6246 111.613 30.4966 111.912C30.3686 112.2 30.3046 112.584 30.3046 113.064C30.3046 113.768 30.4432 114.28 30.7206 114.6C30.9979 114.92 31.3552 115.08 31.7926 115.08ZM41.4834 117.176C40.6834 117.176 40.0221 117.053 39.4994 116.808C38.9874 116.563 38.6034 116.195 38.3474 115.704C38.0914 115.203 37.9634 114.579 37.9634 113.832V111.224H37.4194C37.0781 111.224 36.8114 111.133 36.6194 110.952C36.4381 110.771 36.3474 110.509 36.3474 110.168C36.3474 109.827 36.4381 109.571 36.6194 109.4C36.8114 109.219 37.0781 109.128 37.4194 109.128H37.9634V108.136C37.9634 107.667 38.0861 107.309 38.3314 107.064C38.5768 106.819 38.9288 106.696 39.3874 106.696C39.8461 106.696 40.1981 106.819 40.4434 107.064C40.6888 107.309 40.8114 107.667 40.8114 108.136V109.128H42.1234C42.4754 109.128 42.7421 109.219 42.9234 109.4C43.1154 109.571 43.2114 109.827 43.2114 110.168C43.2114 110.509 43.1154 110.771 42.9234 110.952C42.7421 111.133 42.4754 111.224 42.1234 111.224H40.8114V113.736C40.8114 114.131 40.9021 114.424 41.0834 114.616C41.2754 114.797 41.5741 114.888 41.9794 114.888C42.1288 114.888 42.2728 114.872 42.4114 114.84C42.5501 114.808 42.6781 114.792 42.7954 114.792C42.9661 114.781 43.1048 114.835 43.2114 114.952C43.3181 115.059 43.3714 115.309 43.3714 115.704C43.3714 116.024 43.3234 116.296 43.2274 116.52C43.1314 116.733 42.9608 116.888 42.7154 116.984C42.5661 117.037 42.3634 117.08 42.1074 117.112C41.8514 117.155 41.6434 117.176 41.4834 117.176ZM47.3039 117.176C46.8346 117.176 46.3546 117.139 45.8639 117.064C45.3839 117 44.9466 116.877 44.5519 116.696C44.2853 116.589 44.0933 116.445 43.9759 116.264C43.8693 116.083 43.8159 115.891 43.8159 115.688C43.8266 115.485 43.8853 115.304 43.9919 115.144C44.1093 114.973 44.2586 114.856 44.4399 114.792C44.6319 114.717 44.8453 114.723 45.0799 114.808C45.5279 114.968 45.9279 115.085 46.2799 115.16C46.6426 115.224 46.9893 115.256 47.3199 115.256C47.7146 115.256 47.9973 115.203 48.1679 115.096C48.3386 114.979 48.4239 114.829 48.4239 114.648C48.4239 114.488 48.3653 114.365 48.2479 114.28C48.1413 114.195 47.9866 114.136 47.7839 114.104L46.0079 113.816C45.3466 113.699 44.8346 113.459 44.4719 113.096C44.1093 112.723 43.9279 112.237 43.9279 111.64C43.9279 111.085 44.0826 110.611 44.3919 110.216C44.7119 109.811 45.1439 109.501 45.6879 109.288C46.2426 109.064 46.8773 108.952 47.5919 108.952C48.0719 108.952 48.5093 108.989 48.9039 109.064C49.2986 109.128 49.6826 109.251 50.0559 109.432C50.2906 109.528 50.4559 109.667 50.5519 109.848C50.6479 110.029 50.6853 110.221 50.6639 110.424C50.6426 110.616 50.5733 110.797 50.4559 110.968C50.3493 111.128 50.1999 111.24 50.0079 111.304C49.8159 111.357 49.5919 111.341 49.3359 111.256C48.9839 111.117 48.6693 111.016 48.3919 110.952C48.1253 110.888 47.8746 110.856 47.6399 110.856C47.2026 110.856 46.8933 110.915 46.7119 111.032C46.5306 111.149 46.4399 111.299 46.4399 111.48C46.4399 111.619 46.4879 111.736 46.5839 111.832C46.6799 111.917 46.8293 111.976 47.0319 112.008L48.8079 112.312C49.4906 112.419 50.0133 112.653 50.3759 113.016C50.7493 113.368 50.9359 113.848 50.9359 114.456C50.9359 115.32 50.6053 115.992 49.9439 116.472C49.2826 116.941 48.4026 117.176 47.3039 117.176ZM56.1553 117.176C55.3553 117.176 54.694 117.053 54.1713 116.808C53.6593 116.563 53.2753 116.195 53.0193 115.704C52.7633 115.203 52.6353 114.579 52.6353 113.832V111.224H52.0913C51.75 111.224 51.4833 111.133 51.2913 110.952C51.11 110.771 51.0193 110.509 51.0193 110.168C51.0193 109.827 51.11 109.571 51.2913 109.4C51.4833 109.219 51.75 109.128 52.0913 109.128H52.6353V108.136C52.6353 107.667 52.758 107.309 53.0033 107.064C53.2486 106.819 53.6006 106.696 54.0593 106.696C54.518 106.696 54.87 106.819 55.1153 107.064C55.3606 107.309 55.4833 107.667 55.4833 108.136V109.128H56.7953C57.1473 109.128 57.414 109.219 57.5953 109.4C57.7873 109.571 57.8833 109.827 57.8833 110.168C57.8833 110.509 57.7873 110.771 57.5953 110.952C57.414 111.133 57.1473 111.224 56.7953 111.224H55.4833V113.736C55.4833 114.131 55.574 114.424 55.7553 114.616C55.9473 114.797 56.246 114.888 56.6513 114.888C56.8006 114.888 56.9446 114.872 57.0833 114.84C57.222 114.808 57.35 114.792 57.4673 114.792C57.638 114.781 57.7766 114.835 57.8833 114.952C57.99 115.059 58.0433 115.309 58.0433 115.704C58.0433 116.024 57.9953 116.296 57.8993 116.52C57.8033 116.733 57.6326 116.888 57.3873 116.984C57.238 117.037 57.0353 117.08 56.7793 117.112C56.5233 117.155 56.3153 117.176 56.1553 117.176ZM60.2958 117.144C59.8265 117.144 59.4638 117.021 59.2078 116.776C58.9625 116.531 58.8398 116.173 58.8398 115.704V110.408C58.8398 109.949 58.9571 109.597 59.1918 109.352C59.4371 109.107 59.7838 108.984 60.2318 108.984C60.6798 108.984 61.0211 109.107 61.2558 109.352C61.4905 109.597 61.6078 109.949 61.6078 110.408V111.064H61.4478C61.5545 110.424 61.8265 109.917 62.2638 109.544C62.7118 109.171 63.2665 108.973 63.9278 108.952C64.2371 108.941 64.4665 109.021 64.6158 109.192C64.7758 109.352 64.8611 109.656 64.8718 110.104C64.8718 110.488 64.7918 110.792 64.6318 111.016C64.4718 111.24 64.1678 111.373 63.7198 111.416L63.3518 111.448C62.7865 111.501 62.3758 111.661 62.1198 111.928C61.8638 112.184 61.7358 112.568 61.7358 113.08V115.704C61.7358 116.173 61.6131 116.531 61.3678 116.776C61.1225 117.021 60.7651 117.144 60.2958 117.144ZM68.4352 117.176C67.8272 117.176 67.2885 117.064 66.8192 116.84C66.3605 116.616 65.9979 116.312 65.7312 115.928C65.4752 115.533 65.3472 115.085 65.3472 114.584C65.3472 114.008 65.4965 113.555 65.7952 113.224C66.0939 112.893 66.5739 112.659 67.2352 112.52C67.8965 112.371 68.7765 112.296 69.8752 112.296H70.7552V113.64H69.8752C69.4592 113.64 69.1125 113.672 68.8352 113.736C68.5685 113.789 68.3712 113.88 68.2432 114.008C68.1152 114.125 68.0512 114.28 68.0512 114.472C68.0512 114.717 68.1365 114.92 68.3072 115.08C68.4885 115.24 68.7445 115.32 69.0752 115.32C69.3419 115.32 69.5765 115.261 69.7792 115.144C69.9925 115.027 70.1632 114.867 70.2912 114.664C70.4192 114.451 70.4832 114.205 70.4832 113.928V112.072C70.4832 111.688 70.3819 111.416 70.1792 111.256C69.9872 111.096 69.6512 111.016 69.1712 111.016C68.9152 111.016 68.6272 111.048 68.3072 111.112C67.9872 111.165 67.6299 111.267 67.2352 111.416C66.9472 111.523 66.7019 111.539 66.4992 111.464C66.2965 111.389 66.1365 111.261 66.0192 111.08C65.9125 110.899 65.8592 110.701 65.8592 110.488C65.8699 110.275 65.9392 110.072 66.0672 109.88C66.2059 109.688 66.4139 109.539 66.6912 109.432C67.2032 109.24 67.6725 109.112 68.0992 109.048C68.5365 108.984 68.9365 108.952 69.2992 108.952C70.1739 108.952 70.8939 109.08 71.4592 109.336C72.0352 109.581 72.4619 109.965 72.7392 110.488C73.0272 111 73.1712 111.661 73.1712 112.472V115.704C73.1712 116.173 73.0592 116.531 72.8352 116.776C72.6112 117.021 72.2859 117.144 71.8592 117.144C71.4219 117.144 71.0859 117.021 70.8512 116.776C70.6272 116.531 70.5152 116.173 70.5152 115.704V115.288L70.6112 115.512C70.5579 115.853 70.4352 116.147 70.2432 116.392C70.0512 116.637 69.8005 116.829 69.4912 116.968C69.1819 117.107 68.8299 117.176 68.4352 117.176ZM76.2009 120.024C75.7529 120.024 75.4063 119.901 75.1609 119.656C74.9156 119.411 74.7929 119.053 74.7929 118.584V110.408C74.7929 109.949 74.9103 109.597 75.1449 109.352C75.3903 109.107 75.7369 108.984 76.1849 108.984C76.6436 108.984 76.9903 109.107 77.2249 109.352C77.4703 109.597 77.5929 109.949 77.5929 110.408V111.336L77.4169 110.552C77.5663 110.072 77.8756 109.688 78.3449 109.4C78.8249 109.101 79.3689 108.952 79.9769 108.952C80.6596 108.952 81.2569 109.117 81.7689 109.448C82.2916 109.779 82.6969 110.248 82.9849 110.856C83.2729 111.464 83.4169 112.2 83.4169 113.064C83.4169 113.907 83.2729 114.637 82.9849 115.256C82.6969 115.875 82.2916 116.349 81.7689 116.68C81.2569 117.011 80.6596 117.176 79.9769 117.176C79.3903 117.176 78.8623 117.037 78.3929 116.76C77.9236 116.483 77.6089 116.12 77.4489 115.672H77.6409V118.584C77.6409 119.053 77.5129 119.411 77.2569 119.656C77.0116 119.901 76.6596 120.024 76.2009 120.024ZM79.0809 115.08C79.3689 115.08 79.6196 115.011 79.8329 114.872C80.0569 114.723 80.2329 114.504 80.3609 114.216C80.4889 113.917 80.5529 113.533 80.5529 113.064C80.5529 112.349 80.4143 111.837 80.1369 111.528C79.8596 111.208 79.5076 111.048 79.0809 111.048C78.7929 111.048 78.5369 111.117 78.3129 111.256C78.0889 111.395 77.9129 111.613 77.7849 111.912C77.6569 112.2 77.5929 112.584 77.5929 113.064C77.5929 113.768 77.7316 114.28 78.0089 114.6C78.2863 114.92 78.6436 115.08 79.0809 115.08Z" fill="url(#paint2_linear_8_1130)"/>
<defs>
<linearGradient id="paint0_linear_8_1130" x1="5" y1="45" x2="85" y2="45" gradientUnits="userSpaceOnUse">
<stop offset="0.186043" stop-color="#0D434F"/>
<stop offset="0.678087" stop-color="#1E3236"/>
</linearGradient>
<linearGradient id="paint1_linear_8_1130" x1="19" y1="44.5" x2="71" y2="44.5" gradientUnits="userSpaceOnUse">
<stop offset="0.186043" stop-color="#0D434F"/>
<stop offset="0.678087" stop-color="#1E3236"/>
</linearGradient>
<linearGradient id="paint2_linear_8_1130" x1="5" y1="110.5" x2="85" y2="110.5" gradientUnits="userSpaceOnUse">
<stop offset="0.186043" stop-color="#0D434F"/>
<stop offset="0.678087" stop-color="#1E3236"/>
</linearGradient>
</defs>
</svg>
