<svg width="90" height="122" viewBox="0 0 90 122" fill="none" xmlns="http://www.w3.org/2000/svg">
<path d="M45 85C39.7471 85 34.5457 83.9654 29.6927 81.9552C24.8396 79.945 20.4301 76.9986 16.7157 73.2843C13.0014 69.5699 10.055 65.1604 8.04482 60.3073C6.03463 55.4543 5 50.2529 5 45C5 39.7471 6.03463 34.5457 8.04482 29.6927C10.055 24.8396 13.0014 20.4301 16.7157 16.7157C20.4301 13.0014 24.8396 10.055 29.6927 8.04482C34.5457 6.03463 39.7471 5 45 5C50.2529 5 55.4543 6.03463 60.3073 8.04482C65.1604 10.055 69.5699 13.0014 73.2843 16.7157C76.9986 20.4301 79.945 24.8396 81.9552 29.6927C83.9654 34.5457 85 39.7471 85 45C85 50.2529 83.9654 55.4543 81.9552 60.3073C79.945 65.1604 76.9986 69.5699 73.2843 73.2843C69.5699 76.9986 65.1604 79.945 60.3073 81.9552C55.4543 83.9654 50.2529 85 45 85L45 85Z" stroke="#5E5E5E" stroke-width="10"/>
<path d="M85 45C85 52.9112 82.654 60.6448 78.2588 67.2228C73.8635 73.8008 67.6164 78.9277 60.3074 81.9552C52.9983 84.9827 44.9557 85.7748 37.1964 84.2314C29.4372 82.688 22.3099 78.8784 16.7158 73.2843C11.1217 67.6902 7.31202 60.5629 5.7686 52.8037C4.22518 45.0445 5.0173 37.0018 8.04479 29.6927C11.0723 22.3837 16.1992 16.1365 22.7771 11.7413C29.3551 7.346 37.0886 5.00002 44.9999 5" stroke="url(#paint0_linear_8_1125)" stroke-width="10" stroke-linecap="round"/>
<path d="M23.8 51.176C22.8933 51.176 22.1093 51.048 21.448 50.792C20.7867 50.5253 20.28 50.1467 19.928 49.656C19.576 49.1653 19.4 48.584 19.4 47.912C19.4 47.368 19.5067 46.888 19.72 46.472C19.944 46.056 20.248 45.72 20.632 45.464C21.016 45.1973 21.4533 45.0373 21.944 44.984V45.448C21.2827 45.3093 20.744 44.984 20.328 44.472C19.912 43.96 19.704 43.3467 19.704 42.632C19.704 41.9813 19.8693 41.4267 20.2 40.968C20.5307 40.5093 21.0053 40.1573 21.624 39.912C22.2427 39.6667 22.968 39.544 23.8 39.544C24.6427 39.544 25.368 39.6667 25.976 39.912C26.5947 40.1573 27.0693 40.5093 27.4 40.968C27.7307 41.4267 27.896 41.9813 27.896 42.632C27.896 43.112 27.8 43.5547 27.608 43.96C27.4267 44.3547 27.1707 44.68 26.84 44.936C26.52 45.192 26.1467 45.3573 25.72 45.432V44.984C26.4453 45.0907 27.0373 45.4107 27.496 45.944C27.9653 46.4667 28.2 47.1227 28.2 47.912C28.2 48.584 28.024 49.1653 27.672 49.656C27.32 50.1467 26.8133 50.5253 26.152 50.792C25.5013 51.048 24.7173 51.176 23.8 51.176ZM23.8 48.968C24.3653 48.968 24.7973 48.8613 25.096 48.648C25.3947 48.424 25.544 48.104 25.544 47.688C25.544 47.2613 25.3947 46.9413 25.096 46.728C24.7973 46.5147 24.3653 46.408 23.8 46.408C23.2347 46.408 22.8027 46.5147 22.504 46.728C22.2053 46.9413 22.056 47.2613 22.056 47.688C22.056 48.104 22.2053 48.424 22.504 48.648C22.8027 48.8613 23.2347 48.968 23.8 48.968ZM23.8 44.184C24.1093 44.184 24.3707 44.136 24.584 44.04C24.7973 43.944 24.9573 43.8053 25.064 43.624C25.1813 43.432 25.24 43.2133 25.24 42.968C25.24 42.5947 25.112 42.3013 24.856 42.088C24.6 41.864 24.248 41.752 23.8 41.752C23.352 41.752 23 41.864 22.744 42.088C22.4987 42.3013 22.376 42.5947 22.376 42.968C22.376 43.3413 22.4987 43.64 22.744 43.864C23 44.0773 23.352 44.184 23.8 44.184ZM33.3938 51.176C32.0071 51.176 30.9404 50.6693 30.1938 49.656C29.4578 48.632 29.0898 47.1867 29.0898 45.32C29.0898 44.0613 29.2551 43.0053 29.5858 42.152C29.9164 41.288 30.4018 40.6373 31.0418 40.2C31.6818 39.7627 32.4658 39.544 33.3938 39.544C34.7911 39.544 35.8578 40.0347 36.5938 41.016C37.3298 41.9973 37.6978 43.4267 37.6978 45.304C37.6978 46.552 37.5324 47.6133 37.2018 48.488C36.8711 49.3627 36.3858 50.0293 35.7458 50.488C35.1058 50.9467 34.3218 51.176 33.3938 51.176ZM33.3938 48.84C33.9058 48.84 34.2844 48.5627 34.5298 48.008C34.7858 47.4427 34.9138 46.5413 34.9138 45.304C34.9138 44.0773 34.7858 43.2027 34.5298 42.68C34.2844 42.1467 33.9058 41.88 33.3938 41.88C32.8818 41.88 32.4978 42.1467 32.2418 42.68C31.9964 43.2027 31.8738 44.0773 31.8738 45.304C31.8738 46.5413 31.9964 47.4427 32.2418 48.008C32.4978 48.5627 32.8818 48.84 33.3938 48.84ZM40.3635 51.096C39.8835 51.096 39.4995 50.952 39.2115 50.664C38.9342 50.376 38.7955 49.9973 38.7955 49.528C38.7955 49.0693 38.9342 48.7013 39.2115 48.424C39.4995 48.136 39.8835 47.992 40.3635 47.992C40.8648 47.992 41.2488 48.136 41.5155 48.424C41.7928 48.7013 41.9315 49.0693 41.9315 49.528C41.9315 49.9973 41.7928 50.376 41.5155 50.664C41.2488 50.952 40.8648 51.096 40.3635 51.096ZM45.0589 51C44.6642 51 44.3602 50.8987 44.1469 50.696C43.9442 50.4827 43.8429 50.184 43.8429 49.8C43.8429 49.416 43.9442 49.1227 44.1469 48.92C44.3602 48.7173 44.6642 48.616 45.0589 48.616H46.4989V42.072H47.8429L45.5229 43.496C45.2455 43.6667 44.9842 43.736 44.7389 43.704C44.4935 43.6613 44.2855 43.5547 44.1149 43.384C43.9442 43.2133 43.8322 43.0053 43.7789 42.76C43.7255 42.5147 43.7469 42.2693 43.8429 42.024C43.9389 41.7787 44.1309 41.5707 44.4189 41.4L46.6269 40.024C46.8615 39.8747 47.1015 39.7627 47.3469 39.688C47.6029 39.6133 47.8695 39.576 48.1469 39.576C48.5522 39.576 48.8669 39.6827 49.0909 39.896C49.3149 40.0987 49.4269 40.3973 49.4269 40.792V48.616H50.7069C51.1015 48.616 51.4002 48.7173 51.6029 48.92C51.8162 49.1227 51.9229 49.416 51.9229 49.8C51.9229 50.184 51.8162 50.4827 51.6029 50.696C51.4002 50.8987 51.1015 51 50.7069 51H45.0589ZM57.9486 50.712C57.81 50.9573 57.634 51.1173 57.4206 51.192C57.2073 51.2773 56.9993 51.2933 56.7966 51.24C56.594 51.1867 56.418 51.0853 56.2686 50.936C56.1193 50.7867 56.0286 50.6 55.9966 50.376C55.9646 50.152 56.018 49.9173 56.1566 49.672L61.7566 40.024C61.906 39.768 62.082 39.6027 62.2846 39.528C62.4873 39.4427 62.69 39.4267 62.8926 39.48C63.106 39.5333 63.282 39.64 63.4206 39.8C63.57 39.9493 63.6606 40.136 63.6926 40.36C63.7353 40.5733 63.682 40.8027 63.5326 41.048L57.9486 50.712ZM55.6286 46.44C54.6686 46.44 53.922 46.1253 53.3886 45.496C52.866 44.856 52.6046 44.0133 52.6046 42.968C52.6046 42.264 52.7273 41.656 52.9726 41.144C53.218 40.632 53.5646 40.2373 54.0126 39.96C54.4606 39.6827 54.9993 39.544 55.6286 39.544C56.578 39.544 57.314 39.8587 57.8366 40.488C58.37 41.1067 58.6366 41.9333 58.6366 42.968C58.6366 43.6613 58.514 44.2693 58.2686 44.792C58.034 45.3147 57.6926 45.72 57.2446 46.008C56.7966 46.296 56.258 46.44 55.6286 46.44ZM55.6286 44.68C55.7886 44.68 55.922 44.6267 56.0286 44.52C56.146 44.4027 56.2313 44.2213 56.2846 43.976C56.3486 43.72 56.3806 43.384 56.3806 42.968C56.3806 42.3387 56.3113 41.9013 56.1726 41.656C56.0446 41.4107 55.8633 41.288 55.6286 41.288C55.458 41.288 55.314 41.3413 55.1966 41.448C55.09 41.544 55.0046 41.7147 54.9406 41.96C54.8873 42.2053 54.8606 42.5413 54.8606 42.968C54.8606 43.608 54.9246 44.056 55.0526 44.312C55.1806 44.5573 55.3726 44.68 55.6286 44.68ZM64.0766 51.176C63.1273 51.176 62.386 50.8613 61.8526 50.232C61.33 49.6027 61.0686 48.7653 61.0686 47.72C61.0686 47.0053 61.186 46.392 61.4206 45.88C61.666 45.368 62.0126 44.9733 62.4606 44.696C62.9193 44.4187 63.458 44.28 64.0766 44.28C65.026 44.28 65.7673 44.5947 66.3006 45.224C66.834 45.8533 67.1006 46.6853 67.1006 47.72C67.1006 48.4133 66.978 49.0213 66.7326 49.544C66.498 50.056 66.1566 50.456 65.7086 50.744C65.2606 51.032 64.7166 51.176 64.0766 51.176ZM64.0766 49.432C64.2473 49.432 64.386 49.3787 64.4926 49.272C64.61 49.1547 64.6953 48.9733 64.7486 48.728C64.8126 48.472 64.8446 48.136 64.8446 47.72C64.8446 47.0907 64.7753 46.6533 64.6366 46.408C64.5086 46.1627 64.322 46.04 64.0766 46.04C63.9166 46.04 63.778 46.0933 63.6606 46.2C63.554 46.296 63.4686 46.4667 63.4046 46.712C63.3513 46.9467 63.3246 47.2827 63.3246 47.72C63.3246 48.36 63.3886 48.808 63.5166 49.064C63.6446 49.3093 63.8313 49.432 64.0766 49.432Z" fill="url(#paint1_linear_8_1125)"/>
<path d="M33.6637 121.22C32.1037 121.22 30.7637 120.92 29.6437 120.32C28.5237 119.72 27.6637 118.873 27.0637 117.78C26.477 116.687 26.1837 115.407 26.1837 113.94C26.1837 112.847 26.3503 111.853 26.6837 110.96C27.0303 110.067 27.5237 109.3 28.1637 108.66C28.817 108.02 29.6037 107.533 30.5237 107.2C31.457 106.853 32.5037 106.68 33.6637 106.68C34.277 106.68 34.9103 106.753 35.5637 106.9C36.2303 107.033 36.817 107.24 37.3237 107.52C37.697 107.72 37.957 107.973 38.1037 108.28C38.2503 108.587 38.297 108.9 38.2437 109.22C38.2037 109.54 38.0903 109.827 37.9037 110.08C37.717 110.333 37.477 110.507 37.1837 110.6C36.8903 110.68 36.5703 110.633 36.2237 110.46C35.8237 110.273 35.4237 110.133 35.0237 110.04C34.637 109.933 34.2303 109.88 33.8037 109.88C32.977 109.88 32.2837 110.04 31.7237 110.36C31.177 110.667 30.7637 111.12 30.4837 111.72C30.2037 112.32 30.0637 113.06 30.0637 113.94C30.0637 114.82 30.2037 115.567 30.4837 116.18C30.7637 116.78 31.177 117.24 31.7237 117.56C32.2837 117.867 32.977 118.02 33.8037 118.02C34.1503 118.02 34.5237 117.98 34.9237 117.9C35.3237 117.807 35.717 117.667 36.1037 117.48C36.5037 117.307 36.857 117.26 37.1637 117.34C37.4837 117.42 37.737 117.58 37.9237 117.82C38.1237 118.06 38.2503 118.34 38.3037 118.66C38.357 118.967 38.3103 119.273 38.1637 119.58C38.0303 119.887 37.7903 120.133 37.4437 120.32C36.977 120.6 36.397 120.82 35.7037 120.98C35.0237 121.14 34.3437 121.22 33.6637 121.22ZM45.2016 121.22C44.6683 121.22 44.1083 121.18 43.5216 121.1C42.9483 121.033 42.4016 120.927 41.8816 120.78C41.3616 120.633 40.895 120.46 40.4816 120.26C40.1216 120.087 39.8683 119.86 39.7216 119.58C39.575 119.287 39.5216 118.98 39.5616 118.66C39.6016 118.34 39.715 118.06 39.9016 117.82C40.0883 117.567 40.335 117.4 40.6416 117.32C40.9483 117.227 41.295 117.267 41.6816 117.44C42.1883 117.68 42.7616 117.867 43.4016 118C44.0416 118.133 44.6416 118.2 45.2016 118.2C46.0816 118.2 46.695 118.087 47.0416 117.86C47.4016 117.62 47.5816 117.327 47.5816 116.98C47.5816 116.673 47.455 116.427 47.2016 116.24C46.9616 116.053 46.5283 115.893 45.9016 115.76L43.5616 115.26C42.2816 114.993 41.3283 114.527 40.7016 113.86C40.075 113.193 39.7616 112.333 39.7616 111.28C39.7616 110.587 39.9016 109.96 40.1816 109.4C40.475 108.827 40.8816 108.34 41.4016 107.94C41.935 107.54 42.5616 107.233 43.2816 107.02C44.015 106.793 44.8283 106.68 45.7216 106.68C46.415 106.68 47.115 106.76 47.8216 106.92C48.5416 107.067 49.1616 107.293 49.6816 107.6C49.9883 107.76 50.2083 107.98 50.3416 108.26C50.475 108.54 50.5283 108.833 50.5016 109.14C50.475 109.433 50.3683 109.693 50.1816 109.92C50.0083 110.147 49.7683 110.3 49.4616 110.38C49.1683 110.447 48.815 110.393 48.4016 110.22C48.015 110.047 47.575 109.92 47.0816 109.84C46.6016 109.747 46.135 109.7 45.6816 109.7C45.1883 109.7 44.7683 109.76 44.4216 109.88C44.075 109.987 43.8083 110.147 43.6216 110.36C43.4483 110.573 43.3616 110.82 43.3616 111.1C43.3616 111.38 43.475 111.62 43.7016 111.82C43.9416 112.007 44.375 112.167 45.0016 112.3L47.3216 112.8C48.615 113.08 49.5816 113.54 50.2216 114.18C50.8616 114.82 51.1816 115.653 51.1816 116.68C51.1816 117.373 51.0416 118 50.7616 118.56C50.4816 119.12 50.0816 119.6 49.5616 120C49.0416 120.387 48.415 120.687 47.6816 120.9C46.9483 121.113 46.1216 121.22 45.2016 121.22ZM58.229 121.22C57.6957 121.22 57.1357 121.18 56.549 121.1C55.9757 121.033 55.429 120.927 54.909 120.78C54.389 120.633 53.9223 120.46 53.509 120.26C53.149 120.087 52.8957 119.86 52.749 119.58C52.6023 119.287 52.549 118.98 52.589 118.66C52.629 118.34 52.7423 118.06 52.929 117.82C53.1157 117.567 53.3623 117.4 53.669 117.32C53.9757 117.227 54.3223 117.267 54.709 117.44C55.2157 117.68 55.789 117.867 56.429 118C57.069 118.133 57.669 118.2 58.229 118.2C59.109 118.2 59.7223 118.087 60.069 117.86C60.429 117.62 60.609 117.327 60.609 116.98C60.609 116.673 60.4823 116.427 60.229 116.24C59.989 116.053 59.5557 115.893 58.929 115.76L56.589 115.26C55.309 114.993 54.3557 114.527 53.729 113.86C53.1023 113.193 52.789 112.333 52.789 111.28C52.789 110.587 52.929 109.96 53.209 109.4C53.5023 108.827 53.909 108.34 54.429 107.94C54.9623 107.54 55.589 107.233 56.309 107.02C57.0423 106.793 57.8557 106.68 58.749 106.68C59.4423 106.68 60.1423 106.76 60.849 106.92C61.569 107.067 62.189 107.293 62.709 107.6C63.0157 107.76 63.2357 107.98 63.369 108.26C63.5023 108.54 63.5557 108.833 63.529 109.14C63.5023 109.433 63.3957 109.693 63.209 109.92C63.0357 110.147 62.7957 110.3 62.489 110.38C62.1957 110.447 61.8423 110.393 61.429 110.22C61.0423 110.047 60.6023 109.92 60.109 109.84C59.629 109.747 59.1623 109.7 58.709 109.7C58.2157 109.7 57.7957 109.76 57.449 109.88C57.1023 109.987 56.8357 110.147 56.649 110.36C56.4757 110.573 56.389 110.82 56.389 111.1C56.389 111.38 56.5023 111.62 56.729 111.82C56.969 112.007 57.4023 112.167 58.029 112.3L60.349 112.8C61.6423 113.08 62.609 113.54 63.249 114.18C63.889 114.82 64.209 115.653 64.209 116.68C64.209 117.373 64.069 118 63.789 118.56C63.509 119.12 63.109 119.6 62.589 120C62.069 120.387 61.4423 120.687 60.709 120.9C59.9757 121.113 59.149 121.22 58.229 121.22Z" fill="url(#paint2_linear_8_1125)"/>
<defs>
<linearGradient id="paint0_linear_8_1125" x1="5" y1="45" x2="85" y2="45" gradientUnits="userSpaceOnUse">
<stop offset="0.186043" stop-color="#0D434F"/>
<stop offset="0.678087" stop-color="#1E3236"/>
</linearGradient>
<linearGradient id="paint1_linear_8_1125" x1="19" y1="44.5" x2="71" y2="44.5" gradientUnits="userSpaceOnUse">
<stop offset="0.186043" stop-color="#0D434F"/>
<stop offset="0.678087" stop-color="#1E3236"/>
</linearGradient>
<linearGradient id="paint2_linear_8_1125" x1="5" y1="110.5" x2="85" y2="110.5" gradientUnits="userSpaceOnUse">
<stop offset="0.186043" stop-color="#0D434F"/>
<stop offset="0.678087" stop-color="#1E3236"/>
</linearGradient>
</defs>
</svg>
