<svg width="90" height="122" viewBox="0 0 90 122" fill="none" xmlns="http://www.w3.org/2000/svg">
<path d="M45 85C39.7471 85 34.5457 83.9654 29.6927 81.9552C24.8396 79.945 20.4301 76.9986 16.7157 73.2843C13.0014 69.5699 10.055 65.1604 8.04482 60.3073C6.03463 55.4543 5 50.2529 5 45C5 39.7471 6.03463 34.5457 8.04482 29.6927C10.055 24.8396 13.0014 20.4301 16.7157 16.7157C20.4301 13.0014 24.8396 10.055 29.6927 8.04482C34.5457 6.03463 39.7471 5 45 5C50.2529 5 55.4543 6.03463 60.3073 8.04482C65.1604 10.055 69.5699 13.0014 73.2843 16.7157C76.9986 20.4301 79.945 24.8396 81.9552 29.6927C83.9654 34.5457 85 39.7471 85 45C85 50.2529 83.9654 55.4543 81.9552 60.3073C79.945 65.1604 76.9986 69.5699 73.2843 73.2843C69.5699 76.9986 65.1604 79.945 60.3073 81.9552C55.4543 83.9654 50.2529 85 45 85L45 85Z" stroke="#595959" stroke-width="10"/>
<path d="M85 45C85 52.9112 82.654 60.6448 78.2588 67.2228C73.8635 73.8008 67.6164 78.9277 60.3074 81.9552C52.9983 84.9827 44.9557 85.7748 37.1964 84.2314C29.4372 82.688 22.3099 78.8784 16.7158 73.2843C11.1217 67.6902 7.31202 60.5629 5.7686 52.8037C4.22518 45.0445 5.0173 37.0018 8.04479 29.6927C11.0723 22.3837 16.1992 16.1365 22.7771 11.7413C29.3551 7.346 37.0886 5.00002 44.9999 5" stroke="url(#paint0_linear_163_219)" stroke-width="10" stroke-linecap="round"/>
<path d="M23.8 51.176C22.8933 51.176 22.1093 51.048 21.448 50.792C20.7867 50.5253 20.28 50.1467 19.928 49.656C19.576 49.1653 19.4 48.584 19.4 47.912C19.4 47.368 19.5067 46.888 19.72 46.472C19.944 46.056 20.248 45.72 20.632 45.464C21.016 45.1973 21.4533 45.0373 21.944 44.984V45.448C21.2827 45.3093 20.744 44.984 20.328 44.472C19.912 43.96 19.704 43.3467 19.704 42.632C19.704 41.9813 19.8693 41.4267 20.2 40.968C20.5307 40.5093 21.0053 40.1573 21.624 39.912C22.2427 39.6667 22.968 39.544 23.8 39.544C24.6427 39.544 25.368 39.6667 25.976 39.912C26.5947 40.1573 27.0693 40.5093 27.4 40.968C27.7307 41.4267 27.896 41.9813 27.896 42.632C27.896 43.112 27.8 43.5547 27.608 43.96C27.4267 44.3547 27.1707 44.68 26.84 44.936C26.52 45.192 26.1467 45.3573 25.72 45.432V44.984C26.4453 45.0907 27.0373 45.4107 27.496 45.944C27.9653 46.4667 28.2 47.1227 28.2 47.912C28.2 48.584 28.024 49.1653 27.672 49.656C27.32 50.1467 26.8133 50.5253 26.152 50.792C25.5013 51.048 24.7173 51.176 23.8 51.176ZM23.8 48.968C24.3653 48.968 24.7973 48.8613 25.096 48.648C25.3947 48.424 25.544 48.104 25.544 47.688C25.544 47.2613 25.3947 46.9413 25.096 46.728C24.7973 46.5147 24.3653 46.408 23.8 46.408C23.2347 46.408 22.8027 46.5147 22.504 46.728C22.2053 46.9413 22.056 47.2613 22.056 47.688C22.056 48.104 22.2053 48.424 22.504 48.648C22.8027 48.8613 23.2347 48.968 23.8 48.968ZM23.8 44.184C24.1093 44.184 24.3707 44.136 24.584 44.04C24.7973 43.944 24.9573 43.8053 25.064 43.624C25.1813 43.432 25.24 43.2133 25.24 42.968C25.24 42.5947 25.112 42.3013 24.856 42.088C24.6 41.864 24.248 41.752 23.8 41.752C23.352 41.752 23 41.864 22.744 42.088C22.4987 42.3013 22.376 42.5947 22.376 42.968C22.376 43.3413 22.4987 43.64 22.744 43.864C23 44.0773 23.352 44.184 23.8 44.184ZM33.8418 51.176C32.8498 51.176 32.0071 50.952 31.3138 50.504C30.6311 50.056 30.1084 49.4107 29.7458 48.568C29.3831 47.7147 29.2018 46.68 29.2018 45.464C29.2018 44.536 29.3191 43.704 29.5538 42.968C29.7884 42.232 30.1298 41.6133 30.5778 41.112C31.0258 40.6 31.5698 40.2107 32.2098 39.944C32.8498 39.6773 33.5751 39.544 34.3858 39.544C34.8231 39.544 35.2658 39.5973 35.7138 39.704C36.1618 39.8107 36.5884 39.9707 36.9938 40.184C37.2498 40.312 37.4258 40.488 37.5218 40.712C37.6178 40.9253 37.6498 41.1547 37.6178 41.4C37.5964 41.6347 37.5164 41.848 37.3778 42.04C37.2391 42.2213 37.0524 42.3493 36.8177 42.424C36.5938 42.4987 36.3378 42.472 36.0498 42.344C35.7298 42.1947 35.4311 42.0933 35.1538 42.04C34.8764 41.9867 34.6098 41.96 34.3538 41.96C33.8204 41.96 33.3778 42.072 33.0258 42.296C32.6738 42.5093 32.4071 42.84 32.2258 43.288C32.0444 43.7253 31.9538 44.2747 31.9538 44.936V45.768H31.7138C31.8098 45.3093 31.9858 44.92 32.2418 44.6C32.4978 44.2693 32.8124 44.0187 33.1858 43.848C33.5698 43.6773 33.9964 43.592 34.4658 43.592C35.0951 43.592 35.6551 43.752 36.1458 44.072C36.6364 44.3813 37.0258 44.8133 37.3138 45.368C37.6018 45.9227 37.7458 46.552 37.7458 47.256C37.7458 48.024 37.5804 48.7013 37.2498 49.288C36.9191 49.8747 36.4604 50.3387 35.8738 50.68C35.2871 51.0107 34.6098 51.176 33.8418 51.176ZM33.6818 48.936C33.9591 48.936 34.1991 48.872 34.4018 48.744C34.6151 48.616 34.7751 48.4347 34.8818 48.2C34.9991 47.9653 35.0578 47.6933 35.0578 47.384C35.0578 47.064 34.9991 46.792 34.8818 46.568C34.7751 46.3333 34.6151 46.152 34.4018 46.024C34.1991 45.8853 33.9591 45.816 33.6818 45.816C33.4151 45.816 33.1751 45.8853 32.9618 46.024C32.7591 46.152 32.5991 46.3333 32.4818 46.568C32.3644 46.792 32.3058 47.064 32.3058 47.384C32.3058 47.6933 32.3644 47.9653 32.4818 48.2C32.5991 48.4347 32.7591 48.616 32.9618 48.744C33.1751 48.872 33.4151 48.936 33.6818 48.936ZM40.3635 51.096C39.8835 51.096 39.4995 50.952 39.2115 50.664C38.9342 50.376 38.7955 49.9973 38.7955 49.528C38.7955 49.0693 38.9342 48.7013 39.2115 48.424C39.4995 48.136 39.8835 47.992 40.3635 47.992C40.8648 47.992 41.2488 48.136 41.5155 48.424C41.7928 48.7013 41.9315 49.0693 41.9315 49.528C41.9315 49.9973 41.7928 50.376 41.5155 50.664C41.2488 50.952 40.8648 51.096 40.3635 51.096ZM44.8509 51C44.3815 51 44.0402 50.8933 43.8269 50.68C43.6242 50.456 43.5229 50.1307 43.5229 49.704C43.5229 49.4053 43.5869 49.1387 43.7149 48.904C43.8535 48.6693 44.0295 48.44 44.2429 48.216L47.0429 45.288C47.4589 44.84 47.7522 44.456 47.9229 44.136C48.1042 43.816 48.1949 43.496 48.1949 43.176C48.1949 42.7707 48.0615 42.4667 47.7949 42.264C47.5282 42.0613 47.1442 41.96 46.6429 41.96C46.3869 41.96 46.1149 41.9973 45.8269 42.072C45.5389 42.136 45.2295 42.2533 44.8989 42.424C44.6109 42.552 44.3495 42.5893 44.1149 42.536C43.8909 42.4827 43.6989 42.3653 43.5389 42.184C43.3895 42.0027 43.2935 41.7947 43.2509 41.56C43.2189 41.3253 43.2562 41.096 43.3629 40.872C43.4695 40.6373 43.6615 40.4453 43.9389 40.296C44.4295 40.0293 44.9362 39.8373 45.4589 39.72C45.9922 39.6027 46.5255 39.544 47.0589 39.544C47.9335 39.544 48.6642 39.672 49.2509 39.928C49.8482 40.184 50.3015 40.5573 50.6109 41.048C50.9202 41.528 51.0749 42.1253 51.0749 42.84C51.0749 43.288 51.0055 43.7253 50.8669 44.152C50.7389 44.5787 50.5255 45.0053 50.2269 45.432C49.9389 45.8587 49.5495 46.312 49.0589 46.792L46.4669 49.352V48.616H50.4189C50.8135 48.616 51.1122 48.7173 51.3149 48.92C51.5282 49.1227 51.6349 49.416 51.6349 49.8C51.6349 50.184 51.5282 50.4827 51.3149 50.696C51.1122 50.8987 50.8135 51 50.4189 51H44.8509ZM57.9486 50.712C57.81 50.9573 57.634 51.1173 57.4206 51.192C57.2073 51.2773 56.9993 51.2933 56.7966 51.24C56.594 51.1867 56.418 51.0853 56.2686 50.936C56.1193 50.7867 56.0286 50.6 55.9966 50.376C55.9646 50.152 56.018 49.9173 56.1566 49.672L61.7566 40.024C61.906 39.768 62.082 39.6027 62.2846 39.528C62.4873 39.4427 62.69 39.4267 62.8926 39.48C63.106 39.5333 63.282 39.64 63.4206 39.8C63.57 39.9493 63.6606 40.136 63.6926 40.36C63.7353 40.5733 63.682 40.8027 63.5326 41.048L57.9486 50.712ZM55.6286 46.44C54.6686 46.44 53.922 46.1253 53.3886 45.496C52.866 44.856 52.6046 44.0133 52.6046 42.968C52.6046 42.264 52.7273 41.656 52.9726 41.144C53.218 40.632 53.5646 40.2373 54.0126 39.96C54.4606 39.6827 54.9993 39.544 55.6286 39.544C56.578 39.544 57.314 39.8587 57.8366 40.488C58.37 41.1067 58.6366 41.9333 58.6366 42.968C58.6366 43.6613 58.514 44.2693 58.2686 44.792C58.034 45.3147 57.6926 45.72 57.2446 46.008C56.7966 46.296 56.258 46.44 55.6286 46.44ZM55.6286 44.68C55.7886 44.68 55.922 44.6267 56.0286 44.52C56.146 44.4027 56.2313 44.2213 56.2846 43.976C56.3486 43.72 56.3806 43.384 56.3806 42.968C56.3806 42.3387 56.3113 41.9013 56.1726 41.656C56.0446 41.4107 55.8633 41.288 55.6286 41.288C55.458 41.288 55.314 41.3413 55.1966 41.448C55.09 41.544 55.0046 41.7147 54.9406 41.96C54.8873 42.2053 54.8606 42.5413 54.8606 42.968C54.8606 43.608 54.9246 44.056 55.0526 44.312C55.1806 44.5573 55.3726 44.68 55.6286 44.68ZM64.0766 51.176C63.1273 51.176 62.386 50.8613 61.8526 50.232C61.33 49.6027 61.0686 48.7653 61.0686 47.72C61.0686 47.0053 61.186 46.392 61.4206 45.88C61.666 45.368 62.0126 44.9733 62.4606 44.696C62.9193 44.4187 63.458 44.28 64.0766 44.28C65.026 44.28 65.7673 44.5947 66.3006 45.224C66.834 45.8533 67.1006 46.6853 67.1006 47.72C67.1006 48.4133 66.978 49.0213 66.7326 49.544C66.498 50.056 66.1566 50.456 65.7086 50.744C65.2606 51.032 64.7166 51.176 64.0766 51.176ZM64.0766 49.432C64.2473 49.432 64.386 49.3787 64.4926 49.272C64.61 49.1547 64.6953 48.9733 64.7486 48.728C64.8126 48.472 64.8446 48.136 64.8446 47.72C64.8446 47.0907 64.7753 46.6533 64.6366 46.408C64.5086 46.1627 64.322 46.04 64.0766 46.04C63.9166 46.04 63.778 46.0933 63.6606 46.2C63.554 46.296 63.4686 46.4667 63.4046 46.712C63.3513 46.9467 63.3246 47.2827 63.3246 47.72C63.3246 48.36 63.3886 48.808 63.5166 49.064C63.6446 49.3093 63.8313 49.432 64.0766 49.432Z" fill="url(#paint1_linear_163_219)"/>
<path d="M11.9677 121.18C11.381 121.18 10.9277 121.02 10.6077 120.7C10.2877 120.367 10.1277 119.907 10.1277 119.32V108.76C10.1277 108.16 10.2877 107.7 10.6077 107.38C10.941 107.06 11.401 106.9 11.9877 106.9H16.9077C18.5077 106.9 19.741 107.293 20.6077 108.08C21.4877 108.853 21.9277 109.933 21.9277 111.32C21.9277 112.213 21.7277 112.993 21.3277 113.66C20.941 114.313 20.3743 114.82 19.6277 115.18C18.8943 115.527 17.9877 115.7 16.9077 115.7L17.0677 115.34H18.0277C18.601 115.34 19.1077 115.48 19.5477 115.76C19.9877 116.027 20.3543 116.44 20.6477 117L21.6477 118.8C21.861 119.187 21.961 119.567 21.9477 119.94C21.9343 120.3 21.7877 120.6 21.5077 120.84C21.241 121.067 20.8477 121.18 20.3277 121.18C19.8077 121.18 19.381 121.073 19.0477 120.86C18.7277 120.647 18.441 120.313 18.1877 119.86L16.3677 116.52C16.2077 116.227 16.001 116.027 15.7477 115.92C15.5077 115.8 15.2277 115.74 14.9077 115.74H13.8077V119.32C13.8077 119.907 13.6543 120.367 13.3477 120.7C13.041 121.02 12.581 121.18 11.9677 121.18ZM13.8077 113.14H16.2477C16.9543 113.14 17.4943 113 17.8677 112.72C18.241 112.44 18.4277 112.007 18.4277 111.42C18.4277 110.86 18.241 110.44 17.8677 110.16C17.4943 109.867 16.9543 109.72 16.2477 109.72H13.8077V113.14ZM29.0953 121.22C27.8953 121.22 26.8553 121.013 25.9753 120.6C25.1086 120.173 24.442 119.573 23.9753 118.8C23.5086 118.027 23.2753 117.113 23.2753 116.06C23.2753 115.047 23.4953 114.16 23.9353 113.4C24.3886 112.627 25.002 112.027 25.7753 111.6C26.562 111.16 27.4553 110.94 28.4553 110.94C29.1886 110.94 29.8553 111.06 30.4553 111.3C31.0553 111.527 31.5686 111.867 31.9953 112.32C32.422 112.76 32.742 113.293 32.9553 113.92C33.182 114.547 33.2953 115.247 33.2953 116.02C33.2953 116.287 33.222 116.487 33.0753 116.62C32.9286 116.74 32.6953 116.8 32.3753 116.8H26.2553V115.12H30.6953L30.3753 115.38C30.3753 114.887 30.3086 114.487 30.1753 114.18C30.042 113.873 29.842 113.64 29.5753 113.48C29.322 113.32 29.002 113.24 28.6153 113.24C28.202 113.24 27.842 113.34 27.5353 113.54C27.242 113.727 27.0153 114.007 26.8553 114.38C26.6953 114.753 26.6153 115.22 26.6153 115.78V115.96C26.6153 116.907 26.822 117.587 27.2353 118C27.662 118.4 28.3153 118.6 29.1953 118.6C29.4886 118.6 29.822 118.567 30.1953 118.5C30.582 118.42 30.9486 118.313 31.2953 118.18C31.642 118.047 31.942 118.027 32.1953 118.12C32.4486 118.2 32.642 118.347 32.7753 118.56C32.922 118.76 33.002 118.993 33.0153 119.26C33.0286 119.513 32.9686 119.767 32.8353 120.02C32.702 120.26 32.482 120.447 32.1753 120.58C31.7086 120.793 31.2086 120.953 30.6753 121.06C30.1553 121.167 29.6286 121.22 29.0953 121.22ZM38.2491 121.22C37.4891 121.22 36.8157 121.08 36.2291 120.8C35.6557 120.52 35.2024 120.14 34.8691 119.66C34.5491 119.167 34.3891 118.607 34.3891 117.98C34.3891 117.26 34.5757 116.693 34.9491 116.28C35.3224 115.867 35.9224 115.573 36.7491 115.4C37.5757 115.213 38.6757 115.12 40.0491 115.12H41.1491V116.8H40.0491C39.5291 116.8 39.0957 116.84 38.7491 116.92C38.4157 116.987 38.1691 117.1 38.0091 117.26C37.8491 117.407 37.7691 117.6 37.7691 117.84C37.7691 118.147 37.8757 118.4 38.0891 118.6C38.3157 118.8 38.6357 118.9 39.0491 118.9C39.3824 118.9 39.6757 118.827 39.9291 118.68C40.1957 118.533 40.4091 118.333 40.5691 118.08C40.7291 117.813 40.8091 117.507 40.8091 117.16V114.84C40.8091 114.36 40.6824 114.02 40.4291 113.82C40.1891 113.62 39.7691 113.52 39.1691 113.52C38.8491 113.52 38.4891 113.56 38.0891 113.64C37.6891 113.707 37.2424 113.833 36.7491 114.02C36.3891 114.153 36.0824 114.173 35.8291 114.08C35.5757 113.987 35.3757 113.827 35.2291 113.6C35.0957 113.373 35.0291 113.127 35.0291 112.86C35.0424 112.593 35.1291 112.34 35.2891 112.1C35.4624 111.86 35.7224 111.673 36.0691 111.54C36.7091 111.3 37.2957 111.14 37.8291 111.06C38.3757 110.98 38.8757 110.94 39.3291 110.94C40.4224 110.94 41.3224 111.1 42.0291 111.42C42.7491 111.727 43.2824 112.207 43.6291 112.86C43.9891 113.5 44.1691 114.327 44.1691 115.34V119.38C44.1691 119.967 44.0291 120.413 43.7491 120.72C43.4691 121.027 43.0624 121.18 42.5291 121.18C41.9824 121.18 41.5624 121.027 41.2691 120.72C40.9891 120.413 40.8491 119.967 40.8491 119.38V118.86L40.9691 119.14C40.9024 119.567 40.7491 119.933 40.5091 120.24C40.2691 120.547 39.9557 120.787 39.5691 120.96C39.1824 121.133 38.7424 121.22 38.2491 121.22ZM51.2163 121.22C50.1096 121.22 49.1429 121.013 48.3163 120.6C47.5029 120.187 46.8696 119.593 46.4163 118.82C45.9629 118.033 45.7363 117.113 45.7363 116.06C45.7363 115.26 45.8629 114.547 46.1163 113.92C46.3696 113.28 46.7363 112.74 47.2163 112.3C47.7096 111.86 48.2896 111.527 48.9563 111.3C49.6363 111.06 50.3896 110.94 51.2163 110.94C51.6029 110.94 52.0096 110.98 52.4363 111.06C52.8629 111.127 53.3029 111.26 53.7563 111.46C54.0763 111.58 54.2963 111.767 54.4163 112.02C54.5496 112.26 54.6029 112.52 54.5763 112.8C54.5629 113.08 54.4829 113.333 54.3363 113.56C54.2029 113.787 54.0096 113.94 53.7563 114.02C53.5163 114.1 53.2429 114.067 52.9363 113.92C52.7229 113.813 52.4963 113.74 52.2563 113.7C52.0296 113.647 51.8096 113.62 51.5963 113.62C51.2363 113.62 50.9163 113.673 50.6363 113.78C50.3696 113.887 50.1429 114.047 49.9563 114.26C49.7696 114.46 49.6229 114.713 49.5163 115.02C49.4229 115.327 49.3763 115.673 49.3763 116.06C49.3763 116.833 49.5696 117.44 49.9563 117.88C50.3429 118.32 50.8896 118.54 51.5963 118.54C51.8096 118.54 52.0296 118.52 52.2563 118.48C52.4829 118.427 52.7096 118.347 52.9363 118.24C53.2429 118.093 53.5163 118.067 53.7563 118.16C53.9963 118.24 54.1896 118.393 54.3363 118.62C54.4829 118.847 54.5629 119.1 54.5763 119.38C54.5896 119.647 54.5296 119.907 54.3963 120.16C54.2629 120.4 54.0363 120.58 53.7163 120.7C53.2763 120.9 52.8429 121.033 52.4163 121.1C52.0029 121.18 51.6029 121.22 51.2163 121.22ZM61.1219 121.22C60.1219 121.22 59.2952 121.067 58.6419 120.76C58.0019 120.453 57.5219 119.993 57.2019 119.38C56.8819 118.753 56.7219 117.973 56.7219 117.04V113.78H56.0419C55.6152 113.78 55.2819 113.667 55.0419 113.44C54.8152 113.213 54.7019 112.887 54.7019 112.46C54.7019 112.033 54.8152 111.713 55.0419 111.5C55.2819 111.273 55.6152 111.16 56.0419 111.16H56.7219V109.92C56.7219 109.333 56.8752 108.887 57.1819 108.58C57.4885 108.273 57.9285 108.12 58.5019 108.12C59.0752 108.12 59.5152 108.273 59.8219 108.58C60.1285 108.887 60.2819 109.333 60.2819 109.92V111.16H61.9219C62.3619 111.16 62.6952 111.273 62.9219 111.5C63.1619 111.713 63.2819 112.033 63.2819 112.46C63.2819 112.887 63.1619 113.213 62.9219 113.44C62.6952 113.667 62.3619 113.78 61.9219 113.78H60.2819V116.92C60.2819 117.413 60.3952 117.78 60.6219 118.02C60.8619 118.247 61.2352 118.36 61.7419 118.36C61.9285 118.36 62.1085 118.34 62.2819 118.3C62.4552 118.26 62.6152 118.24 62.7619 118.24C62.9752 118.227 63.1485 118.293 63.2819 118.44C63.4152 118.573 63.4819 118.887 63.4819 119.38C63.4819 119.78 63.4219 120.12 63.3019 120.4C63.1819 120.667 62.9685 120.86 62.6619 120.98C62.4752 121.047 62.2219 121.1 61.9019 121.14C61.5819 121.193 61.3219 121.22 61.1219 121.22ZM64.7975 121.16C64.2642 121.187 63.8508 121.053 63.5575 120.76C63.2775 120.453 63.1375 120.067 63.1375 119.6C63.1375 119.24 63.2375 118.927 63.4375 118.66C63.6375 118.393 63.9375 118.247 64.3375 118.22L64.8975 118.18C65.3775 118.153 65.7308 118.04 65.9575 117.84C66.1842 117.627 66.2975 117.28 66.2975 116.8V108.58C66.2975 107.967 66.4575 107.507 66.7775 107.2C67.0975 106.88 67.5508 106.72 68.1375 106.72C68.7242 106.72 69.1775 106.88 69.4975 107.2C69.8175 107.507 69.9775 107.967 69.9775 108.58V116.74C69.9775 117.66 69.8108 118.44 69.4775 119.08C69.1442 119.707 68.6442 120.193 67.9775 120.54C67.3242 120.873 66.5042 121.067 65.5175 121.12L64.7975 121.16ZM76.1905 121.22C75.6038 121.22 75.0038 121.173 74.3905 121.08C73.7905 121 73.2438 120.847 72.7505 120.62C72.4171 120.487 72.1771 120.307 72.0305 120.08C71.8971 119.853 71.8305 119.613 71.8305 119.36C71.8438 119.107 71.9171 118.88 72.0505 118.68C72.1971 118.467 72.3838 118.32 72.6105 118.24C72.8505 118.147 73.1171 118.153 73.4105 118.26C73.9705 118.46 74.4705 118.607 74.9105 118.7C75.3638 118.78 75.7971 118.82 76.2105 118.82C76.7038 118.82 77.0571 118.753 77.2705 118.62C77.4838 118.473 77.5905 118.287 77.5905 118.06C77.5905 117.86 77.5171 117.707 77.3705 117.6C77.2371 117.493 77.0438 117.42 76.7905 117.38L74.5705 117.02C73.7438 116.873 73.1038 116.573 72.6505 116.12C72.1971 115.653 71.9705 115.047 71.9705 114.3C71.9705 113.607 72.1638 113.013 72.5505 112.52C72.9505 112.013 73.4905 111.627 74.1705 111.36C74.8638 111.08 75.6571 110.94 76.5505 110.94C77.1505 110.94 77.6971 110.987 78.1905 111.08C78.6838 111.16 79.1638 111.313 79.6305 111.54C79.9238 111.66 80.1305 111.833 80.2505 112.06C80.3705 112.287 80.4171 112.527 80.3905 112.78C80.3638 113.02 80.2771 113.247 80.1305 113.46C79.9971 113.66 79.8105 113.8 79.5705 113.88C79.3305 113.947 79.0505 113.927 78.7305 113.82C78.2905 113.647 77.8971 113.52 77.5505 113.44C77.2171 113.36 76.9038 113.32 76.6105 113.32C76.0638 113.32 75.6771 113.393 75.4505 113.54C75.2238 113.687 75.1105 113.873 75.1105 114.1C75.1105 114.273 75.1705 114.42 75.2905 114.54C75.4105 114.647 75.5971 114.72 75.8505 114.76L78.0705 115.14C78.9238 115.273 79.5771 115.567 80.0305 116.02C80.4971 116.46 80.7305 117.06 80.7305 117.82C80.7305 118.9 80.3171 119.74 79.4905 120.34C78.6638 120.927 77.5638 121.22 76.1905 121.22Z" fill="url(#paint2_linear_163_219)"/>
<defs>
<linearGradient id="paint0_linear_163_219" x1="5" y1="45" x2="85" y2="45" gradientUnits="userSpaceOnUse">
<stop offset="0.186043" stop-color="#d9d9d9"/>
</linearGradient>
<linearGradient id="paint1_linear_163_219" x1="19" y1="44.5" x2="71" y2="44.5" gradientUnits="userSpaceOnUse">
<stop offset="0.186043" stop-color="#d9d9d9"/>
</linearGradient>
<linearGradient id="paint2_linear_163_219" x1="5" y1="110.5" x2="85" y2="110.5" gradientUnits="userSpaceOnUse">
<stop offset="0.186043" stop-color="#d9d9d9"/>
</linearGradient>
</defs>
</svg>
