<svg width="90" height="120" viewBox="0 0 90 120" fill="none" xmlns="http://www.w3.org/2000/svg">
<path d="M45 85C39.7471 85 34.5457 83.9654 29.6927 81.9552C24.8396 79.945 20.4301 76.9986 16.7157 73.2843C13.0014 69.5699 10.055 65.1604 8.04482 60.3073C6.03463 55.4543 5 50.2529 5 45C5 39.7471 6.03463 34.5457 8.04482 29.6927C10.055 24.8396 13.0014 20.4301 16.7157 16.7157C20.4301 13.0014 24.8396 10.055 29.6927 8.04482C34.5457 6.03463 39.7471 5 45 5C50.2529 5 55.4543 6.03463 60.3073 8.04482C65.1604 10.055 69.5699 13.0014 73.2843 16.7157C76.9986 20.4301 79.945 24.8396 81.9552 29.6927C83.9654 34.5457 85 39.7471 85 45C85 50.2529 83.9654 55.4543 81.9552 60.3073C79.945 65.1604 76.9986 69.5699 73.2843 73.2843C69.5699 76.9986 65.1604 79.945 60.3073 81.9552C55.4543 83.9654 50.2529 85 45 85L45 85Z" stroke="#595959" stroke-width="10"/>
<path d="M85 45C85 52.9112 82.654 60.6448 78.2588 67.2228C73.8635 73.8008 67.6164 78.9277 60.3074 81.9552C52.9983 84.9827 44.9557 85.7748 37.1964 84.2314C29.4372 82.688 22.3099 78.8784 16.7158 73.2843C11.1217 67.6902 7.31202 60.5629 5.7686 52.8037C4.22518 45.0445 5.0173 37.0018 8.04479 29.6927C11.0723 22.3837 16.1992 16.1365 22.7771 11.7413C29.3551 7.346 37.0886 5.00002 44.9999 5" stroke="url(#paint0_linear_163_214)" stroke-width="10" stroke-linecap="round"/>
<path d="M21.832 51.144C21.4693 51.144 21.176 51.064 20.952 50.904C20.728 50.7333 20.6 50.5093 20.568 50.232C20.536 49.9547 20.6107 49.6507 20.792 49.32L25.224 41.272V42.12H20.728C20.3333 42.12 20.024 42.0187 19.8 41.816C19.5867 41.6133 19.48 41.3147 19.48 40.92C19.48 40.5253 19.5867 40.2267 19.8 40.024C20.024 39.8213 20.3333 39.72 20.728 39.72H26.744C27.1387 39.72 27.464 39.8267 27.72 40.04C27.9867 40.2533 28.12 40.5573 28.12 40.952C28.12 41.2933 28.0667 41.592 27.96 41.848C27.864 42.0933 27.7413 42.3547 27.592 42.632L23.496 50.216C23.3253 50.5467 23.1067 50.7867 22.84 50.936C22.584 51.0747 22.248 51.144 21.832 51.144ZM33.3938 51.176C32.4871 51.176 31.7031 51.048 31.0418 50.792C30.3804 50.5253 29.8738 50.1467 29.5218 49.656C29.1698 49.1653 28.9938 48.584 28.9938 47.912C28.9938 47.368 29.1004 46.888 29.3138 46.472C29.5378 46.056 29.8418 45.72 30.2258 45.464C30.6098 45.1973 31.0471 45.0373 31.5378 44.984V45.448C30.8764 45.3093 30.3378 44.984 29.9218 44.472C29.5058 43.96 29.2978 43.3467 29.2978 42.632C29.2978 41.9813 29.4631 41.4267 29.7938 40.968C30.1244 40.5093 30.5991 40.1573 31.2178 39.912C31.8364 39.6667 32.5618 39.544 33.3938 39.544C34.2364 39.544 34.9618 39.6667 35.5698 39.912C36.1884 40.1573 36.6631 40.5093 36.9938 40.968C37.3244 41.4267 37.4898 41.9813 37.4898 42.632C37.4898 43.112 37.3938 43.5547 37.2018 43.96C37.0204 44.3547 36.7644 44.68 36.4338 44.936C36.1138 45.192 35.7404 45.3573 35.3138 45.432V44.984C36.0391 45.0907 36.6311 45.4107 37.0898 45.944C37.5591 46.4667 37.7938 47.1227 37.7938 47.912C37.7938 48.584 37.6178 49.1653 37.2658 49.656C36.9138 50.1467 36.4071 50.5253 35.7458 50.792C35.0951 51.048 34.3111 51.176 33.3938 51.176ZM33.3938 48.968C33.9591 48.968 34.3911 48.8613 34.6898 48.648C34.9884 48.424 35.1378 48.104 35.1378 47.688C35.1378 47.2613 34.9884 46.9413 34.6898 46.728C34.3911 46.5147 33.9591 46.408 33.3938 46.408C32.8284 46.408 32.3964 46.5147 32.0978 46.728C31.7991 46.9413 31.6498 47.2613 31.6498 47.688C31.6498 48.104 31.7991 48.424 32.0978 48.648C32.3964 48.8613 32.8284 48.968 33.3938 48.968ZM33.3938 44.184C33.7031 44.184 33.9644 44.136 34.1778 44.04C34.3911 43.944 34.5511 43.8053 34.6578 43.624C34.7751 43.432 34.8338 43.2133 34.8338 42.968C34.8338 42.5947 34.7058 42.3013 34.4498 42.088C34.1938 41.864 33.8418 41.752 33.3938 41.752C32.9458 41.752 32.5938 41.864 32.3378 42.088C32.0924 42.3013 31.9698 42.5947 31.9698 42.968C31.9698 43.3413 32.0924 43.64 32.3378 43.864C32.5938 44.0773 32.9458 44.184 33.3938 44.184ZM40.3635 51.096C39.8835 51.096 39.4995 50.952 39.2115 50.664C38.9342 50.376 38.7955 49.9973 38.7955 49.528C38.7955 49.0693 38.9342 48.7013 39.2115 48.424C39.4995 48.136 39.8835 47.992 40.3635 47.992C40.8648 47.992 41.2488 48.136 41.5155 48.424C41.7928 48.7013 41.9315 49.0693 41.9315 49.528C41.9315 49.9973 41.7928 50.376 41.5155 50.664C41.2488 50.952 40.8648 51.096 40.3635 51.096ZM46.3549 51.176C45.9175 51.176 45.4749 51.1227 45.0269 51.016C44.5789 50.9093 44.1522 50.7493 43.7469 50.536C43.4909 50.408 43.3149 50.2373 43.2189 50.024C43.1229 49.8 43.0855 49.5707 43.1069 49.336C43.1389 49.0907 43.2242 48.8773 43.3629 48.696C43.5015 48.504 43.6829 48.3707 43.9069 48.296C44.1415 48.2213 44.4029 48.248 44.6909 48.376C45.0109 48.5253 45.3095 48.6267 45.5869 48.68C45.8642 48.7333 46.1309 48.76 46.3869 48.76C46.9202 48.76 47.3629 48.6533 47.7149 48.44C48.0775 48.216 48.3442 47.8853 48.5149 47.448C48.6962 47 48.7869 46.4453 48.7869 45.784V44.952H49.0269C48.9415 45.4 48.7655 45.7893 48.4989 46.12C48.2429 46.4507 47.9229 46.7013 47.5389 46.872C47.1655 47.0427 46.7442 47.128 46.2749 47.128C45.6562 47.128 45.0962 46.9733 44.5949 46.664C44.1042 46.344 43.7149 45.9067 43.4269 45.352C43.1389 44.7867 42.9949 44.1573 42.9949 43.464C42.9949 42.696 43.1602 42.0187 43.4909 41.432C43.8215 40.8453 44.2802 40.3867 44.8669 40.056C45.4642 39.7147 46.1415 39.544 46.8989 39.544C47.8909 39.544 48.7282 39.768 49.4109 40.216C50.1042 40.664 50.6322 41.3147 50.9949 42.168C51.3575 43.0107 51.5389 44.04 51.5389 45.256C51.5389 46.184 51.4215 47.016 51.1869 47.752C50.9522 48.488 50.6109 49.112 50.1629 49.624C49.7149 50.1253 49.1709 50.5093 48.5309 50.776C47.8909 51.0427 47.1655 51.176 46.3549 51.176ZM47.0589 44.888C47.3362 44.888 47.5762 44.824 47.7789 44.696C47.9922 44.5573 48.1522 44.376 48.2589 44.152C48.3762 43.9173 48.4349 43.6453 48.4349 43.336C48.4349 43.016 48.3762 42.7387 48.2589 42.504C48.1522 42.2693 47.9922 42.0933 47.7789 41.976C47.5762 41.848 47.3362 41.784 47.0589 41.784C46.7815 41.784 46.5415 41.848 46.3389 41.976C46.1362 42.0933 45.9762 42.2693 45.8589 42.504C45.7415 42.7387 45.6829 43.016 45.6829 43.336C45.6829 43.6453 45.7415 43.9173 45.8589 44.152C45.9762 44.376 46.1362 44.5573 46.3389 44.696C46.5415 44.824 46.7815 44.888 47.0589 44.888ZM57.9486 50.712C57.81 50.9573 57.634 51.1173 57.4206 51.192C57.2073 51.2773 56.9993 51.2933 56.7966 51.24C56.594 51.1867 56.418 51.0853 56.2686 50.936C56.1193 50.7867 56.0286 50.6 55.9966 50.376C55.9646 50.152 56.018 49.9173 56.1566 49.672L61.7566 40.024C61.906 39.768 62.082 39.6027 62.2846 39.528C62.4873 39.4427 62.69 39.4267 62.8926 39.48C63.106 39.5333 63.282 39.64 63.4206 39.8C63.57 39.9493 63.6606 40.136 63.6926 40.36C63.7353 40.5733 63.682 40.8027 63.5326 41.048L57.9486 50.712ZM55.6286 46.44C54.6686 46.44 53.922 46.1253 53.3886 45.496C52.866 44.856 52.6046 44.0133 52.6046 42.968C52.6046 42.264 52.7273 41.656 52.9726 41.144C53.218 40.632 53.5646 40.2373 54.0126 39.96C54.4606 39.6827 54.9993 39.544 55.6286 39.544C56.578 39.544 57.314 39.8587 57.8366 40.488C58.37 41.1067 58.6366 41.9333 58.6366 42.968C58.6366 43.6613 58.514 44.2693 58.2686 44.792C58.034 45.3147 57.6926 45.72 57.2446 46.008C56.7966 46.296 56.258 46.44 55.6286 46.44ZM55.6286 44.68C55.7886 44.68 55.922 44.6267 56.0286 44.52C56.146 44.4027 56.2313 44.2213 56.2846 43.976C56.3486 43.72 56.3806 43.384 56.3806 42.968C56.3806 42.3387 56.3113 41.9013 56.1726 41.656C56.0446 41.4107 55.8633 41.288 55.6286 41.288C55.458 41.288 55.314 41.3413 55.1966 41.448C55.09 41.544 55.0046 41.7147 54.9406 41.96C54.8873 42.2053 54.8606 42.5413 54.8606 42.968C54.8606 43.608 54.9246 44.056 55.0526 44.312C55.1806 44.5573 55.3726 44.68 55.6286 44.68ZM64.0766 51.176C63.1273 51.176 62.386 50.8613 61.8526 50.232C61.33 49.6027 61.0686 48.7653 61.0686 47.72C61.0686 47.0053 61.186 46.392 61.4206 45.88C61.666 45.368 62.0126 44.9733 62.4606 44.696C62.9193 44.4187 63.458 44.28 64.0766 44.28C65.026 44.28 65.7673 44.5947 66.3006 45.224C66.834 45.8533 67.1006 46.6853 67.1006 47.72C67.1006 48.4133 66.978 49.0213 66.7326 49.544C66.498 50.056 66.1566 50.456 65.7086 50.744C65.2606 51.032 64.7166 51.176 64.0766 51.176ZM64.0766 49.432C64.2473 49.432 64.386 49.3787 64.4926 49.272C64.61 49.1547 64.6953 48.9733 64.7486 48.728C64.8126 48.472 64.8446 48.136 64.8446 47.72C64.8446 47.0907 64.7753 46.6533 64.6366 46.408C64.5086 46.1627 64.322 46.04 64.0766 46.04C63.9166 46.04 63.778 46.0933 63.6606 46.2C63.554 46.296 63.4686 46.4667 63.4046 46.712C63.3513 46.9467 63.3246 47.2827 63.3246 47.72C63.3246 48.36 63.3886 48.808 63.5166 49.064C63.6446 49.3093 63.8313 49.432 64.0766 49.432Z" fill="url(#paint1_linear_163_214)"/>
<path d="M11.0336 116.135C10.5936 116.135 10.2536 116.015 10.0136 115.775C9.77361 115.525 9.65361 115.18 9.65361 114.74V107.675H7.29861C6.92861 107.675 6.64361 107.58 6.44361 107.39C6.25361 107.19 6.15861 106.91 6.15861 106.55C6.15861 106.18 6.25361 105.9 6.44361 105.71C6.64361 105.52 6.92861 105.425 7.29861 105.425H14.7686C15.1386 105.425 15.4186 105.52 15.6086 105.71C15.8086 105.9 15.9086 106.18 15.9086 106.55C15.9086 106.91 15.8086 107.19 15.6086 107.39C15.4186 107.58 15.1386 107.675 14.7686 107.675H12.4136V114.74C12.4136 115.18 12.2986 115.525 12.0686 115.775C11.8386 116.015 11.4936 116.135 11.0336 116.135ZM17.6101 118.835C17.3001 118.835 17.0501 118.755 16.8601 118.595C16.6701 118.435 16.5501 118.225 16.5001 117.965C16.4601 117.705 16.5051 117.43 16.6351 117.14L17.6401 114.965V116.045L15.0751 110.18C14.9451 109.88 14.9001 109.6 14.9401 109.34C14.9901 109.08 15.1251 108.875 15.3451 108.725C15.5651 108.565 15.8651 108.485 16.2451 108.485C16.5651 108.485 16.8201 108.56 17.0101 108.71C17.2101 108.85 17.3901 109.13 17.5501 109.55L19.0501 113.45H18.5401L20.1301 109.535C20.2901 109.125 20.4701 108.85 20.6701 108.71C20.8801 108.56 21.1601 108.485 21.5101 108.485C21.8101 108.485 22.0501 108.565 22.2301 108.725C22.4101 108.875 22.5201 109.08 22.5601 109.34C22.6001 109.6 22.5551 109.88 22.4251 110.18L19.0201 117.83C18.8401 118.23 18.6401 118.495 18.4201 118.625C18.2101 118.765 17.9401 118.835 17.6101 118.835ZM24.9003 118.835C24.4803 118.835 24.1553 118.72 23.9253 118.49C23.6953 118.26 23.5803 117.925 23.5803 117.485V109.82C23.5803 109.39 23.6903 109.06 23.9103 108.83C24.1403 108.6 24.4653 108.485 24.8853 108.485C25.3153 108.485 25.6403 108.6 25.8603 108.83C26.0903 109.06 26.2053 109.39 26.2053 109.82V110.69L26.0403 109.955C26.1803 109.505 26.4703 109.145 26.9103 108.875C27.3603 108.595 27.8703 108.455 28.4403 108.455C29.0803 108.455 29.6403 108.61 30.1203 108.92C30.6103 109.23 30.9903 109.67 31.2603 110.24C31.5303 110.81 31.6653 111.5 31.6653 112.31C31.6653 113.1 31.5303 113.785 31.2603 114.365C30.9903 114.945 30.6103 115.39 30.1203 115.7C29.6403 116.01 29.0803 116.165 28.4403 116.165C27.8903 116.165 27.3953 116.035 26.9553 115.775C26.5153 115.515 26.2203 115.175 26.0703 114.755H26.2503V117.485C26.2503 117.925 26.1303 118.26 25.8903 118.49C25.6603 118.72 25.3303 118.835 24.9003 118.835ZM27.6003 114.2C27.8703 114.2 28.1053 114.135 28.3053 114.005C28.5153 113.865 28.6803 113.66 28.8003 113.39C28.9203 113.11 28.9803 112.75 28.9803 112.31C28.9803 111.64 28.8503 111.16 28.5903 110.87C28.3303 110.57 28.0003 110.42 27.6003 110.42C27.3303 110.42 27.0903 110.485 26.8803 110.615C26.6703 110.745 26.5053 110.95 26.3853 111.23C26.2653 111.5 26.2053 111.86 26.2053 112.31C26.2053 112.97 26.3353 113.45 26.5953 113.75C26.8553 114.05 27.1903 114.2 27.6003 114.2ZM36.9021 116.165C36.0021 116.165 35.2221 116.01 34.5621 115.7C33.9121 115.38 33.4121 114.93 33.0621 114.35C32.7121 113.77 32.5371 113.085 32.5371 112.295C32.5371 111.535 32.7021 110.87 33.0321 110.3C33.3721 109.72 33.8321 109.27 34.4121 108.95C35.0021 108.62 35.6721 108.455 36.4221 108.455C36.9721 108.455 37.4721 108.545 37.9221 108.725C38.3721 108.895 38.7571 109.15 39.0771 109.49C39.3971 109.82 39.6371 110.22 39.7971 110.69C39.9671 111.16 40.0521 111.685 40.0521 112.265C40.0521 112.465 39.9971 112.615 39.8871 112.715C39.7771 112.805 39.6021 112.85 39.3621 112.85H34.7721V111.59H38.1021L37.8621 111.785C37.8621 111.415 37.8121 111.115 37.7121 110.885C37.6121 110.655 37.4621 110.48 37.2621 110.36C37.0721 110.24 36.8321 110.18 36.5421 110.18C36.2321 110.18 35.9621 110.255 35.7321 110.405C35.5121 110.545 35.3421 110.755 35.2221 111.035C35.1021 111.315 35.0421 111.665 35.0421 112.085V112.22C35.0421 112.93 35.1971 113.44 35.5071 113.75C35.8271 114.05 36.3171 114.2 36.9771 114.2C37.1971 114.2 37.4471 114.175 37.7271 114.125C38.0171 114.065 38.2921 113.985 38.5521 113.885C38.8121 113.785 39.0371 113.77 39.2271 113.84C39.4171 113.9 39.5621 114.01 39.6621 114.17C39.7721 114.32 39.8321 114.495 39.8421 114.695C39.8521 114.885 39.8071 115.075 39.7071 115.265C39.6071 115.445 39.4421 115.585 39.2121 115.685C38.8621 115.845 38.4871 115.965 38.0871 116.045C37.6971 116.125 37.3021 116.165 36.9021 116.165ZM45.3124 116.165C44.9124 116.165 44.4924 116.135 44.0524 116.075C43.6224 116.025 43.2124 115.945 42.8224 115.835C42.4324 115.725 42.0824 115.595 41.7724 115.445C41.5024 115.315 41.3124 115.145 41.2024 114.935C41.0924 114.715 41.0524 114.485 41.0824 114.245C41.1124 114.005 41.1974 113.795 41.3374 113.615C41.4774 113.425 41.6624 113.3 41.8924 113.24C42.1224 113.17 42.3824 113.2 42.6724 113.33C43.0524 113.51 43.4824 113.65 43.9624 113.75C44.4424 113.85 44.8924 113.9 45.3124 113.9C45.9724 113.9 46.4324 113.815 46.6924 113.645C46.9624 113.465 47.0974 113.245 47.0974 112.985C47.0974 112.755 47.0024 112.57 46.8124 112.43C46.6324 112.29 46.3074 112.17 45.8374 112.07L44.0824 111.695C43.1224 111.495 42.4074 111.145 41.9374 110.645C41.4674 110.145 41.2324 109.5 41.2324 108.71C41.2324 108.19 41.3374 107.72 41.5474 107.3C41.7674 106.87 42.0724 106.505 42.4624 106.205C42.8624 105.905 43.3324 105.675 43.8724 105.515C44.4224 105.345 45.0324 105.26 45.7024 105.26C46.2224 105.26 46.7474 105.32 47.2774 105.44C47.8174 105.55 48.2824 105.72 48.6724 105.95C48.9024 106.07 49.0674 106.235 49.1674 106.445C49.2674 106.655 49.3074 106.875 49.2874 107.105C49.2674 107.325 49.1874 107.52 49.0474 107.69C48.9174 107.86 48.7374 107.975 48.5074 108.035C48.2874 108.085 48.0224 108.045 47.7124 107.915C47.4224 107.785 47.0924 107.69 46.7224 107.63C46.3624 107.56 46.0124 107.525 45.6724 107.525C45.3024 107.525 44.9874 107.57 44.7274 107.66C44.4674 107.74 44.2674 107.86 44.1274 108.02C43.9974 108.18 43.9324 108.365 43.9324 108.575C43.9324 108.785 44.0174 108.965 44.1874 109.115C44.3674 109.255 44.6924 109.375 45.1624 109.475L46.9024 109.85C47.8724 110.06 48.5974 110.405 49.0774 110.885C49.5574 111.365 49.7974 111.99 49.7974 112.76C49.7974 113.28 49.6924 113.75 49.4824 114.17C49.2724 114.59 48.9724 114.95 48.5824 115.25C48.1924 115.54 47.7224 115.765 47.1724 115.925C46.6224 116.085 46.0024 116.165 45.3124 116.165ZM54.7379 116.165C53.9079 116.165 53.1829 116.01 52.5629 115.7C51.9529 115.39 51.4779 114.945 51.1379 114.365C50.7979 113.775 50.6279 113.085 50.6279 112.295C50.6279 111.695 50.7229 111.16 50.9129 110.69C51.1029 110.21 51.3779 109.805 51.7379 109.475C52.1079 109.145 52.5429 108.895 53.0429 108.725C53.5529 108.545 54.1179 108.455 54.7379 108.455C55.0279 108.455 55.3329 108.485 55.6529 108.545C55.9729 108.595 56.3029 108.695 56.6429 108.845C56.8829 108.935 57.0479 109.075 57.1379 109.265C57.2379 109.445 57.2779 109.64 57.2579 109.85C57.2479 110.06 57.1879 110.25 57.0779 110.42C56.9779 110.59 56.8329 110.705 56.6429 110.765C56.4629 110.825 56.2579 110.8 56.0279 110.69C55.8679 110.61 55.6979 110.555 55.5179 110.525C55.3479 110.485 55.1829 110.465 55.0229 110.465C54.7529 110.465 54.5129 110.505 54.3029 110.585C54.1029 110.665 53.9329 110.785 53.7929 110.945C53.6529 111.095 53.5429 111.285 53.4629 111.515C53.3929 111.745 53.3579 112.005 53.3579 112.295C53.3579 112.875 53.5029 113.33 53.7929 113.66C54.0829 113.99 54.4929 114.155 55.0229 114.155C55.1829 114.155 55.3479 114.14 55.5179 114.11C55.6879 114.07 55.8579 114.01 56.0279 113.93C56.2579 113.82 56.4629 113.8 56.6429 113.87C56.8229 113.93 56.9679 114.045 57.0779 114.215C57.1879 114.385 57.2479 114.575 57.2579 114.785C57.2679 114.985 57.2229 115.18 57.1229 115.37C57.0229 115.55 56.8529 115.685 56.6129 115.775C56.2829 115.925 55.9579 116.025 55.6379 116.075C55.3279 116.135 55.0279 116.165 54.7379 116.165ZM59.6035 116.135C59.1635 116.135 58.8235 116.02 58.5835 115.79C58.3535 115.56 58.2385 115.225 58.2385 114.785V109.82C58.2385 109.39 58.3485 109.06 58.5685 108.83C58.7985 108.6 59.1235 108.485 59.5435 108.485C59.9635 108.485 60.2835 108.6 60.5035 108.83C60.7235 109.06 60.8335 109.39 60.8335 109.82V110.435H60.6835C60.7835 109.835 61.0385 109.36 61.4485 109.01C61.8685 108.66 62.3885 108.475 63.0085 108.455C63.2985 108.445 63.5135 108.52 63.6535 108.68C63.8035 108.83 63.8835 109.115 63.8935 109.535C63.8935 109.895 63.8185 110.18 63.6685 110.39C63.5185 110.6 63.2335 110.725 62.8135 110.765L62.4685 110.795C61.9385 110.845 61.5535 110.995 61.3135 111.245C61.0735 111.485 60.9535 111.845 60.9535 112.325V114.785C60.9535 115.225 60.8385 115.56 60.6085 115.79C60.3785 116.02 60.0435 116.135 59.6035 116.135ZM66.0624 116.135C65.6424 116.135 65.3174 116.01 65.0874 115.76C64.8574 115.51 64.7424 115.15 64.7424 114.68V109.94C64.7424 109.47 64.8574 109.11 65.0874 108.86C65.3174 108.61 65.6424 108.485 66.0624 108.485C66.4924 108.485 66.8224 108.61 67.0524 108.86C67.2924 109.11 67.4124 109.47 67.4124 109.94V114.68C67.4124 115.15 67.2974 115.51 67.0674 115.76C66.8374 116.01 66.5024 116.135 66.0624 116.135ZM66.0624 107.42C65.5924 107.42 65.2274 107.31 64.9674 107.09C64.7174 106.87 64.5924 106.55 64.5924 106.13C64.5924 105.72 64.7174 105.405 64.9674 105.185C65.2274 104.965 65.5924 104.855 66.0624 104.855C66.5524 104.855 66.9224 104.965 67.1724 105.185C67.4224 105.405 67.5474 105.72 67.5474 106.13C67.5474 106.55 67.4224 106.87 67.1724 107.09C66.9224 107.31 66.5524 107.42 66.0624 107.42ZM70.2812 118.835C69.8612 118.835 69.5362 118.72 69.3062 118.49C69.0762 118.26 68.9612 117.925 68.9612 117.485V109.82C68.9612 109.39 69.0712 109.06 69.2912 108.83C69.5212 108.6 69.8462 108.485 70.2662 108.485C70.6962 108.485 71.0212 108.6 71.2412 108.83C71.4712 109.06 71.5862 109.39 71.5862 109.82V110.69L71.4212 109.955C71.5612 109.505 71.8512 109.145 72.2912 108.875C72.7412 108.595 73.2512 108.455 73.8212 108.455C74.4612 108.455 75.0212 108.61 75.5012 108.92C75.9912 109.23 76.3712 109.67 76.6412 110.24C76.9112 110.81 77.0462 111.5 77.0462 112.31C77.0462 113.1 76.9112 113.785 76.6412 114.365C76.3712 114.945 75.9912 115.39 75.5012 115.7C75.0212 116.01 74.4612 116.165 73.8212 116.165C73.2712 116.165 72.7762 116.035 72.3362 115.775C71.8962 115.515 71.6012 115.175 71.4512 114.755H71.6312V117.485C71.6312 117.925 71.5112 118.26 71.2712 118.49C71.0412 118.72 70.7112 118.835 70.2812 118.835ZM72.9812 114.2C73.2512 114.2 73.4862 114.135 73.6862 114.005C73.8962 113.865 74.0612 113.66 74.1812 113.39C74.3012 113.11 74.3612 112.75 74.3612 112.31C74.3612 111.64 74.2312 111.16 73.9712 110.87C73.7112 110.57 73.3812 110.42 72.9812 110.42C72.7112 110.42 72.4712 110.485 72.2612 110.615C72.0512 110.745 71.8862 110.95 71.7662 111.23C71.6462 111.5 71.5862 111.86 71.5862 112.31C71.5862 112.97 71.7162 113.45 71.9762 113.75C72.2362 114.05 72.5712 114.2 72.9812 114.2ZM82.0597 116.165C81.3097 116.165 80.6897 116.05 80.1997 115.82C79.7197 115.59 79.3597 115.245 79.1197 114.785C78.8797 114.315 78.7597 113.73 78.7597 113.03V110.585H78.2497C77.9297 110.585 77.6797 110.5 77.4997 110.33C77.3297 110.16 77.2447 109.915 77.2447 109.595C77.2447 109.275 77.3297 109.035 77.4997 108.875C77.6797 108.705 77.9297 108.62 78.2497 108.62H78.7597V107.69C78.7597 107.25 78.8747 106.915 79.1047 106.685C79.3347 106.455 79.6647 106.34 80.0947 106.34C80.5247 106.34 80.8547 106.455 81.0847 106.685C81.3147 106.915 81.4297 107.25 81.4297 107.69V108.62H82.6597C82.9897 108.62 83.2397 108.705 83.4097 108.875C83.5897 109.035 83.6797 109.275 83.6797 109.595C83.6797 109.915 83.5897 110.16 83.4097 110.33C83.2397 110.5 82.9897 110.585 82.6597 110.585H81.4297V112.94C81.4297 113.31 81.5147 113.585 81.6847 113.765C81.8647 113.935 82.1447 114.02 82.5247 114.02C82.6647 114.02 82.7997 114.005 82.9297 113.975C83.0597 113.945 83.1797 113.93 83.2897 113.93C83.4497 113.92 83.5797 113.97 83.6797 114.08C83.7797 114.18 83.8297 114.415 83.8297 114.785C83.8297 115.085 83.7847 115.34 83.6947 115.55C83.6047 115.75 83.4447 115.895 83.2147 115.985C83.0747 116.035 82.8847 116.075 82.6447 116.105C82.4047 116.145 82.2097 116.165 82.0597 116.165Z" fill="url(#paint2_linear_163_214)"/>
<defs>
<linearGradient id="paint0_linear_163_214" x1="5" y1="45" x2="85" y2="45" gradientUnits="userSpaceOnUse">
<stop offset="0.186043" stop-color="#d9d9d9"/>
</linearGradient>
<linearGradient id="paint1_linear_163_214" x1="19" y1="44.5" x2="71" y2="44.5" gradientUnits="userSpaceOnUse">
<stop offset="0.186043" stop-color="#d9d9d9"/>
</linearGradient>
<linearGradient id="paint2_linear_163_214" x1="5" y1="110.5" x2="85" y2="110.5" gradientUnits="userSpaceOnUse">
<stop offset="0.186043" stop-color="#d9d9d9"/>
</linearGradient>
</defs>
</svg>
