<svg width="24" height="24" viewBox="0 0 24 24" fill="none" xmlns="http://www.w3.org/2000/svg">
<path d="M7.758 10.758C8.35135 10.758 8.93137 10.5821 9.42472 10.2524C9.91806 9.9228 10.3026 9.45426 10.5296 8.90608C10.7567 8.3579 10.8161 7.7547 10.7004 7.17276C10.5846 6.59082 10.2989 6.05627 9.87932 5.63671C9.45977 5.21715 8.92522 4.93143 8.34328 4.81567C7.76133 4.69992 7.15813 4.75933 6.60995 4.98639C6.06178 5.21345 5.59324 5.59797 5.2636 6.09132C4.93395 6.58467 4.758 7.16469 4.758 7.75803C4.7588 8.55344 5.07512 9.31604 5.63756 9.87847C6.2 10.4409 6.9626 10.7572 7.758 10.758ZM7.758 6.75803C7.95579 6.75803 8.14913 6.81668 8.31357 6.92656C8.47802 7.03644 8.6062 7.19262 8.68188 7.37535C8.75757 7.55807 8.77738 7.75914 8.73879 7.95312C8.70021 8.1471 8.60496 8.32528 8.46511 8.46514C8.32526 8.60499 8.14708 8.70023 7.95309 8.73882C7.75911 8.7774 7.55805 8.7576 7.37532 8.68191C7.1926 8.60622 7.03642 8.47805 6.92654 8.3136C6.81665 8.14915 6.758 7.95581 6.758 7.75803C6.758 7.49281 6.86336 7.23846 7.0509 7.05092C7.23843 6.86339 7.49279 6.75803 7.758 6.75803ZM16.242 13.242C15.6487 13.242 15.0686 13.418 14.5753 13.7476C14.0819 14.0773 13.6974 14.5458 13.4704 15.094C13.2433 15.6422 13.1839 16.2454 13.2996 16.8273C13.4154 17.4092 13.7011 17.9438 14.1207 18.3633C14.5402 18.7829 15.0748 19.0686 15.6567 19.1844C16.2387 19.3001 16.8419 19.2407 17.3901 19.0137C17.9382 18.7866 18.4068 18.4021 18.7364 17.9087C19.0661 17.4154 19.242 16.8354 19.242 16.242C19.2412 15.4466 18.9249 14.684 18.3624 14.1216C17.8 13.5592 17.0374 13.2428 16.242 13.242ZM16.242 17.242C16.0442 17.242 15.8509 17.1834 15.6864 17.0735C15.522 16.9636 15.3938 16.8074 15.3181 16.6247C15.2424 16.442 15.2226 16.2409 15.2612 16.0469C15.2998 15.853 15.395 15.6748 15.5349 15.5349C15.6748 15.3951 15.8529 15.2998 16.0469 15.2612C16.2409 15.2227 16.442 15.2425 16.6247 15.3182C16.8074 15.3938 16.9636 15.522 17.0735 15.6865C17.1834 15.8509 17.242 16.0442 17.242 16.242C17.242 16.5072 17.1366 16.7616 16.9491 16.9491C16.7616 17.1367 16.5072 17.242 16.242 17.242ZM19.707 4.29303C19.5195 4.10556 19.2652 4.00024 19 4.00024C18.7348 4.00024 18.4805 4.10556 18.293 4.29303L4.29301 18.293C4.19749 18.3853 4.12131 18.4956 4.0689 18.6176C4.01649 18.7396 3.98891 18.8709 3.98775 19.0036C3.9866 19.1364 4.0119 19.2681 4.06218 19.391C4.11246 19.5139 4.18672 19.6255 4.28061 19.7194C4.3745 19.8133 4.48615 19.8876 4.60905 19.9379C4.73195 19.9881 4.86363 20.0134 4.99641 20.0123C5.12919 20.0111 5.26041 19.9835 5.38241 19.9311C5.50441 19.8787 5.61476 19.8025 5.707 19.707L19.707 5.70703C19.8945 5.5195 19.9998 5.26519 19.9998 5.00003C19.9998 4.73487 19.8945 4.48056 19.707 4.29303Z" fill="url(#paint0_linear_85_188)"/>
<defs>
<linearGradient id="paint0_linear_85_188" x1="3.98772" y1="12.0063" x2="19.9998" y2="12.0063" gradientUnits="userSpaceOnUse">
<stop offset="0.186043" stop-color="#0D434F"/>
<stop offset="0.678087" stop-color="#1E3236"/>
</linearGradient>
</defs>
</svg>
