<svg width="100" height="65" viewBox="0 0 100 65" fill="none" xmlns="http://www.w3.org/2000/svg">
<g clip-path="url(#clip0_6_538)">
<path d="M16.844 44.5492V54.2892C16.844 55.2625 17.1374 56.0425 17.724 56.6292C18.3107 57.2159 19.0907 57.5092 20.064 57.5092C20.7307 57.5092 21.304 57.3825 21.784 57.1292C22.264 56.8625 22.6307 56.4892 22.884 56.0092C23.1507 55.5292 23.284 54.9559 23.284 54.2892V44.5492H25.544V53.6292C25.544 55.0292 25.2907 56.1559 24.784 57.0092C24.2774 57.8492 23.5907 58.4625 22.724 58.8492C21.8574 59.2225 20.8774 59.4092 19.784 59.4092C17.9307 59.4092 16.504 58.9092 15.504 57.9092C14.5174 56.9092 14.024 55.4825 14.024 53.6292V45.7492L13.704 44.5492H16.844ZM32.3646 44.3092C33.1113 44.3092 33.838 44.4159 34.5446 44.6292C35.2646 44.8292 35.9113 45.1225 36.4846 45.5092L35.1046 47.2292C34.7446 46.9092 34.3113 46.6625 33.8046 46.4892C33.298 46.3159 32.8113 46.2292 32.3446 46.2292C31.8246 46.2292 31.3513 46.3692 30.9246 46.6492C30.498 46.9159 30.2846 47.3359 30.2846 47.9092C30.2846 48.2959 30.378 48.6292 30.5646 48.9092C30.7646 49.1892 31.0246 49.4359 31.3446 49.6492C31.678 49.8492 32.0446 50.0492 32.4446 50.2492C32.9113 50.4759 33.3913 50.7092 33.8846 50.9492C34.3913 51.1892 34.858 51.4825 35.2846 51.8292C35.7113 52.1625 36.058 52.5759 36.3246 53.0692C36.5913 53.5625 36.7246 54.1692 36.7246 54.8892C36.7246 55.8625 36.4846 56.6892 36.0046 57.3692C35.5246 58.0492 34.8913 58.5625 34.1046 58.9092C33.3313 59.2559 32.4913 59.4292 31.5846 59.4292C30.7713 59.4292 29.958 59.3425 29.1446 59.1692C28.3446 58.9825 27.5913 58.6825 26.8846 58.2692L27.8246 56.0492C28.2913 56.4759 28.8313 56.8292 29.4446 57.1092C30.058 57.3759 30.6846 57.5092 31.3246 57.5092C31.7513 57.5092 32.1513 57.4292 32.5246 57.2692C32.898 57.1092 33.2046 56.8759 33.4446 56.5692C33.6846 56.2492 33.8046 55.8559 33.8046 55.3892C33.8046 54.9092 33.6713 54.5159 33.4046 54.2092C33.138 53.8892 32.7913 53.6092 32.3646 53.3692C31.938 53.1292 31.478 52.8959 30.9846 52.6692C30.5446 52.4692 30.1113 52.2559 29.6846 52.0292C29.258 51.7892 28.8713 51.5159 28.5246 51.2092C28.178 50.9025 27.898 50.5292 27.6846 50.0892C27.4713 49.6359 27.3646 49.1025 27.3646 48.4892C27.3646 47.5159 27.6046 46.7225 28.0846 46.1092C28.5646 45.4959 29.1846 45.0425 29.9446 44.7492C30.7046 44.4559 31.5113 44.3092 32.3646 44.3092ZM44.5171 44.5492L49.6971 59.1892H46.7371L45.2971 54.9892H40.9371L39.4771 59.1892H37.1571L42.3371 44.5492H44.5171ZM43.1171 48.0292L41.6171 53.0292H44.6371L43.1171 48.0292ZM54.6343 44.5492L57.7543 52.9492C57.901 53.3492 58.0143 53.7492 58.0943 54.1492C58.1743 54.5492 58.2543 54.9559 58.3343 55.3692C58.441 54.9425 58.521 54.5425 58.5743 54.1692C58.641 53.7959 58.741 53.4159 58.8743 53.0292L61.9343 44.5492H65.4543V59.1692H62.7543V49.2492C62.7543 49.0092 62.7677 48.7692 62.7943 48.5292C62.821 48.2759 62.841 48.0359 62.8543 47.8092C62.7743 48.0492 62.6943 48.2892 62.6143 48.5292C62.5477 48.7692 62.4677 49.0092 62.3743 49.2492L58.7943 59.1892H57.3143L53.6343 49.2492C53.541 49.0092 53.4543 48.7692 53.3743 48.5292C53.3077 48.2892 53.2343 48.0492 53.1543 47.8092C53.1677 48.0359 53.1877 48.2759 53.2143 48.5292C53.241 48.7692 53.2543 49.0092 53.2543 49.2492V59.1692H51.0743V45.7692L50.7943 44.5492H54.6343ZM73.8921 44.5492L79.0721 59.1892H76.1122L74.6721 54.9892H70.3121L68.8521 59.1892H66.5321L71.7121 44.5492H73.8921ZM72.4921 48.0292L70.9921 53.0292H74.0121L72.4921 48.0292ZM84.8325 44.5492H86.7125L81.3125 59.1892H79.4525L84.8325 44.5492Z" fill="url(#paint0_linear_6_538)"/>
<path d="M89.6977 60.3466C89.064 60.9637 88 60.5147 88 59.6302V59.0927C88 58.8201 88.1113 58.5593 88.3081 58.3707L94.9253 52.0294C95.3442 51.628 95.3347 50.9557 94.9048 50.5662L88.3287 44.6101C88.1194 44.4206 88 44.1513 88 43.869V43.3043C88 42.4295 89.0441 41.9764 89.683 42.5739L98.2347 50.5711C98.6514 50.9608 98.6581 51.6197 98.2494 52.0179L89.6977 60.3466Z" fill="url(#paint1_linear_6_538)"/>
<path d="M9.30229 42.6534C9.93597 42.0363 11 42.4853 11 43.3698V43.9073C11 44.1799 10.8887 44.4407 10.6919 44.6293L4.07466 50.9706C3.65581 51.372 3.66527 52.0443 4.09524 52.4338L10.6713 58.3899C10.8806 58.5794 11 58.8487 11 59.131V59.6957C11 60.5705 9.95595 61.0236 9.31697 60.4261L0.765319 52.4289C0.34855 52.0392 0.341868 51.3803 0.750644 50.9821L9.30229 42.6534Z" fill="url(#paint2_linear_6_538)"/>
<path d="M37.8759 40.88C35.6093 40.88 33.9826 40.2667 32.9959 39.04C32.0093 37.8133 31.5159 36.1467 31.5159 34.04V27.68C31.5159 26.9067 31.3159 26.16 30.9159 25.44C30.5159 24.72 29.8493 24.36 28.9159 24.36V21.92C29.6093 21.92 30.1293 21.7467 30.4759 21.4C30.8493 21.0267 31.1026 20.56 31.2359 20C31.3959 19.44 31.4759 18.8933 31.4759 18.36V12.24C31.4759 10.9333 31.6626 9.77333 32.0359 8.76C32.4359 7.74667 33.0626 6.94667 33.9159 6.36C34.7959 5.74667 35.9426 5.44 37.3559 5.44H39.7159V7.92C38.8093 7.92 38.0893 8.01333 37.5559 8.2C37.0493 8.38667 36.6893 8.72 36.4759 9.2C36.2893 9.68 36.1959 10.3733 36.1959 11.28V17.92C36.1959 18.56 36.1426 19.2267 36.0359 19.92C35.9293 20.5867 35.7159 21.2133 35.3959 21.8C35.1026 22.36 34.6359 22.8133 33.9959 23.16C34.6359 23.48 35.1026 23.9333 35.3959 24.52C35.7159 25.08 35.9159 25.7067 35.9959 26.4C36.1026 27.0667 36.1559 27.72 36.1559 28.36V35C36.1559 35.9867 36.2493 36.72 36.4359 37.2C36.6226 37.68 36.9693 37.9867 37.4759 38.12C38.0093 38.28 38.7559 38.36 39.7159 38.36V40.88H37.8759ZM62.1388 5.44C64.4054 5.44 66.0321 6.05333 67.0188 7.28C68.0054 8.50667 68.4988 10.1733 68.4988 12.28V18.64C68.4988 19.4133 68.6988 20.16 69.0988 20.88C69.5254 21.6 70.1921 21.96 71.0988 21.96V24.4C70.4321 24.4 69.9121 24.5867 69.5388 24.96C69.1654 25.3067 68.8988 25.76 68.7388 26.32C68.6054 26.8533 68.5388 27.4 68.5388 27.96V34.08C68.5388 35.36 68.3388 36.5067 67.9388 37.52C67.5654 38.56 66.9388 39.3733 66.0588 39.96C65.2054 40.5733 64.0721 40.88 62.6588 40.88H60.2988V38.4C61.2321 38.4 61.9521 38.3067 62.4588 38.12C62.9654 37.9333 63.3121 37.6 63.4988 37.12C63.7121 36.64 63.8188 35.9467 63.8188 35.04V28.4C63.8188 27.76 63.8721 27.1067 63.9788 26.44C64.0854 25.7467 64.2988 25.1067 64.6188 24.52C64.9388 23.9333 65.4054 23.48 66.0188 23.16C65.4054 22.8133 64.9388 22.36 64.6188 21.8C64.2988 21.24 64.0854 20.6267 63.9788 19.96C63.8988 19.2667 63.8588 18.6 63.8588 17.96V11.32C63.8588 10.3333 63.7654 9.6 63.5788 9.12C63.3921 8.64 63.0454 8.33333 62.5388 8.2C62.0321 8.04 61.2854 7.96 60.2988 7.96V5.44H62.1388Z" fill="url(#paint3_linear_6_538)"/>
<path d="M49.7406 5.344C51.4686 5.344 53.1006 5.664 54.6366 6.304C56.1726 6.912 57.4206 7.84 58.3806 9.088C59.3406 10.336 59.8206 11.936 59.8206 13.888C59.8206 15.52 59.4526 16.912 58.7166 18.064C58.0126 19.216 57.0686 20.208 55.8846 21.04C54.7006 21.84 53.3726 22.544 51.9006 23.152V29.584H46.7646V19.744C47.7566 19.648 48.7806 19.392 49.8366 18.976C50.8926 18.528 51.7886 17.92 52.5246 17.152C53.2606 16.352 53.6286 15.376 53.6286 14.224C53.6286 12.848 53.1006 11.808 52.0446 11.104C51.0206 10.368 49.8846 10 48.6366 10C47.7406 10 46.8606 10.16 45.9966 10.48C45.1646 10.768 44.3806 11.168 43.6446 11.68L41.4366 7.456C42.5246 6.784 43.8366 6.272 45.3726 5.92C46.9086 5.536 48.3646 5.344 49.7406 5.344ZM49.3086 33.136C50.3326 33.136 51.1966 33.504 51.9006 34.24C52.6366 34.976 53.0046 35.856 53.0046 36.88C53.0046 37.872 52.6366 38.736 51.9006 39.472C51.1966 40.208 50.3326 40.576 49.3086 40.576C48.2846 40.576 47.4046 40.208 46.6686 39.472C45.9646 38.736 45.6126 37.872 45.6126 36.88C45.6126 35.856 45.9646 34.976 46.6686 34.24C47.4046 33.504 48.2846 33.136 49.3086 33.136Z" fill="url(#paint4_linear_6_538)"/>
</g>
<defs>
<linearGradient id="paint0_linear_6_538" x1="11.3518" y1="51.6622" x2="87.6481" y2="51.6622" gradientUnits="userSpaceOnUse">
<stop offset="0.186043" stop-color="#13B0F5"/>
<stop offset="1" stop-color="#E70FAA"/>
</linearGradient>
<linearGradient id="paint1_linear_6_538" x1="99" y1="58.5" x2="77.5" y2="41" gradientUnits="userSpaceOnUse">
<stop offset="0.186043" stop-color="#13B0F5"/>
<stop offset="1" stop-color="#E70FAA"/>
</linearGradient>
<linearGradient id="paint2_linear_6_538" x1="-3.5" y1="42" x2="20.5" y2="56" gradientUnits="userSpaceOnUse">
<stop offset="0.186043" stop-color="#13B0F5"/>
<stop offset="1" stop-color="#E70FAA"/>
</linearGradient>
<linearGradient id="paint3_linear_6_538" x1="26" y1="5.38489" x2="74" y2="34.6151" gradientUnits="userSpaceOnUse">
<stop offset="0.623757" stop-color="#13B0F5"/>
<stop offset="1" stop-color="#E70FAA"/>
</linearGradient>
<linearGradient id="paint4_linear_6_538" x1="46.5" y1="25" x2="56.1812" y2="32.2102" gradientUnits="userSpaceOnUse">
<stop offset="0.220452" stop-color="#13B0F5"/>
<stop offset="1" stop-color="#E70FAA"/>
</linearGradient>
<clipPath id="clip0_6_538">
<rect width="97" height="59" fill="white"/>
</clipPath>
</defs>
</svg>
