<svg width="90" height="122" viewBox="0 0 90 122" fill="none" xmlns="http://www.w3.org/2000/svg">
<path d="M45 85C39.7471 85 34.5457 83.9654 29.6927 81.9552C24.8396 79.945 20.4301 76.9986 16.7157 73.2843C13.0014 69.5699 10.055 65.1604 8.04482 60.3073C6.03463 55.4543 5 50.2529 5 45C5 39.7471 6.03463 34.5457 8.04482 29.6927C10.055 24.8396 13.0014 20.4301 16.7157 16.7157C20.4301 13.0014 24.8396 10.055 29.6927 8.04482C34.5457 6.03463 39.7471 5 45 5C50.2529 5 55.4543 6.03463 60.3073 8.04482C65.1604 10.055 69.5699 13.0014 73.2843 16.7157C76.9986 20.4301 79.945 24.8396 81.9552 29.6927C83.9654 34.5457 85 39.7471 85 45C85 50.2529 83.9654 55.4543 81.9552 60.3073C79.945 65.1604 76.9986 69.5699 73.2843 73.2843C69.5699 76.9986 65.1604 79.945 60.3073 81.9552C55.4543 83.9654 50.2529 85 45 85L45 85Z" stroke="#5E5E5E" stroke-width="10"/>
<path d="M85 45C85 52.9112 82.654 60.6448 78.2588 67.2228C73.8635 73.8008 67.6164 78.9277 60.3074 81.9552C52.9983 84.9827 44.9557 85.7748 37.1964 84.2314C29.4372 82.688 22.3099 78.8784 16.7158 73.2843C11.1217 67.6902 7.31202 60.5629 5.7686 52.8037C4.22518 45.0445 5.0173 37.0018 8.04479 29.6927C11.0723 22.3837 16.1992 16.1365 22.7771 11.7413C29.3551 7.346 37.0886 5.00002 44.9999 5" stroke="url(#paint0_linear_163_199)" stroke-width="10" stroke-linecap="round"/>
<path d="M22.808 51.176C22.3707 51.176 21.928 51.1227 21.48 51.016C21.032 50.9093 20.6053 50.7493 20.2 50.536C19.944 50.408 19.768 50.2373 19.672 50.024C19.576 49.8 19.5387 49.5707 19.56 49.336C19.592 49.0907 19.6773 48.8773 19.816 48.696C19.9547 48.504 20.136 48.3707 20.36 48.296C20.5947 48.2213 20.856 48.248 21.144 48.376C21.464 48.5253 21.7627 48.6267 22.04 48.68C22.3173 48.7333 22.584 48.76 22.84 48.76C23.3733 48.76 23.816 48.6533 24.168 48.44C24.5307 48.216 24.7973 47.8853 24.968 47.448C25.1493 47 25.24 46.4453 25.24 45.784V44.952H25.48C25.3947 45.4 25.2187 45.7893 24.952 46.12C24.696 46.4507 24.376 46.7013 23.992 46.872C23.6187 47.0427 23.1973 47.128 22.728 47.128C22.1093 47.128 21.5493 46.9733 21.048 46.664C20.5573 46.344 20.168 45.9067 19.88 45.352C19.592 44.7867 19.448 44.1573 19.448 43.464C19.448 42.696 19.6133 42.0187 19.944 41.432C20.2747 40.8453 20.7333 40.3867 21.32 40.056C21.9173 39.7147 22.5947 39.544 23.352 39.544C24.344 39.544 25.1813 39.768 25.864 40.216C26.5573 40.664 27.0853 41.3147 27.448 42.168C27.8107 43.0107 27.992 44.04 27.992 45.256C27.992 46.184 27.8747 47.016 27.64 47.752C27.4053 48.488 27.064 49.112 26.616 49.624C26.168 50.1253 25.624 50.5093 24.984 50.776C24.344 51.0427 23.6187 51.176 22.808 51.176ZM23.512 44.888C23.7893 44.888 24.0293 44.824 24.232 44.696C24.4453 44.5573 24.6053 44.376 24.712 44.152C24.8293 43.9173 24.888 43.6453 24.888 43.336C24.888 43.016 24.8293 42.7387 24.712 42.504C24.6053 42.2693 24.4453 42.0933 24.232 41.976C24.0293 41.848 23.7893 41.784 23.512 41.784C23.2347 41.784 22.9947 41.848 22.792 41.976C22.5893 42.0933 22.4293 42.2693 22.312 42.504C22.1947 42.7387 22.136 43.016 22.136 43.336C22.136 43.6453 22.1947 43.9173 22.312 44.152C22.4293 44.376 22.5893 44.5573 22.792 44.696C22.9947 44.824 23.2347 44.888 23.512 44.888ZM33.3138 51.176C32.8018 51.176 32.2631 51.1173 31.6978 51C31.1324 50.8827 30.6098 50.7013 30.1298 50.456C29.8418 50.3067 29.6391 50.1147 29.5218 49.88C29.4151 49.6347 29.3778 49.3893 29.4098 49.144C29.4524 48.8987 29.5484 48.68 29.6978 48.488C29.8578 48.296 30.0551 48.1733 30.2898 48.12C30.5351 48.056 30.8018 48.0987 31.0898 48.248C31.4418 48.4187 31.8044 48.5467 32.1778 48.632C32.5618 48.7173 32.9191 48.76 33.2498 48.76C33.6124 48.76 33.9218 48.7067 34.1778 48.6C34.4338 48.4933 34.6258 48.3387 34.7538 48.136C34.8924 47.9333 34.9618 47.6933 34.9618 47.416C34.9618 46.9893 34.8178 46.6533 34.5298 46.408C34.2418 46.1627 33.8578 46.04 33.3778 46.04C33.1644 46.04 32.9298 46.072 32.6738 46.136C32.4284 46.2 32.1724 46.3227 31.9058 46.504C31.7884 46.568 31.6284 46.6427 31.4258 46.728C31.2231 46.8027 31.0151 46.84 30.8018 46.84C30.4178 46.84 30.1351 46.7493 29.9538 46.568C29.7724 46.3867 29.6818 46.1307 29.6818 45.8V40.968C29.6818 40.5627 29.7884 40.2533 30.0018 40.04C30.2258 39.8267 30.5351 39.72 30.9298 39.72H35.9538C36.3484 39.72 36.6524 39.8213 36.8658 40.024C37.0791 40.2267 37.1858 40.5253 37.1858 40.92C37.1858 41.304 37.0791 41.5973 36.8658 41.8C36.6524 42.0027 36.3484 42.104 35.9538 42.104H32.4498V44.616H31.7778C32.0338 44.3173 32.3698 44.0933 32.7858 43.944C33.2018 43.784 33.6551 43.704 34.1458 43.704C34.8604 43.704 35.4898 43.8587 36.0338 44.168C36.5778 44.4667 36.9991 44.888 37.2978 45.432C37.6071 45.976 37.7618 46.6107 37.7618 47.336C37.7618 48.104 37.5804 48.7813 37.2178 49.368C36.8658 49.944 36.3538 50.392 35.6818 50.712C35.0204 51.0213 34.2311 51.176 33.3138 51.176ZM40.3635 51.096C39.8835 51.096 39.4995 50.952 39.2115 50.664C38.9342 50.376 38.7955 49.9973 38.7955 49.528C38.7955 49.0693 38.9342 48.7013 39.2115 48.424C39.4995 48.136 39.8835 47.992 40.3635 47.992C40.8648 47.992 41.2488 48.136 41.5155 48.424C41.7928 48.7013 41.9315 49.0693 41.9315 49.528C41.9315 49.9973 41.7928 50.376 41.5155 50.664C41.2488 50.952 40.8648 51.096 40.3635 51.096ZM47.7949 51.176C46.8029 51.176 45.9602 50.952 45.2669 50.504C44.5842 50.056 44.0615 49.4107 43.6989 48.568C43.3362 47.7147 43.1549 46.68 43.1549 45.464C43.1549 44.536 43.2722 43.704 43.5069 42.968C43.7415 42.232 44.0829 41.6133 44.5309 41.112C44.9789 40.6 45.5229 40.2107 46.1629 39.944C46.8029 39.6773 47.5282 39.544 48.3389 39.544C48.7762 39.544 49.2189 39.5973 49.6669 39.704C50.1149 39.8107 50.5415 39.9707 50.9469 40.184C51.2029 40.312 51.3789 40.488 51.4749 40.712C51.5709 40.9253 51.6029 41.1547 51.5709 41.4C51.5495 41.6347 51.4695 41.848 51.3309 42.04C51.1922 42.2213 51.0055 42.3493 50.7709 42.424C50.5469 42.4987 50.2909 42.472 50.0029 42.344C49.6829 42.1947 49.3842 42.0933 49.1069 42.04C48.8295 41.9867 48.5629 41.96 48.3069 41.96C47.7735 41.96 47.3309 42.072 46.9789 42.296C46.6269 42.5093 46.3602 42.84 46.1789 43.288C45.9975 43.7253 45.9069 44.2747 45.9069 44.936V45.768H45.6669C45.7629 45.3093 45.9389 44.92 46.1949 44.6C46.4509 44.2693 46.7655 44.0187 47.1389 43.848C47.5229 43.6773 47.9495 43.592 48.4189 43.592C49.0482 43.592 49.6082 43.752 50.0989 44.072C50.5895 44.3813 50.9789 44.8133 51.2669 45.368C51.5549 45.9227 51.6989 46.552 51.6989 47.256C51.6989 48.024 51.5335 48.7013 51.2029 49.288C50.8722 49.8747 50.4135 50.3387 49.8269 50.68C49.2402 51.0107 48.5629 51.176 47.7949 51.176ZM47.6349 48.936C47.9122 48.936 48.1522 48.872 48.3549 48.744C48.5682 48.616 48.7282 48.4347 48.8349 48.2C48.9522 47.9653 49.0109 47.6933 49.0109 47.384C49.0109 47.064 48.9522 46.792 48.8349 46.568C48.7282 46.3333 48.5682 46.152 48.3549 46.024C48.1522 45.8853 47.9122 45.816 47.6349 45.816C47.3682 45.816 47.1282 45.8853 46.9149 46.024C46.7122 46.152 46.5522 46.3333 46.4349 46.568C46.3175 46.792 46.2589 47.064 46.2589 47.384C46.2589 47.6933 46.3175 47.9653 46.4349 48.2C46.5522 48.4347 46.7122 48.616 46.9149 48.744C47.1282 48.872 47.3682 48.936 47.6349 48.936ZM57.9486 50.712C57.81 50.9573 57.634 51.1173 57.4206 51.192C57.2073 51.2773 56.9993 51.2933 56.7966 51.24C56.594 51.1867 56.418 51.0853 56.2686 50.936C56.1193 50.7867 56.0286 50.6 55.9966 50.376C55.9646 50.152 56.018 49.9173 56.1566 49.672L61.7566 40.024C61.906 39.768 62.082 39.6027 62.2846 39.528C62.4873 39.4427 62.69 39.4267 62.8926 39.48C63.106 39.5333 63.282 39.64 63.4206 39.8C63.57 39.9493 63.6606 40.136 63.6926 40.36C63.7353 40.5733 63.682 40.8027 63.5326 41.048L57.9486 50.712ZM55.6286 46.44C54.6686 46.44 53.922 46.1253 53.3886 45.496C52.866 44.856 52.6046 44.0133 52.6046 42.968C52.6046 42.264 52.7273 41.656 52.9726 41.144C53.218 40.632 53.5646 40.2373 54.0126 39.96C54.4606 39.6827 54.9993 39.544 55.6286 39.544C56.578 39.544 57.314 39.8587 57.8366 40.488C58.37 41.1067 58.6366 41.9333 58.6366 42.968C58.6366 43.6613 58.514 44.2693 58.2686 44.792C58.034 45.3147 57.6926 45.72 57.2446 46.008C56.7966 46.296 56.258 46.44 55.6286 46.44ZM55.6286 44.68C55.7886 44.68 55.922 44.6267 56.0286 44.52C56.146 44.4027 56.2313 44.2213 56.2846 43.976C56.3486 43.72 56.3806 43.384 56.3806 42.968C56.3806 42.3387 56.3113 41.9013 56.1726 41.656C56.0446 41.4107 55.8633 41.288 55.6286 41.288C55.458 41.288 55.314 41.3413 55.1966 41.448C55.09 41.544 55.0046 41.7147 54.9406 41.96C54.8873 42.2053 54.8606 42.5413 54.8606 42.968C54.8606 43.608 54.9246 44.056 55.0526 44.312C55.1806 44.5573 55.3726 44.68 55.6286 44.68ZM64.0766 51.176C63.1273 51.176 62.386 50.8613 61.8526 50.232C61.33 49.6027 61.0686 48.7653 61.0686 47.72C61.0686 47.0053 61.186 46.392 61.4206 45.88C61.666 45.368 62.0126 44.9733 62.4606 44.696C62.9193 44.4187 63.458 44.28 64.0766 44.28C65.026 44.28 65.7673 44.5947 66.3006 45.224C66.834 45.8533 67.1006 46.6853 67.1006 47.72C67.1006 48.4133 66.978 49.0213 66.7326 49.544C66.498 50.056 66.1566 50.456 65.7086 50.744C65.2606 51.032 64.7166 51.176 64.0766 51.176ZM64.0766 49.432C64.2473 49.432 64.386 49.3787 64.4926 49.272C64.61 49.1547 64.6953 48.9733 64.7486 48.728C64.8126 48.472 64.8446 48.136 64.8446 47.72C64.8446 47.0907 64.7753 46.6533 64.6366 46.408C64.5086 46.1627 64.322 46.04 64.0766 46.04C63.9166 46.04 63.778 46.0933 63.6606 46.2C63.554 46.296 63.4686 46.4667 63.4046 46.712C63.3513 46.9467 63.3246 47.2827 63.3246 47.72C63.3246 48.36 63.3886 48.808 63.5166 49.064C63.6446 49.3093 63.8313 49.432 64.0766 49.432Z" fill="url(#paint1_linear_163_199)"/>
<path d="M19.1356 121.18C18.549 121.18 18.0956 121.02 17.7756 120.7C17.4556 120.367 17.2956 119.9 17.2956 119.3V108.6C17.2956 107.987 17.4556 107.52 17.7756 107.2C18.0956 106.88 18.549 106.72 19.1356 106.72C19.7356 106.72 20.189 106.88 20.4956 107.2C20.8156 107.52 20.9756 107.987 20.9756 108.6V112.34H26.7956V108.6C26.7956 107.987 26.949 107.52 27.2556 107.2C27.5756 106.88 28.0356 106.72 28.6356 106.72C29.2223 106.72 29.669 106.88 29.9756 107.2C30.2956 107.52 30.4556 107.987 30.4556 108.6V119.3C30.4556 119.9 30.2956 120.367 29.9756 120.7C29.669 121.02 29.2223 121.18 28.6356 121.18C28.0356 121.18 27.5756 121.02 27.2556 120.7C26.949 120.367 26.7956 119.9 26.7956 119.3V115.36H20.9756V119.3C20.9756 119.9 20.8223 120.367 20.5156 120.7C20.209 121.02 19.749 121.18 19.1356 121.18ZM38.1783 121.18C37.5916 121.18 37.1383 121.02 36.8183 120.7C36.4983 120.367 36.3383 119.907 36.3383 119.32V109.9H33.1983C32.7049 109.9 32.3249 109.773 32.0583 109.52C31.8049 109.253 31.6783 108.88 31.6783 108.4C31.6783 107.907 31.8049 107.533 32.0583 107.28C32.3249 107.027 32.7049 106.9 33.1983 106.9H43.1583C43.6516 106.9 44.0249 107.027 44.2783 107.28C44.5449 107.533 44.6783 107.907 44.6783 108.4C44.6783 108.88 44.5449 109.253 44.2783 109.52C44.0249 109.773 43.6516 109.9 43.1583 109.9H40.0183V119.32C40.0183 119.907 39.8649 120.367 39.5583 120.7C39.2516 121.02 38.7916 121.18 38.1783 121.18ZM47.5894 121.18C47.056 121.18 46.6427 121.033 46.3494 120.74C46.0694 120.447 45.9294 120.033 45.9294 119.5V108.4C45.9294 107.853 46.0827 107.44 46.3894 107.16C46.696 106.867 47.1294 106.72 47.6894 106.72C48.156 106.72 48.5227 106.813 48.7894 107C49.0694 107.173 49.3227 107.467 49.5494 107.88L53.8494 115.6H53.1494L57.4294 107.88C57.6694 107.467 57.9227 107.173 58.1894 107C58.4694 106.813 58.8427 106.72 59.3094 106.72C59.8427 106.72 60.2494 106.867 60.5294 107.16C60.8227 107.44 60.9694 107.853 60.9694 108.4V119.5C60.9694 120.033 60.8294 120.447 60.5494 120.74C60.2694 121.033 59.856 121.18 59.3094 121.18C58.776 121.18 58.3627 121.033 58.0694 120.74C57.7894 120.447 57.6494 120.033 57.6494 119.5V112.62H58.0694L54.8494 118.22C54.6627 118.513 54.4627 118.733 54.2494 118.88C54.0494 119.027 53.776 119.1 53.4294 119.1C53.096 119.1 52.8227 119.027 52.6094 118.88C52.396 118.733 52.2027 118.513 52.0294 118.22L48.7894 112.6H49.2494V119.5C49.2494 120.033 49.1094 120.447 48.8294 120.74C48.5494 121.033 48.136 121.18 47.5894 121.18ZM65.4252 121C64.8385 121 64.3785 120.84 64.0452 120.52C63.7252 120.187 63.5652 119.727 63.5652 119.14V108.74C63.5652 108.14 63.7252 107.68 64.0452 107.36C64.3652 107.04 64.8185 106.88 65.4052 106.88C66.0052 106.88 66.4585 107.04 66.7652 107.36C67.0852 107.68 67.2452 108.14 67.2452 108.74V117.94H72.1252C72.6318 117.94 73.0185 118.073 73.2852 118.34C73.5652 118.593 73.7052 118.967 73.7052 119.46C73.7052 119.953 73.5652 120.333 73.2852 120.6C73.0185 120.867 72.6318 121 72.1252 121H65.4252Z" fill="url(#paint2_linear_163_199)"/>
<defs>
<linearGradient id="paint0_linear_163_199" x1="5" y1="45" x2="85" y2="45" gradientUnits="userSpaceOnUse">
<stop offset="0.186043" stop-color="#13B0F5"/>
<stop offset="1" stop-color="#E70FAA"/>
</linearGradient>
<linearGradient id="paint1_linear_163_199" x1="19" y1="44.5" x2="71" y2="44.5" gradientUnits="userSpaceOnUse">
<stop offset="0.186043" stop-color="#13B0F5"/>
<stop offset="1" stop-color="#E70FAA"/>
</linearGradient>
<linearGradient id="paint2_linear_163_199" x1="5" y1="110.5" x2="85" y2="110.5" gradientUnits="userSpaceOnUse">
<stop offset="0.186043" stop-color="#13B0F5"/>
<stop offset="1" stop-color="#E70FAA"/>
</linearGradient>
</defs>
</svg>
