<svg width="81" height="80" viewBox="0 0 81 80" fill="none" xmlns="http://www.w3.org/2000/svg">
<g clip-path="url(#clip0_128_187)">
<rect width="81" height="80" fill="black"/>
<ellipse cx="40.5" cy="40" rx="40.5" ry="40" fill="black"/>
<path d="M29.3102 54.646H29.5022C29.5782 54.646 29.6322 54.63 29.6642 54.598C29.6962 54.562 29.7122 54.504 29.7122 54.424V51.688C29.7122 51.608 29.6962 51.552 29.6642 51.52C29.6322 51.488 29.5782 51.472 29.5022 51.472H29.3102V51.118H32.1062V51.814H31.6742V51.682C31.6742 51.606 31.6562 51.552 31.6202 51.52C31.5882 51.488 31.5322 51.472 31.4522 51.472H30.1922V52.876H31.3442V53.23H30.1922V54.43C30.1922 54.51 30.2082 54.566 30.2402 54.598C30.2722 54.63 30.3262 54.646 30.4022 54.646H30.5942V55H29.3102V54.646ZM33.4993 51.178H34.0273V51.64H33.4993V51.178ZM33.1213 54.646H33.3133C33.3893 54.646 33.4433 54.63 33.4753 54.598C33.5073 54.562 33.5233 54.504 33.5233 54.424V52.69C33.5233 52.61 33.5073 52.554 33.4753 52.522C33.4433 52.49 33.3893 52.474 33.3133 52.474H33.1213V52.12H34.0033V54.43C34.0033 54.51 34.0193 54.566 34.0513 54.598C34.0833 54.63 34.1373 54.646 34.2133 54.646H34.4053V55H33.1213V54.646ZM36.9775 55.09C36.6895 55.09 36.4695 55.01 36.3175 54.85C36.1655 54.69 36.0895 54.458 36.0895 54.154V52.474H35.6095V52.12H36.0895V51.448L36.5695 51.268V52.12H37.4695V52.474H36.5695V54.178C36.5695 54.374 36.6035 54.516 36.6715 54.604C36.7435 54.688 36.8555 54.73 37.0075 54.73C37.1115 54.73 37.1975 54.722 37.2655 54.706C37.3335 54.69 37.3955 54.66 37.4515 54.616V54.358H37.8835V54.766C37.7595 54.874 37.6275 54.954 37.4875 55.006C37.3475 55.062 37.1775 55.09 36.9775 55.09ZM39.1715 54.646H39.3635C39.4395 54.646 39.4935 54.63 39.5255 54.598C39.5575 54.562 39.5735 54.504 39.5735 54.424V51.688C39.5735 51.608 39.5575 51.552 39.5255 51.52C39.4935 51.488 39.4395 51.472 39.3635 51.472H39.1715V51.118H40.4435V51.472H40.2635C40.1875 51.472 40.1335 51.488 40.1015 51.52C40.0695 51.552 40.0535 51.608 40.0535 51.688V52.876H41.8955V51.688C41.8955 51.608 41.8795 51.552 41.8475 51.52C41.8155 51.488 41.7615 51.472 41.6855 51.472H41.4995V51.118H42.7775V51.472H42.5915C42.5155 51.472 42.4595 51.488 42.4235 51.52C42.3915 51.552 42.3755 51.608 42.3755 51.688V54.424C42.3755 54.504 42.3915 54.562 42.4235 54.598C42.4555 54.63 42.5115 54.646 42.5915 54.646H42.7775V55H41.4995V54.646H41.6855C41.7615 54.646 41.8155 54.63 41.8475 54.598C41.8795 54.562 41.8955 54.504 41.8955 54.424V53.23H40.0535V54.424C40.0535 54.504 40.0695 54.562 40.1015 54.598C40.1335 54.63 40.1875 54.646 40.2635 54.646H40.4435V55H39.1715V54.646ZM45.4114 55.09C45.0914 55.09 44.8474 55.004 44.6794 54.832C44.5154 54.66 44.4334 54.416 44.4334 54.1V52.69C44.4334 52.614 44.4174 52.56 44.3854 52.528C44.3534 52.492 44.2994 52.474 44.2234 52.474H44.0314V52.12H44.9194V54.094C44.9194 54.314 44.9694 54.476 45.0694 54.58C45.1734 54.68 45.3374 54.73 45.5614 54.73C45.7974 54.73 45.9894 54.664 46.1374 54.532C46.2854 54.396 46.3594 54.2 46.3594 53.944V52.69C46.3594 52.61 46.3434 52.554 46.3114 52.522C46.2834 52.49 46.2314 52.474 46.1554 52.474H45.9574V52.12H46.8394V54.43C46.8394 54.506 46.8554 54.562 46.8874 54.598C46.9234 54.63 46.9794 54.646 47.0554 54.646H47.2414V55H46.5034L46.4674 54.604C46.3354 54.772 46.1874 54.896 46.0234 54.976C45.8594 55.052 45.6554 55.09 45.4114 55.09ZM50.3881 55.09C49.9161 55.09 49.5761 54.912 49.3681 54.556L49.3201 55H48.9241V51.64C48.9241 51.54 48.9081 51.472 48.8761 51.436C48.8481 51.4 48.7881 51.382 48.6961 51.382H48.5881V51.028H49.4041V52.522C49.6321 52.194 49.9821 52.03 50.4541 52.03C50.8541 52.03 51.1601 52.164 51.3721 52.432C51.5841 52.696 51.6901 53.078 51.6901 53.578C51.6901 54.054 51.5721 54.426 51.3361 54.694C51.1041 54.958 50.7881 55.09 50.3881 55.09ZM50.3161 54.73C50.6241 54.73 50.8521 54.638 51.0001 54.454C51.1521 54.266 51.2281 53.97 51.2281 53.566C51.2281 53.154 51.1561 52.856 51.0121 52.672C50.8681 52.484 50.6361 52.39 50.3161 52.39C50.1521 52.39 50.0001 52.43 49.8601 52.51C49.7241 52.586 49.6141 52.7 49.5301 52.852C49.4461 53 49.4041 53.176 49.4041 53.38V53.734C49.4041 53.918 49.4421 54.086 49.5181 54.238C49.5981 54.39 49.7081 54.51 49.8481 54.598C49.9881 54.686 50.1441 54.73 50.3161 54.73Z" fill="#FF3D00"/>
<path d="M29 27C29 25.3431 30.3431 24 32 24V24V45.5C32 46.3284 31.3284 47 30.5 47V47C29.6716 47 29 46.3284 29 45.5V27Z" fill="#FF3D00"/>
<path d="M49.5 24C50.3284 24 51 24.6716 51 25.5V25.5C51 26.3284 50.3284 27 49.5 27L29 27V27C29 25.3431 30.3431 24 32 24L49.5 24Z" fill="#FF3D00"/>
<path d="M38.5 34C39.3284 34 40 34.6716 40 35.5V35.5C40 36.3284 39.3284 37 38.5 37H31V34H38.5Z" fill="#FF3D00"/>
<rect x="41" y="29" width="3" height="18" rx="1.5" fill="#D9D9D9"/>
<rect x="48" y="29" width="3" height="18" rx="1.5" fill="#D9D9D9"/>
<rect x="41" y="39" width="3" height="9" rx="1.5" transform="rotate(-90 41 39)" fill="#D9D9D9"/>
</g>
<defs>
<clipPath id="clip0_128_187">
<rect width="81" height="80" fill="white"/>
</clipPath>
</defs>
</svg>
