<svg width="81" height="80" viewBox="0 0 81 80" fill="none" xmlns="http://www.w3.org/2000/svg">
<g clip-path="url(#clip0_112_182)">
<rect width="81" height="80" fill="#ADADAD"/>
<ellipse cx="40.5" cy="40" rx="40.5" ry="40" fill="#ADADAD"/>
<path d="M31.3184 31.2852C31.3184 30.7513 31.5592 30.3477 32.041 30.0742C32.2624 29.944 32.4967 29.8789 32.7441 29.8789C33.291 29.8789 33.7012 30.1198 33.9746 30.6016C34.0918 30.8229 34.1504 31.0508 34.1504 31.2852C34.1504 31.832 33.9095 32.2422 33.4277 32.5156C33.2064 32.6328 32.9785 32.6914 32.7441 32.6914C32.1842 32.6914 31.7676 32.444 31.4941 31.9492C31.377 31.7409 31.3184 31.5195 31.3184 31.2852ZM31.4551 44V33.4531H34.0723V44H31.4551ZM35.4395 44V28.625H35.6895L39.8457 35.3125V44H35.4395ZM35.4395 25V22.125H39.0332L49.3457 38.75V44H47.252L35.4395 25ZM44.9395 28.4375V22.125H49.3457V35.125H49.0957L44.9395 28.4375Z" fill="black"/>
<path d="M20.8536 49.815H21.2936V50.2H20.8536V49.815ZM20.5386 52.705H20.6986C20.7619 52.705 20.8069 52.6917 20.8336 52.665C20.8602 52.635 20.8736 52.5867 20.8736 52.52V51.075C20.8736 51.0083 20.8602 50.9617 20.8336 50.935C20.8069 50.9083 20.7619 50.895 20.6986 50.895H20.5386V50.6H21.2736V52.525C21.2736 52.5917 21.2869 52.6383 21.3136 52.665C21.3402 52.6917 21.3852 52.705 21.4486 52.705H21.6086V53H20.5386V52.705ZM23.9557 52.705H24.1157C24.1791 52.705 24.2241 52.6917 24.2507 52.665C24.2774 52.6383 24.2907 52.5917 24.2907 52.525V50.24C24.2907 50.1733 24.2774 50.1267 24.2507 50.1C24.2241 50.0733 24.1791 50.06 24.1157 50.06H23.9557V49.765H24.6207L26.2757 52.33V50.24C26.2757 50.1733 26.2624 50.1267 26.2357 50.1C26.2091 50.0733 26.1624 50.06 26.0957 50.06H25.9357V49.765H27.0057V50.06H26.8457C26.7824 50.06 26.7374 50.0733 26.7107 50.1C26.6841 50.1267 26.6707 50.1733 26.6707 50.24V53H26.3407L24.6857 50.44V52.525C24.6857 52.5883 24.6991 52.635 24.7257 52.665C24.7557 52.6917 24.8024 52.705 24.8657 52.705H25.0257V53H23.9557V52.705ZM30.3735 53.075C29.9702 53.075 29.6685 52.9633 29.4685 52.74C29.2718 52.5133 29.1735 52.2017 29.1735 51.805C29.1735 51.405 29.2718 51.0917 29.4685 50.865C29.6652 50.6383 29.9668 50.525 30.3735 50.525C30.7802 50.525 31.0818 50.6383 31.2785 50.865C31.4752 51.0917 31.5735 51.405 31.5735 51.805C31.5735 52.2017 31.4735 52.5133 31.2735 52.74C31.0768 52.9633 30.7768 53.075 30.3735 53.075ZM30.3735 52.775C30.9168 52.775 31.1885 52.4517 31.1885 51.805C31.1885 51.4783 31.1202 51.2333 30.9835 51.07C30.8468 50.9067 30.6435 50.825 30.3735 50.825C29.8302 50.825 29.5585 51.1517 29.5585 51.805C29.5585 52.4517 29.8302 52.775 30.3735 52.775ZM34.8758 53.075C34.6358 53.075 34.4525 53.0083 34.3258 52.875C34.1992 52.7417 34.1358 52.5483 34.1358 52.295V50.895H33.7358V50.6H34.1358V50.04L34.5358 49.89V50.6H35.2858V50.895H34.5358V52.315C34.5358 52.4783 34.5642 52.5967 34.6208 52.67C34.6808 52.74 34.7742 52.775 34.9008 52.775C34.9875 52.775 35.0592 52.7683 35.1158 52.755C35.1725 52.7417 35.2242 52.7167 35.2708 52.68V52.465H35.6308V52.805C35.5275 52.895 35.4175 52.9617 35.3008 53.005C35.1842 53.0517 35.0425 53.075 34.8758 53.075ZM39.0808 53.075C38.7208 53.075 38.4291 52.97 38.2058 52.76C37.9824 52.5467 37.8708 52.2383 37.8708 51.835C37.8708 51.4017 37.9741 51.075 38.1808 50.855C38.3874 50.635 38.6808 50.525 39.0608 50.525C39.4241 50.525 39.6974 50.63 39.8808 50.84C40.0674 51.05 40.1608 51.3367 40.1608 51.7V51.925H38.2708C38.2708 52.2217 38.3458 52.4383 38.4958 52.575C38.6458 52.7083 38.8424 52.775 39.0858 52.775C39.2358 52.775 39.3574 52.765 39.4508 52.745C39.5474 52.7217 39.6341 52.6867 39.7108 52.64V52.485H40.0758V52.8C39.9358 52.8933 39.7874 52.9617 39.6308 53.005C39.4741 53.0517 39.2908 53.075 39.0808 53.075ZM39.7858 51.65C39.7858 51.3733 39.7258 51.1667 39.6058 51.03C39.4891 50.8933 39.3058 50.825 39.0558 50.825C38.7991 50.825 38.6041 50.8983 38.4708 51.045C38.3374 51.1917 38.2708 51.3933 38.2708 51.65H39.7858ZM44.0014 53.075C43.6081 53.075 43.3248 52.9267 43.1514 52.63L43.1114 53H42.7814V50.2C42.7814 50.1167 42.7681 50.06 42.7414 50.03C42.7181 50 42.6681 49.985 42.5914 49.985H42.5014V49.69H43.1814V50.935C43.3714 50.6617 43.6631 50.525 44.0564 50.525C44.3898 50.525 44.6448 50.6367 44.8214 50.86C44.9981 51.08 45.0864 51.3983 45.0864 51.815C45.0864 52.2117 44.9881 52.5217 44.7914 52.745C44.5981 52.965 44.3348 53.075 44.0014 53.075ZM43.9414 52.775C44.1981 52.775 44.3881 52.6983 44.5114 52.545C44.6381 52.3883 44.7014 52.1417 44.7014 51.805C44.7014 51.4617 44.6414 51.2133 44.5214 51.06C44.4014 50.9033 44.2081 50.825 43.9414 50.825C43.8048 50.825 43.6781 50.8583 43.5614 50.925C43.4481 50.9883 43.3564 51.0833 43.2864 51.21C43.2164 51.3333 43.1814 51.48 43.1814 51.65V51.945C43.1814 52.0983 43.2131 52.2383 43.2764 52.365C43.3431 52.4917 43.4348 52.5917 43.5514 52.665C43.6681 52.7383 43.7981 52.775 43.9414 52.775ZM48.6763 53.075C48.2729 53.075 47.9713 52.9633 47.7713 52.74C47.5746 52.5133 47.4763 52.2017 47.4763 51.805C47.4763 51.405 47.5746 51.0917 47.7713 50.865C47.9679 50.6383 48.2696 50.525 48.6763 50.525C49.0829 50.525 49.3846 50.6383 49.5813 50.865C49.7779 51.0917 49.8763 51.405 49.8763 51.805C49.8763 52.2017 49.7763 52.5133 49.5763 52.74C49.3796 52.9633 49.0796 53.075 48.6763 53.075ZM48.6763 52.775C49.2196 52.775 49.4913 52.4517 49.4913 51.805C49.4913 51.4783 49.4229 51.2333 49.2863 51.07C49.1496 50.9067 48.9463 50.825 48.6763 50.825C48.1329 50.825 47.8613 51.1517 47.8613 51.805C47.8613 52.4517 48.1329 52.775 48.6763 52.775ZM53.4643 53.075C53.061 53.075 52.7593 52.9633 52.5593 52.74C52.3627 52.5133 52.2643 52.2017 52.2643 51.805C52.2643 51.405 52.3627 51.0917 52.5593 50.865C52.756 50.6383 53.0577 50.525 53.4643 50.525C53.871 50.525 54.1727 50.6383 54.3693 50.865C54.566 51.0917 54.6643 51.405 54.6643 51.805C54.6643 52.2017 54.5643 52.5133 54.3643 52.74C54.1677 52.9633 53.8677 53.075 53.4643 53.075ZM53.4643 52.775C54.0077 52.775 54.2793 52.4517 54.2793 51.805C54.2793 51.4783 54.211 51.2333 54.0743 51.07C53.9377 50.9067 53.7343 50.825 53.4643 50.825C52.921 50.825 52.6493 51.1517 52.6493 51.805C52.6493 52.4517 52.921 52.775 53.4643 52.775ZM56.9255 52.705H57.0705C57.1405 52.705 57.1838 52.6933 57.2005 52.67C57.2205 52.6433 57.2305 52.5967 57.2305 52.53V50.145C57.2305 50.0783 57.2188 50.0333 57.1955 50.01C57.1721 49.9833 57.1288 49.97 57.0655 49.97H56.9655V49.69H57.9305V49.97H57.7955C57.7355 49.97 57.6921 49.9833 57.6655 50.01C57.6421 50.0367 57.6305 50.0817 57.6305 50.145V51.75L58.5955 50.895H58.3255V50.6H59.3605V50.895H59.1655C59.1055 50.895 59.0605 50.9017 59.0305 50.915C59.0005 50.9283 58.9605 50.9567 58.9105 51L58.3605 51.49L59.0005 52.56C59.0371 52.62 59.0721 52.66 59.1055 52.68C59.1421 52.6967 59.1971 52.705 59.2705 52.705H59.4605V53H58.8705L58.0855 51.72L57.6305 52.13V52.53C57.6305 52.5933 57.6421 52.6383 57.6655 52.665C57.6921 52.6917 57.7421 52.705 57.8155 52.705H57.9755V53H56.9255V52.705Z" fill="black"/>
</g>
<defs>
<clipPath id="clip0_112_182">
<rect width="81" height="80" fill="white"/>
</clipPath>
</defs>
</svg>
