<svg width="90" height="121" viewBox="0 0 90 121" fill="none" xmlns="http://www.w3.org/2000/svg">
<path d="M45 85C39.7471 85 34.5457 83.9654 29.6927 81.9552C24.8396 79.945 20.4301 76.9986 16.7157 73.2843C13.0014 69.5699 10.055 65.1604 8.04482 60.3073C6.03463 55.4543 5 50.2529 5 45C5 39.7471 6.03463 34.5457 8.04482 29.6927C10.055 24.8396 13.0014 20.4301 16.7157 16.7157C20.4301 13.0014 24.8396 10.055 29.6927 8.04482C34.5457 6.03463 39.7471 5 45 5C50.2529 5 55.4543 6.03463 60.3073 8.04482C65.1604 10.055 69.5699 13.0014 73.2843 16.7157C76.9986 20.4301 79.945 24.8396 81.9552 29.6927C83.9654 34.5457 85 39.7471 85 45C85 50.2529 83.9654 55.4543 81.9552 60.3073C79.945 65.1604 76.9986 69.5699 73.2843 73.2843C69.5699 76.9986 65.1604 79.945 60.3073 81.9552C55.4543 83.9654 50.2529 85 45 85L45 85Z" stroke="#cdcdcd" stroke-width="10"/>
<path d="M85 45C85 52.9112 82.654 60.6448 78.2588 67.2228C73.8635 73.8008 67.6164 78.9277 60.3074 81.9552C52.9983 84.9827 44.9557 85.7748 37.1964 84.2314C29.4372 82.688 22.3099 78.8784 16.7158 73.2843C11.1217 67.6902 7.31202 60.5629 5.7686 52.8037C4.22518 45.0445 5.0173 37.0018 8.04479 29.6927C11.0723 22.3837 16.1992 16.1365 22.7771 11.7413C29.3551 7.346 37.0886 5.00002 44.9999 5" stroke="url(#paint0_linear_8_1145)" stroke-width="10" stroke-linecap="round"/>
<path d="M23.8 51.176C22.8933 51.176 22.1093 51.048 21.448 50.792C20.7867 50.5253 20.28 50.1467 19.928 49.656C19.576 49.1653 19.4 48.584 19.4 47.912C19.4 47.368 19.5067 46.888 19.72 46.472C19.944 46.056 20.248 45.72 20.632 45.464C21.016 45.1973 21.4533 45.0373 21.944 44.984V45.448C21.2827 45.3093 20.744 44.984 20.328 44.472C19.912 43.96 19.704 43.3467 19.704 42.632C19.704 41.9813 19.8693 41.4267 20.2 40.968C20.5307 40.5093 21.0053 40.1573 21.624 39.912C22.2427 39.6667 22.968 39.544 23.8 39.544C24.6427 39.544 25.368 39.6667 25.976 39.912C26.5947 40.1573 27.0693 40.5093 27.4 40.968C27.7307 41.4267 27.896 41.9813 27.896 42.632C27.896 43.112 27.8 43.5547 27.608 43.96C27.4267 44.3547 27.1707 44.68 26.84 44.936C26.52 45.192 26.1467 45.3573 25.72 45.432V44.984C26.4453 45.0907 27.0373 45.4107 27.496 45.944C27.9653 46.4667 28.2 47.1227 28.2 47.912C28.2 48.584 28.024 49.1653 27.672 49.656C27.32 50.1467 26.8133 50.5253 26.152 50.792C25.5013 51.048 24.7173 51.176 23.8 51.176ZM23.8 48.968C24.3653 48.968 24.7973 48.8613 25.096 48.648C25.3947 48.424 25.544 48.104 25.544 47.688C25.544 47.2613 25.3947 46.9413 25.096 46.728C24.7973 46.5147 24.3653 46.408 23.8 46.408C23.2347 46.408 22.8027 46.5147 22.504 46.728C22.2053 46.9413 22.056 47.2613 22.056 47.688C22.056 48.104 22.2053 48.424 22.504 48.648C22.8027 48.8613 23.2347 48.968 23.8 48.968ZM23.8 44.184C24.1093 44.184 24.3707 44.136 24.584 44.04C24.7973 43.944 24.9573 43.8053 25.064 43.624C25.1813 43.432 25.24 43.2133 25.24 42.968C25.24 42.5947 25.112 42.3013 24.856 42.088C24.6 41.864 24.248 41.752 23.8 41.752C23.352 41.752 23 41.864 22.744 42.088C22.4987 42.3013 22.376 42.5947 22.376 42.968C22.376 43.3413 22.4987 43.64 22.744 43.864C23 44.0773 23.352 44.184 23.8 44.184ZM33.3938 51.176C32.0071 51.176 30.9404 50.6693 30.1938 49.656C29.4578 48.632 29.0898 47.1867 29.0898 45.32C29.0898 44.0613 29.2551 43.0053 29.5858 42.152C29.9164 41.288 30.4018 40.6373 31.0418 40.2C31.6818 39.7627 32.4658 39.544 33.3938 39.544C34.7911 39.544 35.8578 40.0347 36.5938 41.016C37.3298 41.9973 37.6978 43.4267 37.6978 45.304C37.6978 46.552 37.5324 47.6133 37.2018 48.488C36.8711 49.3627 36.3858 50.0293 35.7458 50.488C35.1058 50.9467 34.3218 51.176 33.3938 51.176ZM33.3938 48.84C33.9058 48.84 34.2844 48.5627 34.5298 48.008C34.7858 47.4427 34.9138 46.5413 34.9138 45.304C34.9138 44.0773 34.7858 43.2027 34.5298 42.68C34.2844 42.1467 33.9058 41.88 33.3938 41.88C32.8818 41.88 32.4978 42.1467 32.2418 42.68C31.9964 43.2027 31.8738 44.0773 31.8738 45.304C31.8738 46.5413 31.9964 47.4427 32.2418 48.008C32.4978 48.5627 32.8818 48.84 33.3938 48.84ZM40.3635 51.096C39.8835 51.096 39.4995 50.952 39.2115 50.664C38.9342 50.376 38.7955 49.9973 38.7955 49.528C38.7955 49.0693 38.9342 48.7013 39.2115 48.424C39.4995 48.136 39.8835 47.992 40.3635 47.992C40.8648 47.992 41.2488 48.136 41.5155 48.424C41.7928 48.7013 41.9315 49.0693 41.9315 49.528C41.9315 49.9973 41.7928 50.376 41.5155 50.664C41.2488 50.952 40.8648 51.096 40.3635 51.096ZM47.0109 51.176C46.4669 51.176 45.9229 51.1227 45.3789 51.016C44.8349 50.9093 44.3655 50.76 43.9709 50.568C43.6295 50.408 43.3895 50.2107 43.2509 49.976C43.1229 49.7413 43.0695 49.5013 43.0909 49.256C43.1122 49.0107 43.1975 48.792 43.3469 48.6C43.5069 48.408 43.7095 48.28 43.9549 48.216C44.2109 48.1413 44.4989 48.1733 44.8189 48.312C45.2135 48.4827 45.5762 48.6 45.9069 48.664C46.2375 48.728 46.5682 48.76 46.8989 48.76C47.2829 48.76 47.6029 48.7173 47.8589 48.632C48.1149 48.5467 48.3069 48.4187 48.4349 48.248C48.5629 48.0667 48.6269 47.8427 48.6269 47.576C48.6269 47.2027 48.4935 46.9307 48.2269 46.76C47.9709 46.5787 47.5922 46.488 47.0909 46.488H46.2269C45.8215 46.488 45.5122 46.3867 45.2989 46.184C45.0855 45.9813 44.9789 45.6933 44.9789 45.32C44.9789 44.9467 45.0855 44.6587 45.2989 44.456C45.5122 44.2533 45.8215 44.152 46.2269 44.152H46.8029C47.1122 44.152 47.3735 44.1093 47.5869 44.024C47.8109 43.9387 47.9815 43.816 48.0989 43.656C48.2162 43.4853 48.2749 43.2773 48.2749 43.032C48.2749 42.68 48.1469 42.4133 47.8909 42.232C47.6455 42.0507 47.2775 41.96 46.7869 41.96C46.4882 41.96 46.1842 41.992 45.8749 42.056C45.5655 42.12 45.2349 42.232 44.8829 42.392C44.6055 42.5093 44.3495 42.536 44.1149 42.472C43.8909 42.408 43.7042 42.2853 43.5549 42.104C43.4162 41.912 43.3309 41.704 43.2989 41.48C43.2669 41.2453 43.3042 41.016 43.4109 40.792C43.5175 40.568 43.7202 40.3813 44.0189 40.232C44.4669 40.008 44.9522 39.8373 45.4749 39.72C46.0082 39.6027 46.5415 39.544 47.0749 39.544C47.9175 39.544 48.6375 39.6667 49.2349 39.912C49.8322 40.1573 50.2855 40.5147 50.5949 40.984C50.9149 41.4427 51.0749 41.9973 51.0749 42.648C51.0749 43.0747 50.9949 43.4693 50.8349 43.832C50.6749 44.1947 50.4402 44.4987 50.1309 44.744C49.8215 44.9787 49.4589 45.1493 49.0429 45.256V45.032C49.7895 45.1493 50.3709 45.464 50.7869 45.976C51.2135 46.4773 51.4269 47.1067 51.4269 47.864C51.4269 48.5467 51.2509 49.1387 50.8989 49.64C50.5469 50.1413 50.0402 50.5253 49.3789 50.792C48.7175 51.048 47.9282 51.176 47.0109 51.176ZM57.9486 50.712C57.81 50.9573 57.634 51.1173 57.4206 51.192C57.2073 51.2773 56.9993 51.2933 56.7966 51.24C56.594 51.1867 56.418 51.0853 56.2686 50.936C56.1193 50.7867 56.0286 50.6 55.9966 50.376C55.9646 50.152 56.018 49.9173 56.1566 49.672L61.7566 40.024C61.906 39.768 62.082 39.6027 62.2846 39.528C62.4873 39.4427 62.69 39.4267 62.8926 39.48C63.106 39.5333 63.282 39.64 63.4206 39.8C63.57 39.9493 63.6606 40.136 63.6926 40.36C63.7353 40.5733 63.682 40.8027 63.5326 41.048L57.9486 50.712ZM55.6286 46.44C54.6686 46.44 53.922 46.1253 53.3886 45.496C52.866 44.856 52.6046 44.0133 52.6046 42.968C52.6046 42.264 52.7273 41.656 52.9726 41.144C53.218 40.632 53.5646 40.2373 54.0126 39.96C54.4606 39.6827 54.9993 39.544 55.6286 39.544C56.578 39.544 57.314 39.8587 57.8366 40.488C58.37 41.1067 58.6366 41.9333 58.6366 42.968C58.6366 43.6613 58.514 44.2693 58.2686 44.792C58.034 45.3147 57.6926 45.72 57.2446 46.008C56.7966 46.296 56.258 46.44 55.6286 46.44ZM55.6286 44.68C55.7886 44.68 55.922 44.6267 56.0286 44.52C56.146 44.4027 56.2313 44.2213 56.2846 43.976C56.3486 43.72 56.3806 43.384 56.3806 42.968C56.3806 42.3387 56.3113 41.9013 56.1726 41.656C56.0446 41.4107 55.8633 41.288 55.6286 41.288C55.458 41.288 55.314 41.3413 55.1966 41.448C55.09 41.544 55.0046 41.7147 54.9406 41.96C54.8873 42.2053 54.8606 42.5413 54.8606 42.968C54.8606 43.608 54.9246 44.056 55.0526 44.312C55.1806 44.5573 55.3726 44.68 55.6286 44.68ZM64.0766 51.176C63.1273 51.176 62.386 50.8613 61.8526 50.232C61.33 49.6027 61.0686 48.7653 61.0686 47.72C61.0686 47.0053 61.186 46.392 61.4206 45.88C61.666 45.368 62.0126 44.9733 62.4606 44.696C62.9193 44.4187 63.458 44.28 64.0766 44.28C65.026 44.28 65.7673 44.5947 66.3006 45.224C66.834 45.8533 67.1006 46.6853 67.1006 47.72C67.1006 48.4133 66.978 49.0213 66.7326 49.544C66.498 50.056 66.1566 50.456 65.7086 50.744C65.2606 51.032 64.7166 51.176 64.0766 51.176ZM64.0766 49.432C64.2473 49.432 64.386 49.3787 64.4926 49.272C64.61 49.1547 64.6953 48.9733 64.7486 48.728C64.8126 48.472 64.8446 48.136 64.8446 47.72C64.8446 47.0907 64.7753 46.6533 64.6366 46.408C64.5086 46.1627 64.322 46.04 64.0766 46.04C63.9166 46.04 63.778 46.0933 63.6606 46.2C63.554 46.296 63.4686 46.4667 63.4046 46.712C63.3513 46.9467 63.3246 47.2827 63.3246 47.72C63.3246 48.36 63.3886 48.808 63.5166 49.064C63.6446 49.3093 63.8313 49.432 64.0766 49.432Z" fill="url(#paint1_linear_8_1145)"/>
<path d="M6.5255 117.128C6.09883 117.149 5.76817 117.043 5.5335 116.808C5.3095 116.563 5.1975 116.253 5.1975 115.88C5.1975 115.592 5.2775 115.341 5.4375 115.128C5.5975 114.915 5.8375 114.797 6.1575 114.776L6.6055 114.744C6.9895 114.723 7.27217 114.632 7.4535 114.472C7.63483 114.301 7.7255 114.024 7.7255 113.64V107.064C7.7255 106.573 7.8535 106.205 8.1095 105.96C8.3655 105.704 8.72817 105.576 9.1975 105.576C9.66683 105.576 10.0295 105.704 10.2855 105.96C10.5415 106.205 10.6695 106.573 10.6695 107.064V113.592C10.6695 114.328 10.5362 114.952 10.2695 115.464C10.0028 115.965 9.60283 116.355 9.0695 116.632C8.54683 116.899 7.89083 117.053 7.1015 117.096L6.5255 117.128ZM15.2399 117.176C14.6319 117.176 14.0932 117.064 13.6239 116.84C13.1652 116.616 12.8025 116.312 12.5359 115.928C12.2799 115.533 12.1519 115.085 12.1519 114.584C12.1519 114.008 12.3012 113.555 12.5999 113.224C12.8985 112.893 13.3785 112.659 14.0399 112.52C14.7012 112.371 15.5812 112.296 16.6799 112.296H17.5599V113.64H16.6799C16.2639 113.64 15.9172 113.672 15.6399 113.736C15.3732 113.789 15.1759 113.88 15.0479 114.008C14.9199 114.125 14.8559 114.28 14.8559 114.472C14.8559 114.717 14.9412 114.92 15.1119 115.08C15.2932 115.24 15.5492 115.32 15.8799 115.32C16.1465 115.32 16.3812 115.261 16.5839 115.144C16.7972 115.027 16.9679 114.867 17.0959 114.664C17.2239 114.451 17.2879 114.205 17.2879 113.928V112.072C17.2879 111.688 17.1865 111.416 16.9839 111.256C16.7919 111.096 16.4559 111.016 15.9759 111.016C15.7199 111.016 15.4319 111.048 15.1119 111.112C14.7919 111.165 14.4345 111.267 14.0399 111.416C13.7519 111.523 13.5065 111.539 13.3039 111.464C13.1012 111.389 12.9412 111.261 12.8239 111.08C12.7172 110.899 12.6639 110.701 12.6639 110.488C12.6745 110.275 12.7439 110.072 12.8719 109.88C13.0105 109.688 13.2185 109.539 13.4959 109.432C14.0079 109.24 14.4772 109.112 14.9039 109.048C15.3412 108.984 15.7412 108.952 16.1039 108.952C16.9785 108.952 17.6985 109.08 18.2639 109.336C18.8399 109.581 19.2665 109.965 19.5439 110.488C19.8319 111 19.9759 111.661 19.9759 112.472V115.704C19.9759 116.173 19.8639 116.531 19.6399 116.776C19.4159 117.021 19.0905 117.144 18.6639 117.144C18.2265 117.144 17.8905 117.021 17.6559 116.776C17.4319 116.531 17.3199 116.173 17.3199 115.704V115.288L17.4159 115.512C17.3625 115.853 17.2399 116.147 17.0479 116.392C16.8559 116.637 16.6052 116.829 16.2959 116.968C15.9865 117.107 15.6345 117.176 15.2399 117.176ZM25.0075 117.144C24.6342 117.144 24.3142 117.053 24.0475 116.872C23.7915 116.68 23.5782 116.397 23.4075 116.024L21.1195 110.792C20.9915 110.472 20.9488 110.173 20.9915 109.896C21.0342 109.619 21.1675 109.4 21.3915 109.24C21.6262 109.069 21.9462 108.984 22.3515 108.984C22.6928 108.984 22.9648 109.064 23.1675 109.224C23.3808 109.373 23.5728 109.672 23.7435 110.12L25.3595 114.28H24.8155L26.5115 110.104C26.6822 109.667 26.8742 109.373 27.0875 109.224C27.3008 109.064 27.5942 108.984 27.9675 108.984C28.2875 108.984 28.5435 109.069 28.7355 109.24C28.9382 109.4 29.0608 109.619 29.1035 109.896C29.1462 110.173 29.0928 110.472 28.9435 110.792L26.6075 116.04C26.4475 116.413 26.2342 116.691 25.9675 116.872C25.7115 117.053 25.3915 117.144 25.0075 117.144ZM32.7711 117.176C32.1631 117.176 31.6245 117.064 31.1551 116.84C30.6965 116.616 30.3338 116.312 30.0671 115.928C29.8111 115.533 29.6831 115.085 29.6831 114.584C29.6831 114.008 29.8325 113.555 30.1311 113.224C30.4298 112.893 30.9098 112.659 31.5711 112.52C32.2325 112.371 33.1125 112.296 34.2111 112.296H35.0911V113.64H34.2111C33.7951 113.64 33.4485 113.672 33.1711 113.736C32.9045 113.789 32.7071 113.88 32.5791 114.008C32.4511 114.125 32.3871 114.28 32.3871 114.472C32.3871 114.717 32.4725 114.92 32.6431 115.08C32.8245 115.24 33.0805 115.32 33.4111 115.32C33.6778 115.32 33.9125 115.261 34.1151 115.144C34.3285 115.027 34.4991 114.867 34.6271 114.664C34.7551 114.451 34.8191 114.205 34.8191 113.928V112.072C34.8191 111.688 34.7178 111.416 34.5151 111.256C34.3231 111.096 33.9871 111.016 33.5071 111.016C33.2511 111.016 32.9631 111.048 32.6431 111.112C32.3231 111.165 31.9658 111.267 31.5711 111.416C31.2831 111.523 31.0378 111.539 30.8351 111.464C30.6325 111.389 30.4725 111.261 30.3551 111.08C30.2485 110.899 30.1951 110.701 30.1951 110.488C30.2058 110.275 30.2751 110.072 30.4031 109.88C30.5418 109.688 30.7498 109.539 31.0271 109.432C31.5391 109.24 32.0085 109.112 32.4351 109.048C32.8725 108.984 33.2725 108.952 33.6351 108.952C34.5098 108.952 35.2298 109.08 35.7951 109.336C36.3711 109.581 36.7978 109.965 37.0751 110.488C37.3631 111 37.5071 111.661 37.5071 112.472V115.704C37.5071 116.173 37.3951 116.531 37.1711 116.776C36.9471 117.021 36.6218 117.144 36.1951 117.144C35.7578 117.144 35.4218 117.021 35.1871 116.776C34.9631 116.531 34.8511 116.173 34.8511 115.704V115.288L34.9471 115.512C34.8938 115.853 34.7711 116.147 34.5791 116.392C34.3871 116.637 34.1365 116.829 33.8271 116.968C33.5178 117.107 33.1658 117.176 32.7711 117.176ZM43.5129 117.176C43.0862 117.176 42.6382 117.144 42.1689 117.08C41.7102 117.027 41.2729 116.941 40.8569 116.824C40.4409 116.707 40.0675 116.568 39.7369 116.408C39.4489 116.269 39.2462 116.088 39.1289 115.864C39.0115 115.629 38.9689 115.384 39.0009 115.128C39.0329 114.872 39.1235 114.648 39.2729 114.456C39.4222 114.253 39.6195 114.12 39.8649 114.056C40.1102 113.981 40.3875 114.013 40.6969 114.152C41.1022 114.344 41.5609 114.493 42.0729 114.6C42.5849 114.707 43.0649 114.76 43.5129 114.76C44.2169 114.76 44.7075 114.669 44.9849 114.488C45.2729 114.296 45.4169 114.061 45.4169 113.784C45.4169 113.539 45.3155 113.341 45.1129 113.192C44.9209 113.043 44.5742 112.915 44.0729 112.808L42.2009 112.408C41.1769 112.195 40.4142 111.821 39.9129 111.288C39.4115 110.755 39.1609 110.067 39.1609 109.224C39.1609 108.669 39.2729 108.168 39.4969 107.72C39.7315 107.261 40.0569 106.872 40.4729 106.552C40.8995 106.232 41.4009 105.987 41.9769 105.816C42.5635 105.635 43.2142 105.544 43.9289 105.544C44.4835 105.544 45.0435 105.608 45.6089 105.736C46.1849 105.853 46.6809 106.035 47.0969 106.28C47.3422 106.408 47.5182 106.584 47.6249 106.808C47.7315 107.032 47.7742 107.267 47.7529 107.512C47.7315 107.747 47.6462 107.955 47.4969 108.136C47.3582 108.317 47.1662 108.44 46.9209 108.504C46.6862 108.557 46.4035 108.515 46.0729 108.376C45.7635 108.237 45.4115 108.136 45.0169 108.072C44.6329 107.997 44.2595 107.96 43.8969 107.96C43.5022 107.96 43.1662 108.008 42.8889 108.104C42.6115 108.189 42.3982 108.317 42.2489 108.488C42.1102 108.659 42.0409 108.856 42.0409 109.08C42.0409 109.304 42.1315 109.496 42.3129 109.656C42.5049 109.805 42.8515 109.933 43.3529 110.04L45.2089 110.44C46.2435 110.664 47.0169 111.032 47.5289 111.544C48.0409 112.056 48.2969 112.723 48.2969 113.544C48.2969 114.099 48.1849 114.6 47.9609 115.048C47.7369 115.496 47.4169 115.88 47.0009 116.2C46.5849 116.509 46.0835 116.749 45.4969 116.92C44.9102 117.091 44.2489 117.176 43.5129 117.176ZM53.5668 117.176C52.6814 117.176 51.9081 117.011 51.2468 116.68C50.5961 116.349 50.0894 115.875 49.7268 115.256C49.3641 114.627 49.1828 113.891 49.1828 113.048C49.1828 112.408 49.2841 111.837 49.4868 111.336C49.6894 110.824 49.9828 110.392 50.3668 110.04C50.7614 109.688 51.2254 109.421 51.7588 109.24C52.3028 109.048 52.9054 108.952 53.5668 108.952C53.8761 108.952 54.2014 108.984 54.5428 109.048C54.8841 109.101 55.2361 109.208 55.5988 109.368C55.8548 109.464 56.0308 109.613 56.1268 109.816C56.2334 110.008 56.2761 110.216 56.2548 110.44C56.2441 110.664 56.1801 110.867 56.0628 111.048C55.9561 111.229 55.8014 111.352 55.5988 111.416C55.4068 111.48 55.1881 111.453 54.9428 111.336C54.7721 111.251 54.5908 111.192 54.3988 111.16C54.2174 111.117 54.0414 111.096 53.8708 111.096C53.5828 111.096 53.3268 111.139 53.1028 111.224C52.8894 111.309 52.7081 111.437 52.5588 111.608C52.4094 111.768 52.2921 111.971 52.2068 112.216C52.1321 112.461 52.0948 112.739 52.0948 113.048C52.0948 113.667 52.2494 114.152 52.5588 114.504C52.8681 114.856 53.3054 115.032 53.8708 115.032C54.0414 115.032 54.2174 115.016 54.3988 114.984C54.5801 114.941 54.7614 114.877 54.9428 114.792C55.1881 114.675 55.4068 114.653 55.5988 114.728C55.7908 114.792 55.9454 114.915 56.0628 115.096C56.1801 115.277 56.2441 115.48 56.2548 115.704C56.2654 115.917 56.2174 116.125 56.1108 116.328C56.0041 116.52 55.8228 116.664 55.5668 116.76C55.2148 116.92 54.8681 117.027 54.5268 117.08C54.1961 117.144 53.8761 117.176 53.5668 117.176ZM58.7568 117.144C58.2874 117.144 57.9248 117.021 57.6688 116.776C57.4234 116.531 57.3008 116.173 57.3008 115.704V110.408C57.3008 109.949 57.4181 109.597 57.6528 109.352C57.8981 109.107 58.2448 108.984 58.6928 108.984C59.1408 108.984 59.4821 109.107 59.7168 109.352C59.9514 109.597 60.0688 109.949 60.0688 110.408V111.064H59.9088C60.0154 110.424 60.2874 109.917 60.7248 109.544C61.1728 109.171 61.7274 108.973 62.3888 108.952C62.6981 108.941 62.9274 109.021 63.0768 109.192C63.2368 109.352 63.3221 109.656 63.3328 110.104C63.3328 110.488 63.2528 110.792 63.0928 111.016C62.9328 111.24 62.6288 111.373 62.1808 111.416L61.8128 111.448C61.2474 111.501 60.8368 111.661 60.5807 111.928C60.3248 112.184 60.1968 112.568 60.1968 113.08V115.704C60.1968 116.173 60.0741 116.531 59.8288 116.776C59.5834 117.021 59.2261 117.144 58.7568 117.144ZM65.6463 117.144C65.1983 117.144 64.8516 117.011 64.6063 116.744C64.3609 116.477 64.2383 116.093 64.2383 115.592V110.536C64.2383 110.035 64.3609 109.651 64.6063 109.384C64.8516 109.117 65.1983 108.984 65.6463 108.984C66.1049 108.984 66.4569 109.117 66.7023 109.384C66.9583 109.651 67.0863 110.035 67.0863 110.536V115.592C67.0863 116.093 66.9636 116.477 66.7183 116.744C66.4729 117.011 66.1156 117.144 65.6463 117.144ZM65.6463 107.848C65.1449 107.848 64.7556 107.731 64.4783 107.496C64.2116 107.261 64.0783 106.92 64.0783 106.472C64.0783 106.035 64.2116 105.699 64.4783 105.464C64.7556 105.229 65.1449 105.112 65.6463 105.112C66.1689 105.112 66.5636 105.229 66.8303 105.464C67.0969 105.699 67.2303 106.035 67.2303 106.472C67.2303 106.92 67.0969 107.261 66.8303 107.496C66.5636 107.731 66.1689 107.848 65.6463 107.848ZM70.1463 120.024C69.6983 120.024 69.3516 119.901 69.1063 119.656C68.8609 119.411 68.7383 119.053 68.7383 118.584V110.408C68.7383 109.949 68.8556 109.597 69.0903 109.352C69.3356 109.107 69.6823 108.984 70.1303 108.984C70.5889 108.984 70.9356 109.107 71.1703 109.352C71.4156 109.597 71.5383 109.949 71.5383 110.408V111.336L71.3623 110.552C71.5116 110.072 71.8209 109.688 72.2903 109.4C72.7703 109.101 73.3143 108.952 73.9223 108.952C74.6049 108.952 75.2023 109.117 75.7143 109.448C76.2369 109.779 76.6423 110.248 76.9303 110.856C77.2183 111.464 77.3623 112.2 77.3623 113.064C77.3623 113.907 77.2183 114.637 76.9303 115.256C76.6423 115.875 76.2369 116.349 75.7143 116.68C75.2023 117.011 74.6049 117.176 73.9223 117.176C73.3356 117.176 72.8076 117.037 72.3383 116.76C71.8689 116.483 71.5543 116.12 71.3943 115.672H71.5863V118.584C71.5863 119.053 71.4583 119.411 71.2023 119.656C70.9569 119.901 70.6049 120.024 70.1463 120.024ZM73.0263 115.08C73.3143 115.08 73.5649 115.011 73.7783 114.872C74.0023 114.723 74.1783 114.504 74.3063 114.216C74.4343 113.917 74.4983 113.533 74.4983 113.064C74.4983 112.349 74.3596 111.837 74.0823 111.528C73.8049 111.208 73.4529 111.048 73.0263 111.048C72.7383 111.048 72.4823 111.117 72.2583 111.256C72.0343 111.395 71.8583 111.613 71.7303 111.912C71.6023 112.2 71.5383 112.584 71.5383 113.064C71.5383 113.768 71.6769 114.28 71.9543 114.6C72.2316 114.92 72.5889 115.08 73.0263 115.08ZM82.71 117.176C81.91 117.176 81.2487 117.053 80.726 116.808C80.214 116.563 79.83 116.195 79.574 115.704C79.318 115.203 79.19 114.579 79.19 113.832V111.224H78.646C78.3047 111.224 78.038 111.133 77.846 110.952C77.6647 110.771 77.574 110.509 77.574 110.168C77.574 109.827 77.6647 109.571 77.846 109.4C78.038 109.219 78.3047 109.128 78.646 109.128H79.19V108.136C79.19 107.667 79.3127 107.309 79.558 107.064C79.8033 106.819 80.1553 106.696 80.614 106.696C81.0727 106.696 81.4247 106.819 81.67 107.064C81.9153 107.309 82.038 107.667 82.038 108.136V109.128H83.35C83.702 109.128 83.9687 109.219 84.15 109.4C84.342 109.571 84.438 109.827 84.438 110.168C84.438 110.509 84.342 110.771 84.15 110.952C83.9687 111.133 83.702 111.224 83.35 111.224H82.038V113.736C82.038 114.131 82.1287 114.424 82.31 114.616C82.502 114.797 82.8007 114.888 83.206 114.888C83.3553 114.888 83.4993 114.872 83.638 114.84C83.7767 114.808 83.9047 114.792 84.022 114.792C84.1927 114.781 84.3313 114.835 84.438 114.952C84.5447 115.059 84.598 115.309 84.598 115.704C84.598 116.024 84.55 116.296 84.454 116.52C84.358 116.733 84.1873 116.888 83.942 116.984C83.7927 117.037 83.59 117.08 83.334 117.112C83.078 117.155 82.87 117.176 82.71 117.176Z" fill="url(#paint2_linear_8_1145)"/>
<defs>
<linearGradient id="paint0_linear_8_1145" x1="5" y1="45" x2="85" y2="45" gradientUnits="userSpaceOnUse">
<stop offset="0.186043" stop-color="#0D434F"/>
<stop offset="0.678087" stop-color="#1E3236"/>
</linearGradient>
<linearGradient id="paint1_linear_8_1145" x1="19" y1="44.5" x2="71" y2="44.5" gradientUnits="userSpaceOnUse">
<stop offset="0.186043" stop-color="#0D434F"/>
<stop offset="0.678087" stop-color="#1E3236"/>
</linearGradient>
<linearGradient id="paint2_linear_8_1145" x1="5" y1="110.5" x2="85" y2="110.5" gradientUnits="userSpaceOnUse">
<stop offset="0.186043" stop-color="#0D434F"/>
<stop offset="0.678087" stop-color="#1E3236"/>
</linearGradient>
</defs>
</svg>
