<svg width="30" height="29" viewBox="0 0 30 29" fill="none" xmlns="http://www.w3.org/2000/svg">
<path d="M15 0C6.705 0 0 6.4815 0 14.5C0 22.5185 6.705 29 15 29C23.295 29 30 22.5185 30 14.5C30 6.4815 23.295 0 15 0ZM15 26.1C8.385 26.1 3 20.8945 3 14.5C3 8.1055 8.385 2.9 15 2.9C21.615 2.9 27 8.1055 27 14.5C27 20.8945 21.615 26.1 15 26.1ZM20.385 7.25L15 12.4555L9.615 7.25L7.5 9.2945L12.885 14.5L7.5 19.7055L9.615 21.75L15 16.5445L20.385 21.75L22.5 19.7055L17.115 14.5L22.5 9.2945L20.385 7.25Z" fill="#A1A1A1"/>
</svg>
