<svg width="90" height="121" viewBox="0 0 90 121" fill="none" xmlns="http://www.w3.org/2000/svg">
<path d="M45 85C39.7471 85 34.5457 83.9654 29.6927 81.9552C24.8396 79.945 20.4301 76.9986 16.7157 73.2843C13.0014 69.5699 10.055 65.1604 8.04482 60.3073C6.03463 55.4543 5 50.2529 5 45C5 39.7471 6.03463 34.5457 8.04482 29.6927C10.055 24.8396 13.0014 20.4301 16.7157 16.7157C20.4301 13.0014 24.8396 10.055 29.6927 8.04482C34.5457 6.03463 39.7471 5 45 5C50.2529 5 55.4543 6.03463 60.3073 8.04482C65.1604 10.055 69.5699 13.0014 73.2843 16.7157C76.9986 20.4301 79.945 24.8396 81.9552 29.6927C83.9654 34.5457 85 39.7471 85 45C85 50.2529 83.9654 55.4543 81.9552 60.3073C79.945 65.1604 76.9986 69.5699 73.2843 73.2843C69.5699 76.9986 65.1604 79.945 60.3073 81.9552C55.4543 83.9654 50.2529 85 45 85L45 85Z" stroke="#5E5E5E" stroke-width="10"/>
<path d="M85 45C85 52.9112 82.654 60.6448 78.2588 67.2228C73.8635 73.8008 67.6164 78.9277 60.3074 81.9552C52.9983 84.9827 44.9557 85.7748 37.1964 84.2314C29.4372 82.688 22.3099 78.8784 16.7158 73.2843C11.1217 67.6902 7.31202 60.5629 5.7686 52.8037C4.22518 45.0445 5.0173 37.0018 8.04479 29.6927C11.0723 22.3837 16.1992 16.1365 22.7771 11.7413C29.3551 7.346 37.0886 5.00002 44.9999 5" stroke="url(#paint0_linear_8_1155)" stroke-width="10" stroke-linecap="round"/>
<path d="M23.8 51.176C22.8933 51.176 22.1093 51.048 21.448 50.792C20.7867 50.5253 20.28 50.1467 19.928 49.656C19.576 49.1653 19.4 48.584 19.4 47.912C19.4 47.368 19.5067 46.888 19.72 46.472C19.944 46.056 20.248 45.72 20.632 45.464C21.016 45.1973 21.4533 45.0373 21.944 44.984V45.448C21.2827 45.3093 20.744 44.984 20.328 44.472C19.912 43.96 19.704 43.3467 19.704 42.632C19.704 41.9813 19.8693 41.4267 20.2 40.968C20.5307 40.5093 21.0053 40.1573 21.624 39.912C22.2427 39.6667 22.968 39.544 23.8 39.544C24.6427 39.544 25.368 39.6667 25.976 39.912C26.5947 40.1573 27.0693 40.5093 27.4 40.968C27.7307 41.4267 27.896 41.9813 27.896 42.632C27.896 43.112 27.8 43.5547 27.608 43.96C27.4267 44.3547 27.1707 44.68 26.84 44.936C26.52 45.192 26.1467 45.3573 25.72 45.432V44.984C26.4453 45.0907 27.0373 45.4107 27.496 45.944C27.9653 46.4667 28.2 47.1227 28.2 47.912C28.2 48.584 28.024 49.1653 27.672 49.656C27.32 50.1467 26.8133 50.5253 26.152 50.792C25.5013 51.048 24.7173 51.176 23.8 51.176ZM23.8 48.968C24.3653 48.968 24.7973 48.8613 25.096 48.648C25.3947 48.424 25.544 48.104 25.544 47.688C25.544 47.2613 25.3947 46.9413 25.096 46.728C24.7973 46.5147 24.3653 46.408 23.8 46.408C23.2347 46.408 22.8027 46.5147 22.504 46.728C22.2053 46.9413 22.056 47.2613 22.056 47.688C22.056 48.104 22.2053 48.424 22.504 48.648C22.8027 48.8613 23.2347 48.968 23.8 48.968ZM23.8 44.184C24.1093 44.184 24.3707 44.136 24.584 44.04C24.7973 43.944 24.9573 43.8053 25.064 43.624C25.1813 43.432 25.24 43.2133 25.24 42.968C25.24 42.5947 25.112 42.3013 24.856 42.088C24.6 41.864 24.248 41.752 23.8 41.752C23.352 41.752 23 41.864 22.744 42.088C22.4987 42.3013 22.376 42.5947 22.376 42.968C22.376 43.3413 22.4987 43.64 22.744 43.864C23 44.0773 23.352 44.184 23.8 44.184ZM33.3138 51.176C32.8018 51.176 32.2631 51.1173 31.6978 51C31.1324 50.8827 30.6098 50.7013 30.1298 50.456C29.8418 50.3067 29.6391 50.1147 29.5218 49.88C29.4151 49.6347 29.3778 49.3893 29.4098 49.144C29.4524 48.8987 29.5484 48.68 29.6978 48.488C29.8578 48.296 30.0551 48.1733 30.2898 48.12C30.5351 48.056 30.8018 48.0987 31.0898 48.248C31.4418 48.4187 31.8044 48.5467 32.1778 48.632C32.5618 48.7173 32.9191 48.76 33.2498 48.76C33.6124 48.76 33.9218 48.7067 34.1778 48.6C34.4338 48.4933 34.6258 48.3387 34.7538 48.136C34.8924 47.9333 34.9618 47.6933 34.9618 47.416C34.9618 46.9893 34.8178 46.6533 34.5298 46.408C34.2418 46.1627 33.8578 46.04 33.3778 46.04C33.1644 46.04 32.9298 46.072 32.6738 46.136C32.4284 46.2 32.1724 46.3227 31.9058 46.504C31.7884 46.568 31.6284 46.6427 31.4258 46.728C31.2231 46.8027 31.0151 46.84 30.8018 46.84C30.4178 46.84 30.1351 46.7493 29.9538 46.568C29.7724 46.3867 29.6818 46.1307 29.6818 45.8V40.968C29.6818 40.5627 29.7884 40.2533 30.0018 40.04C30.2258 39.8267 30.5351 39.72 30.9298 39.72H35.9538C36.3484 39.72 36.6524 39.8213 36.8658 40.024C37.0791 40.2267 37.1858 40.5253 37.1858 40.92C37.1858 41.304 37.0791 41.5973 36.8658 41.8C36.6524 42.0027 36.3484 42.104 35.9538 42.104H32.4498V44.616H31.7778C32.0338 44.3173 32.3698 44.0933 32.7858 43.944C33.2018 43.784 33.6551 43.704 34.1458 43.704C34.8604 43.704 35.4898 43.8587 36.0338 44.168C36.5778 44.4667 36.9991 44.888 37.2978 45.432C37.6071 45.976 37.7618 46.6107 37.7618 47.336C37.7618 48.104 37.5804 48.7813 37.2178 49.368C36.8658 49.944 36.3538 50.392 35.6818 50.712C35.0204 51.0213 34.2311 51.176 33.3138 51.176ZM40.3635 51.096C39.8835 51.096 39.4995 50.952 39.2115 50.664C38.9342 50.376 38.7955 49.9973 38.7955 49.528C38.7955 49.0693 38.9342 48.7013 39.2115 48.424C39.4995 48.136 39.8835 47.992 40.3635 47.992C40.8648 47.992 41.2488 48.136 41.5155 48.424C41.7928 48.7013 41.9315 49.0693 41.9315 49.528C41.9315 49.9973 41.7928 50.376 41.5155 50.664C41.2488 50.952 40.8648 51.096 40.3635 51.096ZM45.3789 51.144C45.0162 51.144 44.7229 51.064 44.4989 50.904C44.2749 50.7333 44.1469 50.5093 44.1149 50.232C44.0829 49.9547 44.1575 49.6507 44.3389 49.32L48.7709 41.272V42.12H44.2749C43.8802 42.12 43.5709 42.0187 43.3469 41.816C43.1335 41.6133 43.0269 41.3147 43.0269 40.92C43.0269 40.5253 43.1335 40.2267 43.3469 40.024C43.5709 39.8213 43.8802 39.72 44.2749 39.72H50.2909C50.6855 39.72 51.0109 39.8267 51.2669 40.04C51.5335 40.2533 51.6669 40.5573 51.6669 40.952C51.6669 41.2933 51.6135 41.592 51.5069 41.848C51.4109 42.0933 51.2882 42.3547 51.1389 42.632L47.0429 50.216C46.8722 50.5467 46.6535 50.7867 46.3869 50.936C46.1309 51.0747 45.7949 51.144 45.3789 51.144ZM57.9486 50.712C57.81 50.9573 57.634 51.1173 57.4206 51.192C57.2073 51.2773 56.9993 51.2933 56.7966 51.24C56.594 51.1867 56.418 51.0853 56.2686 50.936C56.1193 50.7867 56.0286 50.6 55.9966 50.376C55.9646 50.152 56.018 49.9173 56.1566 49.672L61.7566 40.024C61.906 39.768 62.082 39.6027 62.2846 39.528C62.4873 39.4427 62.69 39.4267 62.8926 39.48C63.106 39.5333 63.282 39.64 63.4206 39.8C63.57 39.9493 63.6606 40.136 63.6926 40.36C63.7353 40.5733 63.682 40.8027 63.5326 41.048L57.9486 50.712ZM55.6286 46.44C54.6686 46.44 53.922 46.1253 53.3886 45.496C52.866 44.856 52.6046 44.0133 52.6046 42.968C52.6046 42.264 52.7273 41.656 52.9726 41.144C53.218 40.632 53.5646 40.2373 54.0126 39.96C54.4606 39.6827 54.9993 39.544 55.6286 39.544C56.578 39.544 57.314 39.8587 57.8366 40.488C58.37 41.1067 58.6366 41.9333 58.6366 42.968C58.6366 43.6613 58.514 44.2693 58.2686 44.792C58.034 45.3147 57.6926 45.72 57.2446 46.008C56.7966 46.296 56.258 46.44 55.6286 46.44ZM55.6286 44.68C55.7886 44.68 55.922 44.6267 56.0286 44.52C56.146 44.4027 56.2313 44.2213 56.2846 43.976C56.3486 43.72 56.3806 43.384 56.3806 42.968C56.3806 42.3387 56.3113 41.9013 56.1726 41.656C56.0446 41.4107 55.8633 41.288 55.6286 41.288C55.458 41.288 55.314 41.3413 55.1966 41.448C55.09 41.544 55.0046 41.7147 54.9406 41.96C54.8873 42.2053 54.8606 42.5413 54.8606 42.968C54.8606 43.608 54.9246 44.056 55.0526 44.312C55.1806 44.5573 55.3726 44.68 55.6286 44.68ZM64.0766 51.176C63.1273 51.176 62.386 50.8613 61.8526 50.232C61.33 49.6027 61.0686 48.7653 61.0686 47.72C61.0686 47.0053 61.186 46.392 61.4206 45.88C61.666 45.368 62.0126 44.9733 62.4606 44.696C62.9193 44.4187 63.458 44.28 64.0766 44.28C65.026 44.28 65.7673 44.5947 66.3006 45.224C66.834 45.8533 67.1006 46.6853 67.1006 47.72C67.1006 48.4133 66.978 49.0213 66.7326 49.544C66.498 50.056 66.1566 50.456 65.7086 50.744C65.2606 51.032 64.7166 51.176 64.0766 51.176ZM64.0766 49.432C64.2473 49.432 64.386 49.3787 64.4926 49.272C64.61 49.1547 64.6953 48.9733 64.7486 48.728C64.8126 48.472 64.8446 48.136 64.8446 47.72C64.8446 47.0907 64.7753 46.6533 64.6366 46.408C64.5086 46.1627 64.322 46.04 64.0766 46.04C63.9166 46.04 63.778 46.0933 63.6606 46.2C63.554 46.296 63.4686 46.4667 63.4046 46.712C63.3513 46.9467 63.3246 47.2827 63.3246 47.72C63.3246 48.36 63.3886 48.808 63.5166 49.064C63.6446 49.3093 63.8313 49.432 64.0766 49.432Z" fill="url(#paint1_linear_8_1155)"/>
<path d="M8.92306 117.144C8.4964 117.144 8.16573 117.027 7.93106 116.792C7.70706 116.557 7.59506 116.227 7.59506 115.8V106.92C7.59506 106.483 7.71773 106.152 7.96306 105.928C8.2084 105.693 8.55506 105.576 9.00306 105.576C9.3764 105.576 9.66973 105.651 9.88306 105.8C10.1071 105.939 10.3097 106.173 10.4911 106.504L13.9311 112.68H13.3711L16.7951 106.504C16.9871 106.173 17.1897 105.939 17.4031 105.8C17.6271 105.651 17.9257 105.576 18.2991 105.576C18.7257 105.576 19.0511 105.693 19.2751 105.928C19.5097 106.152 19.6271 106.483 19.6271 106.92V115.8C19.6271 116.227 19.5151 116.557 19.2911 116.792C19.0671 117.027 18.7364 117.144 18.2991 117.144C17.8724 117.144 17.5417 117.027 17.3071 116.792C17.0831 116.557 16.9711 116.227 16.9711 115.8V110.296H17.3071L14.7311 114.776C14.5817 115.011 14.4217 115.187 14.2511 115.304C14.0911 115.421 13.8724 115.48 13.5951 115.48C13.3284 115.48 13.1097 115.421 12.9391 115.304C12.7684 115.187 12.6137 115.011 12.4751 114.776L9.88306 110.28H10.2511V115.8C10.2511 116.227 10.1391 116.557 9.91506 116.792C9.69106 117.027 9.3604 117.144 8.92306 117.144ZM25.4957 117.176C24.621 117.176 23.8584 117.011 23.2077 116.68C22.557 116.349 22.0504 115.875 21.6877 115.256C21.325 114.637 21.1437 113.907 21.1437 113.064C21.1437 112.424 21.245 111.853 21.4477 111.352C21.6504 110.84 21.9437 110.408 22.3277 110.056C22.7117 109.693 23.1704 109.421 23.7037 109.24C24.237 109.048 24.8344 108.952 25.4957 108.952C26.3704 108.952 27.133 109.117 27.7837 109.448C28.4344 109.779 28.9357 110.253 29.2877 110.872C29.6504 111.48 29.8317 112.211 29.8317 113.064C29.8317 113.693 29.7304 114.264 29.5277 114.776C29.325 115.288 29.0317 115.725 28.6477 116.088C28.2744 116.44 27.8157 116.712 27.2717 116.904C26.7384 117.085 26.1464 117.176 25.4957 117.176ZM25.4957 115.08C25.7837 115.08 26.0397 115.011 26.2637 114.872C26.4877 114.723 26.6584 114.504 26.7757 114.216C26.9037 113.917 26.9677 113.533 26.9677 113.064C26.9677 112.349 26.829 111.837 26.5517 111.528C26.2744 111.208 25.9224 111.048 25.4957 111.048C25.2077 111.048 24.9517 111.117 24.7277 111.256C24.5037 111.395 24.3277 111.613 24.1997 111.912C24.0717 112.2 24.0077 112.584 24.0077 113.064C24.0077 113.768 24.1464 114.28 24.4237 114.6C24.701 114.92 25.0584 115.08 25.4957 115.08ZM32.5447 117.144C32.0967 117.144 31.75 117.021 31.5047 116.776C31.2594 116.531 31.1367 116.173 31.1367 115.704V110.408C31.1367 109.949 31.254 109.597 31.4887 109.352C31.734 109.107 32.0807 108.984 32.5287 108.984C32.9767 108.984 33.318 109.107 33.5527 109.352C33.7874 109.597 33.9047 109.949 33.9047 110.408V111.16L33.7287 110.504C33.9847 110.003 34.3474 109.619 34.8167 109.352C35.2967 109.085 35.8407 108.952 36.4487 108.952C37.078 108.952 37.5954 109.075 38.0007 109.32C38.406 109.555 38.71 109.928 38.9127 110.44C39.1154 110.941 39.2167 111.576 39.2167 112.344V115.704C39.2167 116.173 39.094 116.531 38.8487 116.776C38.6034 117.021 38.2514 117.144 37.7927 117.144C37.334 117.144 36.982 117.021 36.7367 116.776C36.4914 116.531 36.3687 116.173 36.3687 115.704V112.456C36.3687 111.976 36.2834 111.635 36.1127 111.432C35.9527 111.229 35.7127 111.128 35.3927 111.128C34.966 111.128 34.6247 111.267 34.3687 111.544C34.1127 111.811 33.9847 112.173 33.9847 112.632V115.704C33.9847 116.664 33.5047 117.144 32.5447 117.144ZM44.7438 120.056C44.1571 120.056 43.6078 120.013 43.0958 119.928C42.5838 119.853 42.1411 119.741 41.7678 119.592C41.4585 119.485 41.2398 119.331 41.1118 119.128C40.9838 118.925 40.9251 118.712 40.9358 118.488C40.9465 118.264 41.0051 118.061 41.1118 117.88C41.2291 117.699 41.3838 117.565 41.5758 117.48C41.7678 117.405 41.9811 117.411 42.2158 117.496C42.6851 117.688 43.1118 117.811 43.4958 117.864C43.8798 117.928 44.2051 117.96 44.4718 117.96C45.1225 117.96 45.6078 117.821 45.9278 117.544C46.2585 117.277 46.4238 116.856 46.4238 116.28V115.272H46.5518C46.3918 115.72 46.0665 116.088 45.5758 116.376C45.0851 116.653 44.5518 116.792 43.9758 116.792C43.2718 116.792 42.6585 116.632 42.1358 116.312C41.6131 115.981 41.2025 115.523 40.9038 114.936C40.6158 114.349 40.4718 113.661 40.4718 112.872C40.4718 112.275 40.5571 111.736 40.7278 111.256C40.8985 110.776 41.1331 110.365 41.4318 110.024C41.7411 109.683 42.1091 109.421 42.5358 109.24C42.9731 109.048 43.4531 108.952 43.9758 108.952C44.5731 108.952 45.1065 109.091 45.5758 109.368C46.0558 109.645 46.3758 110.008 46.5358 110.456L46.3758 111.112V110.408C46.3758 109.949 46.4985 109.597 46.7438 109.352C46.9998 109.107 47.3518 108.984 47.7998 108.984C48.2478 108.984 48.5891 109.107 48.8238 109.352C49.0691 109.597 49.1918 109.949 49.1918 110.408V115.944C49.1918 117.309 48.8078 118.333 48.0398 119.016C47.2718 119.709 46.1731 120.056 44.7438 120.056ZM44.8558 114.696C45.1758 114.696 45.4478 114.627 45.6718 114.488C45.8958 114.339 46.0718 114.131 46.1998 113.864C46.3278 113.587 46.3918 113.256 46.3918 112.872C46.3918 112.296 46.2531 111.848 45.9758 111.528C45.6985 111.208 45.3251 111.048 44.8558 111.048C44.5571 111.048 44.2905 111.123 44.0558 111.272C43.8211 111.411 43.6398 111.619 43.5118 111.896C43.3945 112.163 43.3358 112.488 43.3358 112.872C43.3358 113.448 43.4745 113.896 43.7518 114.216C44.0291 114.536 44.3971 114.696 44.8558 114.696ZM54.8394 117.176C53.9648 117.176 53.2021 117.011 52.5514 116.68C51.9008 116.349 51.3941 115.875 51.0314 115.256C50.6688 114.637 50.4874 113.907 50.4874 113.064C50.4874 112.424 50.5888 111.853 50.7914 111.352C50.9941 110.84 51.2874 110.408 51.6714 110.056C52.0554 109.693 52.5141 109.421 53.0474 109.24C53.5808 109.048 54.1781 108.952 54.8394 108.952C55.7141 108.952 56.4768 109.117 57.1274 109.448C57.7781 109.779 58.2794 110.253 58.6314 110.872C58.9941 111.48 59.1754 112.211 59.1754 113.064C59.1754 113.693 59.0741 114.264 58.8714 114.776C58.6688 115.288 58.3754 115.725 57.9914 116.088C57.6181 116.44 57.1594 116.712 56.6154 116.904C56.0821 117.085 55.4901 117.176 54.8394 117.176ZM54.8394 115.08C55.1274 115.08 55.3834 115.011 55.6074 114.872C55.8314 114.723 56.0021 114.504 56.1194 114.216C56.2474 113.917 56.3114 113.533 56.3114 113.064C56.3114 112.349 56.1728 111.837 55.8954 111.528C55.6181 111.208 55.2661 111.048 54.8394 111.048C54.5514 111.048 54.2954 111.117 54.0714 111.256C53.8474 111.395 53.6714 111.613 53.5434 111.912C53.4154 112.2 53.3514 112.584 53.3514 113.064C53.3514 113.768 53.4901 114.28 53.7674 114.6C54.0448 114.92 54.4021 115.08 54.8394 115.08ZM62.2084 117C61.7071 117 61.3231 116.872 61.0564 116.616C60.8004 116.349 60.6724 115.971 60.6724 115.48V107.24C60.6724 106.749 60.8004 106.376 61.0564 106.12C61.3231 105.853 61.7071 105.72 62.2084 105.72H65.3444C67.3071 105.72 68.8218 106.211 69.8884 107.192C70.9658 108.173 71.5044 109.56 71.5044 111.352C71.5044 112.248 71.3658 113.048 71.0884 113.752C70.8111 114.445 70.4111 115.037 69.8884 115.528C69.3658 116.008 68.7204 116.376 67.9524 116.632C67.1951 116.877 66.3258 117 65.3444 117H62.2084ZM63.6164 114.616H65.1524C65.7178 114.616 66.2031 114.547 66.6084 114.408C67.0244 114.269 67.3658 114.067 67.6324 113.8C67.9098 113.533 68.1124 113.197 68.2404 112.792C68.3791 112.387 68.4484 111.907 68.4484 111.352C68.4484 110.243 68.1764 109.427 67.6324 108.904C67.0884 108.371 66.2618 108.104 65.1524 108.104H63.6164V114.616ZM74.7866 117C74.2852 117 73.9012 116.872 73.6346 116.616C73.3786 116.349 73.2506 115.971 73.2506 115.48V107.24C73.2506 106.749 73.3786 106.376 73.6346 106.12C73.9012 105.853 74.2852 105.72 74.7866 105.72H78.6906C79.5012 105.72 80.1892 105.843 80.7546 106.088C81.3306 106.323 81.7679 106.659 82.0666 107.096C82.3652 107.533 82.5146 108.045 82.5146 108.632C82.5146 109.293 82.3226 109.859 81.9386 110.328C81.5652 110.797 81.0532 111.117 80.4026 111.288V111.032C81.1706 111.171 81.7626 111.48 82.1786 111.96C82.6052 112.44 82.8186 113.053 82.8186 113.8C82.8186 114.792 82.4612 115.576 81.7466 116.152C81.0426 116.717 80.0772 117 78.8506 117H74.7866ZM76.0666 114.84H78.4506C78.9946 114.84 79.3892 114.739 79.6346 114.536C79.8906 114.323 80.0186 114.008 80.0186 113.592C80.0186 113.176 79.8906 112.867 79.6346 112.664C79.3892 112.461 78.9946 112.36 78.4506 112.36H76.0666V114.84ZM76.0666 110.2H78.1626C78.6959 110.2 79.0852 110.104 79.3306 109.912C79.5866 109.72 79.7146 109.427 79.7146 109.032C79.7146 108.637 79.5866 108.349 79.3306 108.168C79.0852 107.976 78.6959 107.88 78.1626 107.88H76.0666V110.2Z" fill="url(#paint2_linear_8_1155)"/>
<defs>
<linearGradient id="paint0_linear_8_1155" x1="5" y1="45" x2="85" y2="45" gradientUnits="userSpaceOnUse">
<stop offset="0.186043" stop-color="#0D434F"/>
<stop offset="0.678087" stop-color="#1E3236"/>
</linearGradient>
<linearGradient id="paint1_linear_8_1155" x1="19" y1="44.5" x2="71" y2="44.5" gradientUnits="userSpaceOnUse">
<stop offset="0.186043" stop-color="#0D434F"/>
<stop offset="0.678087" stop-color="#1E3236"/>
</linearGradient>
<linearGradient id="paint2_linear_8_1155" x1="5" y1="110.5" x2="85" y2="110.5" gradientUnits="userSpaceOnUse">
<stop offset="0.186043" stop-color="#0D434F"/>
<stop offset="0.678087" stop-color="#1E3236"/>
</linearGradient>
</defs>
</svg>
