<svg width="24" height="18" viewBox="0 0 24 18" fill="none" xmlns="http://www.w3.org/2000/svg">
<path fill-rule="evenodd" clip-rule="evenodd" d="M1.7561 13.8462C2.22184 13.8462 2.66851 14.065 2.99785 14.4545C3.32718 14.844 3.5122 15.3722 3.5122 15.9231C3.5122 16.4739 3.32718 17.0022 2.99785 17.3917C2.66851 17.7812 2.22184 18 1.7561 18C1.29035 18 0.843681 17.7812 0.514349 17.3917C0.185017 17.0022 0 16.4739 0 15.9231C0 15.3722 0.185017 14.844 0.514349 14.4545C0.843681 14.065 1.29035 13.8462 1.7561 13.8462ZM22.8281 14.5385C23.4755 14.5385 24 15.1532 24 15.9231C24 16.6881 23.479 17.3077 22.8281 17.3077H6.4402C6.28627 17.3082 6.13377 17.2728 5.99145 17.2034C5.84914 17.1341 5.71981 17.0321 5.61092 16.9035C5.50202 16.7748 5.41569 16.6219 5.35689 16.4537C5.29809 16.2855 5.26798 16.1051 5.26829 15.9231C5.26829 15.1581 5.78927 14.5385 6.4402 14.5385H22.8281ZM1.7561 6.92308C2.22184 6.92308 2.66851 7.14189 2.99785 7.53139C3.32718 7.92089 3.5122 8.44917 3.5122 9C3.5122 9.55083 3.32718 10.0791 2.99785 10.4686C2.66851 10.8581 2.22184 11.0769 1.7561 11.0769C1.29035 11.0769 0.843681 10.8581 0.514349 10.4686C0.185017 10.0791 0 9.55083 0 9C0 8.44917 0.185017 7.92089 0.514349 7.53139C0.843681 7.14189 1.29035 6.92308 1.7561 6.92308ZM22.8281 7.61539C23.4755 7.61539 24 8.23015 24 9C24 9.765 23.479 10.3846 22.8281 10.3846H6.4402C6.28627 10.3852 6.13377 10.3497 5.99145 10.2804C5.84914 10.211 5.71981 10.109 5.61092 9.98038C5.50202 9.85171 5.41569 9.69887 5.35689 9.53062C5.29809 9.36238 5.26798 9.18205 5.26829 9C5.26829 8.235 5.78927 7.61539 6.4402 7.61539H22.8281ZM1.7561 0C2.22184 0 2.66851 0.218818 2.99785 0.608316C3.32718 0.997815 3.5122 1.52609 3.5122 2.07692C3.5122 2.62776 3.32718 3.15603 2.99785 3.54553C2.66851 3.93503 2.22184 4.15385 1.7561 4.15385C1.29035 4.15385 0.843681 3.93503 0.514349 3.54553C0.185017 3.15603 0 2.62776 0 2.07692C0 1.52609 0.185017 0.997815 0.514349 0.608316C0.843681 0.218818 1.29035 0 1.7561 0ZM22.8281 0.692308C23.4755 0.692308 24 1.30708 24 2.07692C24 2.84192 23.479 3.46154 22.8281 3.46154H6.4402C6.28627 3.46209 6.13377 3.42666 5.99145 3.35728C5.84914 3.28791 5.71981 3.18596 5.61092 3.0573C5.50202 2.92864 5.41569 2.77579 5.35689 2.60755C5.29809 2.4393 5.26798 2.25897 5.26829 2.07692C5.26829 1.31192 5.78927 0.692308 6.4402 0.692308H22.8281Z" fill="#666666"/>
</svg>
