<svg width="81" height="80" viewBox="0 0 81 80" fill="none" xmlns="http://www.w3.org/2000/svg">
<g clip-path="url(#clip0_129_211)">
<rect width="81" height="80" fill="#0085AF"/>
<ellipse cx="40.5" cy="40" rx="40.5" ry="40" fill="#0085AF"/>
<path d="M17.5703 33.6602C17.5052 33.8294 17.401 34.1094 17.2578 34.5C17.1211 34.8906 16.9551 35.3561 16.7598 35.8965C16.571 36.4368 16.3594 37.0358 16.125 37.6934C15.8971 38.3444 15.6595 39.0215 15.4121 39.7246C15.1712 40.4212 14.9271 41.1243 14.6797 41.834C14.4388 42.5371 14.2077 43.2109 13.9863 43.8555C13.7715 44.5 13.5729 45.0924 13.3906 45.6328C13.2083 46.1732 13.0586 46.6289 12.9414 47H12.9219C12.8503 47.013 12.7721 47.0228 12.6875 47.0293C12.5378 47.0488 12.3359 47.0586 12.082 47.0586C11.9648 47.0586 11.8314 47.0521 11.6816 47.0391C11.5384 47.0326 11.3919 47.0195 11.2422 47L11.1836 46.9023C11.2161 46.4987 11.2487 46.0332 11.2812 45.5059C11.3203 44.9785 11.3561 44.4154 11.3887 43.8164C11.4277 43.2174 11.4635 42.5957 11.4961 41.9512C11.5352 41.3001 11.571 40.6523 11.6035 40.0078C11.6426 39.3633 11.6751 38.7285 11.7012 38.1035C11.7337 37.4785 11.763 36.8893 11.7891 36.3359C11.5026 37.2865 11.2194 38.2402 10.9395 39.1973C10.6595 40.1478 10.3861 41.0788 10.1191 41.9902C9.85872 42.9017 9.60482 43.7806 9.35742 44.627C9.11654 45.4733 8.88542 46.2643 8.66406 47C8.625 47.0065 8.57617 47.013 8.51758 47.0195C8.46549 47.026 8.40365 47.0293 8.33203 47.0293C8.25391 47.0358 8.16602 47.0391 8.06836 47.0391C7.95768 47.0391 7.84049 47.0358 7.7168 47.0293C7.5931 47.0228 7.44987 47.013 7.28711 47L7.30664 46.8633C7.33919 46.8633 7.38151 46.8372 7.43359 46.7852C7.48568 46.7266 7.53776 46.6517 7.58984 46.5605C7.76562 46.196 7.96094 45.7467 8.17578 45.2129C8.39062 44.6725 8.61523 44.0768 8.84961 43.4258C9.08398 42.7682 9.32812 42.0684 9.58203 41.3262C9.83594 40.584 10.0898 39.8255 10.3438 39.0508C10.6042 38.276 10.8613 37.498 11.1152 36.7168C11.3691 35.9355 11.6198 35.1771 11.8672 34.4414V34.2559C11.8672 34.1452 11.8346 34.0671 11.7695 34.0215V33.9043C11.9453 33.8522 12.0983 33.8099 12.2285 33.7773C12.3652 33.7383 12.502 33.709 12.6387 33.6895C12.7819 33.6634 12.9349 33.6439 13.0977 33.6309C13.2604 33.6178 13.4557 33.6081 13.6836 33.6016L13.7227 33.6602C13.6966 34.0378 13.6641 34.4837 13.625 34.998C13.5859 35.5124 13.5436 36.0723 13.498 36.6777C13.459 37.2832 13.4134 37.9212 13.3613 38.5918C13.3158 39.2624 13.2702 39.9427 13.2246 40.6328C13.1855 41.3229 13.1465 42.013 13.1074 42.7031C13.0684 43.3867 13.0358 44.0443 13.0098 44.6758C13.2181 44.1159 13.4395 43.5007 13.6738 42.8301C13.9147 42.153 14.1523 41.4629 14.3867 40.7598C14.6276 40.0501 14.8555 39.3503 15.0703 38.6602C15.2917 37.9635 15.4837 37.3223 15.6465 36.7363C15.8158 36.1439 15.9492 35.6263 16.0469 35.1836C16.151 34.7344 16.2031 34.4056 16.2031 34.1973C16.2031 34.0866 16.1706 34.0085 16.1055 33.9629V33.8359C16.2161 33.8034 16.3366 33.7741 16.4668 33.748C16.597 33.722 16.724 33.6992 16.8477 33.6797C16.9779 33.6602 17.1016 33.6439 17.2188 33.6309C17.3359 33.6178 17.4368 33.6081 17.5215 33.6016L17.5703 33.6602ZM16.3398 47.1367C16.1966 47.1367 16.0534 47.0911 15.9102 47C15.7669 46.9023 15.6367 46.7819 15.5195 46.6387C15.4023 46.4889 15.3079 46.3262 15.2363 46.1504C15.1582 45.9746 15.1191 45.8053 15.1191 45.6426C15.1191 45.4473 15.1452 45.2259 15.1973 44.9785C15.2428 44.7311 15.3047 44.474 15.3828 44.207C15.4544 43.9401 15.5358 43.6764 15.627 43.416C15.7181 43.1556 15.806 42.918 15.8906 42.7031C15.9688 42.4818 16.0404 42.293 16.1055 42.1367C16.1641 41.9805 16.2064 41.8763 16.2324 41.8242C16.3626 41.5117 16.5645 41.209 16.8379 40.916C17.1178 40.623 17.4206 40.3626 17.7461 40.1348C18.0781 39.9069 18.4102 39.7246 18.7422 39.5879C19.0807 39.4512 19.377 39.3828 19.6309 39.3828C19.8392 39.3828 20.0085 39.4967 20.1387 39.7246C20.2689 39.9525 20.334 40.2389 20.334 40.584C20.334 40.7598 20.2917 40.9323 20.207 41.1016C20.1289 41.2708 20.0247 41.4303 19.8945 41.5801C19.7708 41.7298 19.6341 41.8698 19.4844 42C19.3411 42.1302 19.2044 42.2441 19.0742 42.3418L17.0332 43.9043C16.916 44.347 16.8184 44.7409 16.7402 45.0859C16.6686 45.4245 16.6328 45.6556 16.6328 45.7793C16.6328 45.9681 16.6589 46.1113 16.7109 46.209C16.763 46.3066 16.8704 46.3555 17.0332 46.3555C17.3783 46.3555 17.7363 46.1862 18.1074 45.8477C18.4785 45.5026 18.8398 44.9525 19.1914 44.1973L19.4746 44.3828C19.2988 44.793 19.0938 45.1673 18.8594 45.5059C18.6315 45.8444 18.3841 46.1341 18.1172 46.375C17.8503 46.6159 17.5638 46.8047 17.2578 46.9414C16.9583 47.0716 16.6523 47.1367 16.3398 47.1367ZM18.918 39.9395C18.7878 39.9395 18.6478 40.0404 18.498 40.2422C18.3483 40.444 18.1986 40.7077 18.0488 41.0332C17.8991 41.3522 17.7526 41.7168 17.6094 42.127C17.4661 42.5306 17.3359 42.9342 17.2188 43.3379L18.8789 42.0195C18.957 41.7396 19.0286 41.4661 19.0938 41.1992C19.1589 40.9258 19.1914 40.7207 19.1914 40.584C19.1914 40.5124 19.1849 40.4408 19.1719 40.3691C19.1654 40.291 19.1523 40.2194 19.1328 40.1543C19.1133 40.0892 19.084 40.0371 19.0449 39.998C19.0124 39.959 18.9701 39.9395 18.918 39.9395ZM23.7031 47.1367C23.6641 47.1367 23.5957 47.1139 23.498 47.0684C23.4069 47.0228 23.3125 46.9544 23.2148 46.8633C23.1172 46.7721 23.0293 46.6615 22.9512 46.5312C22.873 46.401 22.8307 46.2513 22.8242 46.082C22.8177 46.056 22.8242 46.0007 22.8438 45.916C22.8633 45.8314 22.8893 45.7272 22.9219 45.6035C22.9544 45.4733 22.9935 45.3301 23.0391 45.1738C23.0911 45.0111 23.1465 44.8385 23.2051 44.6562C22.9902 44.9297 22.7624 45.2161 22.5215 45.5156C22.2871 45.8086 22.0592 46.0788 21.8379 46.3262C21.6165 46.5671 21.4115 46.7656 21.2227 46.9219C21.0339 47.0781 20.8809 47.1562 20.7637 47.1562C20.7181 47.1562 20.6367 47.1367 20.5195 47.0977C20.4023 47.0586 20.2852 46.9967 20.168 46.9121C20.0443 46.821 19.9336 46.707 19.8359 46.5703C19.7383 46.4336 19.6862 46.2708 19.6797 46.082C19.6797 46.0169 19.722 45.8574 19.8066 45.6035C19.8848 45.3496 19.9889 45.0436 20.1191 44.6855C20.2428 44.321 20.3763 43.9303 20.5195 43.5137C20.6628 43.0905 20.7962 42.6803 20.9199 42.2832C21.0501 41.8796 21.1543 41.5085 21.2324 41.1699C21.3171 40.8314 21.3594 40.5677 21.3594 40.3789C21.3594 40.3268 21.3529 40.2812 21.3398 40.2422C21.3268 40.2031 21.3138 40.1706 21.3008 40.1445C21.2812 40.1185 21.2617 40.0957 21.2422 40.0762V39.9395C21.3854 39.8483 21.5579 39.7734 21.7598 39.7148C21.9616 39.6497 22.1569 39.6009 22.3457 39.5684C22.5605 39.5293 22.7852 39.5 23.0195 39.4805L23.0586 39.5391C23.013 39.8841 22.9349 40.2682 22.8242 40.6914C22.7135 41.1081 22.5898 41.5378 22.4531 41.9805C22.3164 42.4167 22.1732 42.8496 22.0234 43.2793C21.8802 43.709 21.7467 44.1061 21.623 44.4707C21.4993 44.8353 21.3984 45.1576 21.3203 45.4375C21.2422 45.7109 21.2031 45.9128 21.2031 46.043C21.2031 46.1341 21.2292 46.1797 21.2812 46.1797C21.3268 46.1797 21.4017 46.1341 21.5059 46.043C21.6165 45.9518 21.7402 45.8379 21.877 45.7012C22.0137 45.5579 22.1569 45.3984 22.3066 45.2227C22.4629 45.0469 22.6126 44.8743 22.7559 44.7051C22.8991 44.5293 23.0293 44.3698 23.1465 44.2266C23.2702 44.0833 23.3678 43.9694 23.4395 43.8848C23.5371 43.5462 23.638 43.2044 23.7422 42.8594C23.8464 42.5143 23.9375 42.1855 24.0156 41.873C24.1003 41.554 24.1686 41.2676 24.2207 41.0137C24.2728 40.7533 24.2988 40.5417 24.2988 40.3789C24.2988 40.3268 24.2923 40.2812 24.2793 40.2422C24.2663 40.2031 24.2533 40.1706 24.2402 40.1445C24.2207 40.1185 24.2012 40.0957 24.1816 40.0762V39.9395C24.3314 39.8483 24.5039 39.7734 24.6992 39.7148C24.901 39.6497 25.0964 39.6009 25.2852 39.5684C25.5 39.5293 25.7246 39.5 25.959 39.4805L26.0078 39.5391C25.9622 39.8841 25.8874 40.2715 25.7832 40.7012C25.6855 41.1309 25.5749 41.5736 25.4512 42.0293C25.3275 42.4785 25.2005 42.9245 25.0703 43.3672C24.9401 43.8099 24.8197 44.2233 24.709 44.6074C24.6048 44.985 24.5169 45.3171 24.4453 45.6035C24.3802 45.8835 24.3477 46.0885 24.3477 46.2188C24.3477 46.3099 24.3737 46.3555 24.4258 46.3555C24.5169 46.3555 24.6504 46.2676 24.8262 46.0918C25.002 45.916 25.2005 45.7174 25.4219 45.4961C25.5911 45.3333 25.7507 45.1283 25.9004 44.8809C26.0501 44.6335 26.1868 44.3665 26.3105 44.0801C26.4408 43.7871 26.5547 43.4844 26.6523 43.1719C26.7565 42.8594 26.8444 42.5566 26.916 42.2637C26.9876 41.9642 27.043 41.6842 27.082 41.4238C27.1211 41.1634 27.1406 40.9421 27.1406 40.7598C27.1406 40.623 27.1178 40.5352 27.0723 40.4961C27.0267 40.4505 26.9714 40.4375 26.9062 40.457C26.8411 40.4701 26.7728 40.5026 26.7012 40.5547C26.6296 40.6068 26.571 40.6556 26.5254 40.7012L26.3594 40.5156C26.4505 40.4115 26.5547 40.2943 26.6719 40.1641C26.7891 40.0339 26.9095 39.9134 27.0332 39.8027C27.1569 39.6921 27.2773 39.5977 27.3945 39.5195C27.5117 39.4414 27.6159 39.4023 27.707 39.4023C27.8112 39.4023 27.9186 39.4382 28.0293 39.5098C28.1465 39.5749 28.2539 39.6595 28.3516 39.7637C28.4492 39.8678 28.5273 39.9785 28.5859 40.0957C28.651 40.2064 28.6836 40.3073 28.6836 40.3984C28.6836 40.8932 28.612 41.3783 28.4688 41.8535C28.3255 42.3223 28.127 42.778 27.873 43.2207C27.6257 43.6634 27.3359 44.0898 27.0039 44.5C26.6784 44.9036 26.3301 45.2845 25.959 45.6426C25.7897 45.8053 25.6074 45.9746 25.4121 46.1504C25.2233 46.3262 25.028 46.4889 24.8262 46.6387C24.6309 46.7819 24.4355 46.9023 24.2402 47C24.0449 47.0911 23.8659 47.1367 23.7031 47.1367ZM32.0039 39.3242C32.1406 39.3242 32.2578 39.373 32.3555 39.4707C32.4531 39.5618 32.5312 39.6823 32.5898 39.832C32.6484 39.9818 32.681 40.1543 32.6875 40.3496C32.7005 40.5449 32.6842 40.7402 32.6387 40.9355C32.5866 41.1699 32.4824 41.362 32.3262 41.5117C32.1764 41.6549 32.0169 41.7689 31.8477 41.8535C31.6523 41.9512 31.4375 42.026 31.2031 42.0781C31.3398 41.8177 31.4245 41.5964 31.457 41.4141C31.4961 41.2318 31.5156 41.0592 31.5156 40.8965C31.5156 40.8314 31.5091 40.7663 31.4961 40.7012C31.4896 40.6296 31.4733 40.5645 31.4473 40.5059C31.4277 40.4473 31.3984 40.3984 31.3594 40.3594C31.3203 40.3203 31.2747 40.3008 31.2227 40.3008C31.1641 40.3008 31.0924 40.3236 31.0078 40.3691C30.9297 40.4082 30.8516 40.4668 30.7734 40.5449C30.7018 40.623 30.64 40.7174 30.5879 40.8281C30.5423 40.9323 30.5195 41.0495 30.5195 41.1797C30.5195 41.2318 30.5456 41.3359 30.5977 41.4922C30.6497 41.6484 30.7116 41.8405 30.7832 42.0684C30.8613 42.2897 30.9427 42.5339 31.0273 42.8008C31.1185 43.0677 31.1999 43.3346 31.2715 43.6016C31.3496 43.8685 31.4147 44.1257 31.4668 44.373C31.5189 44.6204 31.5449 44.8353 31.5449 45.0176C31.5449 45.1999 31.4863 45.3822 31.3691 45.5645C31.252 45.7402 31.1055 45.9095 30.9297 46.0723C30.7539 46.235 30.5586 46.388 30.3438 46.5312C30.1354 46.668 29.9336 46.7884 29.7383 46.8926C29.5495 46.9967 29.3835 47.0781 29.2402 47.1367C29.1035 47.1953 29.0156 47.2246 28.9766 47.2246C28.918 47.2246 28.8398 47.2148 28.7422 47.1953C28.6445 47.1823 28.5632 47.1562 28.498 47.1172C28.4264 47.0781 28.3516 47.0098 28.2734 46.9121C28.1953 46.8145 28.1204 46.7005 28.0488 46.5703C27.9707 46.4401 27.9023 46.3001 27.8438 46.1504C27.7786 46.0007 27.7298 45.8574 27.6973 45.7207L28.8984 44.6367C28.9505 44.9492 29.0189 45.2259 29.1035 45.4668C29.1426 45.571 29.1849 45.6751 29.2305 45.7793C29.276 45.877 29.3281 45.9648 29.3867 46.043C29.4453 46.1211 29.5104 46.1829 29.582 46.2285C29.6536 46.2741 29.7318 46.2969 29.8164 46.2969C29.9466 46.2969 30.0443 46.2415 30.1094 46.1309C30.181 46.0137 30.2168 45.8704 30.2168 45.7012C30.2168 45.6491 30.1908 45.5319 30.1387 45.3496C30.0931 45.1608 30.0312 44.9427 29.9531 44.6953C29.875 44.4479 29.7936 44.1842 29.709 43.9043C29.6243 43.6178 29.543 43.3542 29.4648 43.1133C29.3867 42.8659 29.3216 42.6543 29.2695 42.4785C29.224 42.3027 29.2012 42.1953 29.2012 42.1562C29.2012 42.0456 29.2207 41.9056 29.2598 41.7363C29.3053 41.5671 29.3737 41.4206 29.4648 41.2969C29.4974 41.2513 29.5723 41.1699 29.6895 41.0527C29.8066 40.9355 29.9434 40.8053 30.0996 40.6621C30.2624 40.5124 30.4349 40.3594 30.6172 40.2031C30.7995 40.0469 30.9785 39.9036 31.1543 39.7734C31.3366 39.6432 31.4993 39.5358 31.6426 39.4512C31.7923 39.3665 31.9128 39.3242 32.0039 39.3242ZM35.1875 47L35.1191 46.9023C35.1842 46.7917 35.2656 46.6094 35.3633 46.3555C35.4609 46.1016 35.5814 45.7891 35.7246 45.418C35.8548 45.0534 36.0013 44.6465 36.1641 44.1973C36.3268 43.7415 36.4961 43.2598 36.6719 42.752C36.8477 42.2441 37.0267 41.7233 37.209 41.1895C37.3913 40.6491 37.5703 40.1152 37.7461 39.5879C37.9219 39.054 38.0911 38.5397 38.2539 38.0449C38.4167 37.5436 38.5664 37.0749 38.7031 36.6387C38.1888 37.6217 37.6322 38.5983 37.0332 39.5684C36.4408 40.5384 35.8385 41.4694 35.2266 42.3613C34.6146 43.2533 34.0124 44.0964 33.4199 44.8906C32.834 45.6784 32.2871 46.3815 31.7793 47C31.7207 47.0065 31.6556 47.013 31.584 47.0195C31.5189 47.026 31.4408 47.0293 31.3496 47.0293C31.252 47.0358 31.1445 47.0391 31.0273 47.0391C30.9036 47.0391 30.7767 47.0358 30.6465 47.0293C30.5098 47.0228 30.3633 47.013 30.207 47L30.2266 46.8633C30.2591 46.8633 30.3145 46.8438 30.3926 46.8047C30.4642 46.7656 30.5358 46.7103 30.6074 46.6387C31.4082 45.8184 32.2155 44.9232 33.0293 43.9531C33.8431 42.9831 34.6276 41.9772 35.3828 40.9355C36.1445 39.8939 36.8607 38.8392 37.5312 37.7715C38.2018 36.6973 38.7975 35.6458 39.3184 34.6172L39.4062 34.2559C39.4062 34.1647 39.3867 34.0996 39.3477 34.0605C39.1719 34.0736 38.9863 34.0866 38.791 34.0996C38.5957 34.1061 38.4069 34.1191 38.2246 34.1387C38.0423 34.1582 37.8698 34.181 37.707 34.207C37.5508 34.2331 37.4238 34.2656 37.3262 34.3047C37.2415 34.3372 37.1504 34.3926 37.0527 34.4707C36.9551 34.5423 36.8639 34.6335 36.7793 34.7441C36.6947 34.8548 36.623 34.9785 36.5645 35.1152C36.5124 35.2454 36.4863 35.3789 36.4863 35.5156C36.4863 35.6003 36.4928 35.7077 36.5059 35.8379C36.5189 35.9616 36.5449 36.0885 36.584 36.2188L36.4668 36.3359C36.1348 36.0951 35.8711 35.8444 35.6758 35.584C35.4805 35.3171 35.3828 35.0697 35.3828 34.8418C35.3828 34.7116 35.4251 34.5684 35.5098 34.4121C35.6009 34.2559 35.7116 34.1126 35.8418 33.9824C35.972 33.8457 36.112 33.7318 36.2617 33.6406C36.4115 33.5495 36.5449 33.5039 36.6621 33.5039C36.8639 33.5039 37.1081 33.5104 37.3945 33.5234C37.6875 33.5299 37.9935 33.5397 38.3125 33.5527C38.638 33.5658 38.9635 33.5788 39.2891 33.5918C39.6146 33.5983 39.9141 33.6016 40.1875 33.6016C40.3047 33.6016 40.4089 33.6016 40.5 33.6016C40.5911 33.6016 40.6758 33.6016 40.7539 33.6016C40.8385 33.5951 40.9232 33.5918 41.0078 33.5918C41.099 33.5853 41.2031 33.5755 41.3203 33.5625L41.3789 33.6602C41.3268 33.8099 41.2422 34.0508 41.125 34.3828C41.0143 34.7083 40.8809 35.099 40.7246 35.5547C40.5749 36.0039 40.4056 36.5085 40.2168 37.0684C40.028 37.6217 39.8294 38.2044 39.6211 38.8164C39.4193 39.4219 39.2109 40.0436 38.9961 40.6816C38.7878 41.3132 38.5827 41.9316 38.3809 42.5371C39.3314 41.248 40.2396 39.9069 41.1055 38.5137C41.9714 37.1139 42.7721 35.6947 43.5078 34.2559C43.5078 34.1452 43.472 34.0671 43.4004 34.0215V33.9043C43.5762 33.8522 43.7389 33.8099 43.8887 33.7773C44.0384 33.7383 44.1882 33.709 44.3379 33.6895C44.4941 33.6634 44.6602 33.6439 44.8359 33.6309C45.0117 33.6178 45.2135 33.6081 45.4414 33.6016L45.4805 33.6602C45.4154 33.8294 45.3145 34.1094 45.1777 34.5C45.0475 34.8906 44.8913 35.3561 44.709 35.8965C44.5267 36.4368 44.3249 37.0358 44.1035 37.6934C43.8887 38.3444 43.6641 39.0215 43.4297 39.7246C43.1953 40.4212 42.9609 41.1243 42.7266 41.834C42.4987 42.5371 42.2773 43.2109 42.0625 43.8555C41.8542 44.5 41.6621 45.0924 41.4863 45.6328C41.3105 46.1732 41.1641 46.6289 41.0469 47C40.9688 47.013 40.8841 47.0228 40.793 47.0293C40.6237 47.0488 40.4056 47.0586 40.1387 47.0586C40.0085 47.0586 39.8685 47.0521 39.7188 47.0391C39.5755 47.0326 39.429 47.0195 39.2793 47L39.2207 46.9023C39.2988 46.7591 39.4193 46.4694 39.582 46.0332C39.7513 45.597 39.9434 45.0729 40.1582 44.4609C40.3796 43.849 40.6172 43.1784 40.8711 42.4492C41.125 41.7135 41.3789 40.9714 41.6328 40.2227C41.8867 39.474 42.1276 38.748 42.3555 38.0449C42.5833 37.3353 42.7852 36.7005 42.9609 36.1406C42.5898 36.8763 42.1927 37.612 41.7695 38.3477C41.3529 39.0768 40.9199 39.7962 40.4707 40.5059C40.0215 41.209 39.5658 41.8926 39.1035 42.5566C38.6478 43.2207 38.2018 43.849 37.7656 44.4414C37.4141 44.9232 37.069 45.3789 36.7305 45.8086C36.3984 46.2318 36.0827 46.6289 35.7832 47H35.1875ZM44.123 41.9219C44.2793 41.5443 44.4714 41.2057 44.6992 40.9062C44.9271 40.6003 45.1777 40.3431 45.4512 40.1348C45.7246 39.9199 46.0143 39.7572 46.3203 39.6465C46.6263 39.5358 46.9355 39.4805 47.248 39.4805C47.3848 39.4805 47.5345 39.5195 47.6973 39.5977C47.8665 39.6693 48.0228 39.7702 48.166 39.9004C48.3092 40.0306 48.4264 40.1901 48.5176 40.3789C48.6152 40.5612 48.6641 40.763 48.6641 40.9844C48.6641 41.1732 48.6413 41.3913 48.5957 41.6387C48.5501 41.8796 48.4915 42.1302 48.4199 42.3906C48.3483 42.6445 48.2702 42.8984 48.1855 43.1523C48.1009 43.4062 48.0195 43.6406 47.9414 43.8555C47.8633 44.0638 47.7917 44.2428 47.7266 44.3926C47.668 44.5423 47.6257 44.6432 47.5996 44.6953C47.4434 45.0794 47.2513 45.4212 47.0234 45.7207C46.7956 46.0202 46.5449 46.2773 46.2715 46.4922C45.998 46.7005 45.7083 46.86 45.4023 46.9707C45.1029 47.0814 44.7969 47.1367 44.4844 47.1367C44.3477 47.1367 44.1979 47.1009 44.0352 47.0293C43.8659 46.9577 43.7096 46.8568 43.5664 46.7266C43.4232 46.5898 43.306 46.4303 43.2148 46.248C43.1172 46.0658 43.0684 45.8639 43.0684 45.6426C43.0684 45.4473 43.0911 45.2292 43.1367 44.9883C43.1823 44.7409 43.2409 44.4902 43.3125 44.2363C43.3841 43.9759 43.4622 43.7188 43.5469 43.4648C43.6315 43.2109 43.7129 42.9798 43.791 42.7715C43.8691 42.5632 43.9375 42.3841 43.9961 42.2344C44.0547 42.0781 44.097 41.974 44.123 41.9219ZM46.8281 40.0176C46.6784 40.0176 46.5156 40.151 46.3398 40.418C46.1706 40.6784 45.998 41.0137 45.8223 41.4238C45.653 41.834 45.487 42.2832 45.3242 42.7715C45.168 43.2533 45.028 43.7188 44.9043 44.168C44.7871 44.6172 44.6895 45.0143 44.6113 45.3594C44.5397 45.6979 44.5039 45.9258 44.5039 46.043C44.5039 46.2318 44.5397 46.3685 44.6113 46.4531C44.6829 46.5378 44.7806 46.5801 44.9043 46.5801C45.015 46.5801 45.1322 46.5052 45.2559 46.3555C45.3796 46.1992 45.5065 45.9941 45.6367 45.7402C45.7669 45.4863 45.8939 45.1934 46.0176 44.8613C46.1478 44.5293 46.2715 44.1875 46.3887 43.8359C46.5059 43.4779 46.6133 43.123 46.7109 42.7715C46.8151 42.4199 46.903 42.0944 46.9746 41.7949C47.0527 41.4954 47.1113 41.2383 47.1504 41.0234C47.196 40.8021 47.2188 40.6491 47.2188 40.5645C47.2188 40.3757 47.1829 40.2389 47.1113 40.1543C47.0397 40.0632 46.9453 40.0176 46.8281 40.0176ZM49.6699 47C49.5983 47.013 49.5202 47.0228 49.4355 47.0293C49.2858 47.0488 49.0905 47.0586 48.8496 47.0586C48.7389 47.0586 48.6217 47.0521 48.498 47.0391C48.3743 47.0326 48.2539 47.0195 48.1367 47L48.0684 46.9023C48.1009 46.8372 48.1595 46.7038 48.2441 46.502C48.3223 46.3001 48.4167 46.056 48.5273 45.7695C48.6315 45.4831 48.7487 45.1641 48.8789 44.8125C49.0026 44.4609 49.1263 44.1029 49.25 43.7383C49.3737 43.3737 49.4941 43.0156 49.6113 42.6641C49.7285 42.3125 49.8294 41.9902 49.9141 41.6973C50.0052 41.4043 50.0768 41.1569 50.1289 40.9551C50.1875 40.7467 50.2168 40.6068 50.2168 40.5352C50.2168 40.4635 50.207 40.4082 50.1875 40.3691C50.1745 40.3301 50.1615 40.2943 50.1484 40.2617C50.1289 40.2357 50.1094 40.2096 50.0898 40.1836V40.0371C50.2396 39.946 50.4154 39.8646 50.6172 39.793C50.819 39.7214 51.0143 39.6628 51.2031 39.6172C51.418 39.5651 51.6426 39.5195 51.877 39.4805L51.916 39.5391C51.916 39.6172 51.8997 39.7441 51.8672 39.9199C51.8346 40.0957 51.7956 40.2845 51.75 40.4863C51.7044 40.6882 51.6556 40.8867 51.6035 41.082C51.5579 41.2708 51.5221 41.4238 51.4961 41.541C51.6979 41.2871 51.903 41.0332 52.1113 40.7793C52.3197 40.5189 52.5182 40.2878 52.707 40.0859C52.9023 39.8841 53.0814 39.7214 53.2441 39.5977C53.4069 39.4674 53.5436 39.4023 53.6543 39.4023C53.6999 39.4023 53.778 39.4251 53.8887 39.4707C54.0059 39.5098 54.1263 39.5749 54.25 39.666C54.3737 39.7507 54.4811 39.8613 54.5723 39.998C54.6699 40.1283 54.722 40.2878 54.7285 40.4766C54.7285 40.5417 54.6829 40.6914 54.5918 40.9258C54.5007 41.1602 54.3867 41.4401 54.25 41.7656C54.1198 42.0911 53.9766 42.446 53.8203 42.8301C53.6641 43.2142 53.5176 43.5918 53.3809 43.9629C53.2507 44.334 53.14 44.679 53.0488 44.998C52.9577 45.3171 52.9121 45.5775 52.9121 45.7793C52.9121 45.8574 52.9186 45.916 52.9316 45.9551C52.9512 45.9876 52.9902 46.0039 53.0488 46.0039C53.1204 45.9974 53.2279 45.9616 53.3711 45.8965C53.5143 45.8249 53.6803 45.7207 53.8691 45.584C54.0579 45.4473 54.2598 45.2812 54.4746 45.0859C54.696 44.8841 54.9141 44.6497 55.1289 44.3828L55.3535 44.5781C55.0801 44.9232 54.7708 45.252 54.4258 45.5645C54.0872 45.8704 53.752 46.1406 53.4199 46.375C53.0879 46.6094 52.7754 46.7949 52.4824 46.9316C52.1895 47.0684 51.9518 47.1367 51.7695 47.1367C51.737 47.1367 51.6947 47.1237 51.6426 47.0977C51.5905 47.0716 51.5384 47.0293 51.4863 46.9707C51.4342 46.9121 51.3887 46.8307 51.3496 46.7266C51.3105 46.6224 51.291 46.4922 51.291 46.3359C51.291 46.2578 51.3008 46.1602 51.3203 46.043C51.3398 45.9193 51.3626 45.7956 51.3887 45.6719C51.4147 45.5417 51.4408 45.4245 51.4668 45.3203C51.4993 45.2096 51.5221 45.1283 51.5352 45.0762C51.5938 44.8483 51.6751 44.5944 51.7793 44.3145C51.89 44.028 52.0072 43.7318 52.1309 43.4258C52.2546 43.1198 52.3815 42.8171 52.5117 42.5176C52.6419 42.2116 52.7591 41.9284 52.8633 41.668C52.9674 41.401 53.0521 41.1699 53.1172 40.9746C53.1823 40.7728 53.2148 40.6198 53.2148 40.5156C53.2148 40.4245 53.1888 40.3789 53.1367 40.3789C53.0716 40.3789 52.9577 40.4505 52.7949 40.5938C52.6387 40.737 52.4629 40.916 52.2676 41.1309C52.0788 41.3392 51.8867 41.5605 51.6914 41.7949C51.4961 42.0228 51.3301 42.2246 51.1934 42.4004C51.0566 42.7975 50.9134 43.2077 50.7637 43.6309C50.6139 44.0475 50.4707 44.4609 50.334 44.8711C50.1973 45.2747 50.0703 45.6589 49.9531 46.0234C49.8424 46.388 49.748 46.7135 49.6699 47ZM58.1855 34.9004C58.1855 34.7572 58.1465 34.6595 58.0684 34.6074C57.9967 34.5488 57.9056 34.5228 57.7949 34.5293C57.6842 34.5358 57.5638 34.5618 57.4336 34.6074C57.3034 34.6465 57.1829 34.6921 57.0723 34.7441L56.9453 34.4805C57.6094 34.1549 58.1497 33.9271 58.5664 33.7969C58.9896 33.6667 59.2826 33.6016 59.4453 33.6016C59.4909 33.6016 59.543 33.6211 59.6016 33.6602C59.6602 33.6927 59.7155 33.7415 59.7676 33.8066C59.8262 33.8717 59.8717 33.9466 59.9043 34.0312C59.9434 34.1094 59.9629 34.1908 59.9629 34.2754C59.9629 34.3275 59.888 34.5423 59.7383 34.9199C59.5951 35.2975 59.4193 35.7988 59.2109 36.4238C59.0286 36.9967 58.8561 37.5339 58.6934 38.0352C58.5306 38.5365 58.3711 39.015 58.2148 39.4707C58.0651 39.9264 57.9154 40.3691 57.7656 40.7988C57.6159 41.222 57.4694 41.6419 57.3262 42.0586C57.5931 41.707 57.86 41.3717 58.127 41.0527C58.3939 40.7272 58.651 40.444 58.8984 40.2031C59.1523 39.9557 59.3867 39.7604 59.6016 39.6172C59.8164 39.474 60.0052 39.4023 60.168 39.4023C60.2656 39.4023 60.3698 39.4349 60.4805 39.5C60.5977 39.5586 60.7018 39.6367 60.793 39.7344C60.8906 39.8255 60.9688 39.9297 61.0273 40.0469C61.0924 40.1576 61.125 40.2617 61.125 40.3594C61.125 40.4505 61.0859 40.584 61.0078 40.7598C60.9297 40.9355 60.806 41.1341 60.6367 41.3555C60.4674 41.5703 60.2493 41.8014 59.9824 42.0488C59.722 42.2962 59.4095 42.5339 59.0449 42.7617C58.9993 43.0221 58.9635 43.2728 58.9375 43.5137C58.9115 43.748 58.8919 43.9857 58.8789 44.2266C58.8724 44.4609 58.8724 44.7018 58.8789 44.9492C58.8854 45.1901 58.9017 45.4473 58.9277 45.7207C58.9408 45.7988 58.9538 45.8672 58.9668 45.9258C58.9863 45.9779 59.0254 46.0039 59.084 46.0039C59.1556 45.9974 59.263 45.9616 59.4062 45.8965C59.5495 45.8249 59.7155 45.7207 59.9043 45.584C60.0931 45.4473 60.2949 45.2812 60.5098 45.0859C60.7311 44.8841 60.9492 44.6497 61.1641 44.3828L61.3887 44.5781C61.1152 44.9232 60.8158 45.252 60.4902 45.5645C60.1712 45.8704 59.8555 46.1406 59.543 46.375C59.2305 46.6094 58.9375 46.7949 58.6641 46.9316C58.3906 47.0684 58.166 47.1367 57.9902 47.1367C57.9577 47.1367 57.9121 47.1204 57.8535 47.0879C57.8014 47.0553 57.7461 47.0065 57.6875 46.9414C57.6289 46.8698 57.5768 46.7852 57.5312 46.6875C57.4857 46.5833 57.4564 46.4661 57.4434 46.3359C57.3913 45.724 57.375 45.1641 57.3945 44.6562C57.4141 44.1419 57.4792 43.6439 57.5898 43.1621C57.7266 43.097 57.8633 43.0221 58 42.9375C58.1432 42.8464 58.2702 42.7617 58.3809 42.6836C58.5111 42.5924 58.6348 42.498 58.752 42.4004C59.0905 41.9902 59.3281 41.6419 59.4648 41.3555C59.6016 41.069 59.6699 40.8509 59.6699 40.7012C59.6699 40.6751 59.6634 40.6426 59.6504 40.6035C59.6374 40.5645 59.6178 40.5254 59.5918 40.4863C59.5723 40.4473 59.5495 40.4147 59.5234 40.3887C59.5039 40.3561 59.4844 40.3398 59.4648 40.3398C59.4193 40.3398 59.3184 40.4082 59.1621 40.5449C59.0059 40.6816 58.8105 40.8737 58.5762 41.1211C58.3483 41.362 58.0944 41.6484 57.8145 41.9805C57.541 42.3125 57.2643 42.6738 56.9844 43.0645C56.7956 43.6569 56.597 44.2689 56.3887 44.9004C56.1868 45.5319 55.972 46.2318 55.7441 47C55.6725 47.013 55.5944 47.0228 55.5098 47.0293C55.36 47.0488 55.1647 47.0586 54.9238 47.0586C54.8132 47.0586 54.696 47.0521 54.5723 47.0391C54.4486 47.0326 54.3281 47.0195 54.2109 47L54.1426 46.9023C54.1751 46.8372 54.2598 46.6257 54.3965 46.2676C54.5332 45.903 54.6992 45.444 54.8945 44.8906C55.0898 44.3372 55.3079 43.7155 55.5488 43.0254C55.7832 42.3353 56.0208 41.6322 56.2617 40.916C56.5091 40.1999 56.7467 39.4967 56.9746 38.8066C57.209 38.1165 57.4141 37.4948 57.5898 36.9414C57.7721 36.3815 57.9154 35.9193 58.0195 35.5547C58.1302 35.1901 58.1855 34.972 58.1855 34.9004ZM61.8477 47.1367C61.7044 47.1367 61.5612 47.0911 61.418 47C61.2747 46.9023 61.1445 46.7819 61.0273 46.6387C60.9102 46.4889 60.8158 46.3262 60.7441 46.1504C60.666 45.9746 60.627 45.8053 60.627 45.6426C60.627 45.4473 60.653 45.2259 60.7051 44.9785C60.7507 44.7311 60.8125 44.474 60.8906 44.207C60.9622 43.9401 61.0436 43.6764 61.1348 43.416C61.2259 43.1556 61.3138 42.918 61.3984 42.7031C61.4766 42.4818 61.5482 42.293 61.6133 42.1367C61.6719 41.9805 61.7142 41.8763 61.7402 41.8242C61.8704 41.5117 62.0723 41.209 62.3457 40.916C62.6257 40.623 62.9284 40.3626 63.2539 40.1348C63.5859 39.9069 63.918 39.7246 64.25 39.5879C64.5885 39.4512 64.8848 39.3828 65.1387 39.3828C65.347 39.3828 65.5163 39.4967 65.6465 39.7246C65.7767 39.9525 65.8418 40.2389 65.8418 40.584C65.8418 40.7598 65.7995 40.9323 65.7148 41.1016C65.6367 41.2708 65.5326 41.4303 65.4023 41.5801C65.2786 41.7298 65.1419 41.8698 64.9922 42C64.849 42.1302 64.7122 42.2441 64.582 42.3418L62.541 43.9043C62.4238 44.347 62.3262 44.7409 62.248 45.0859C62.1764 45.4245 62.1406 45.6556 62.1406 45.7793C62.1406 45.9681 62.1667 46.1113 62.2188 46.209C62.2708 46.3066 62.3783 46.3555 62.541 46.3555C62.8861 46.3555 63.2441 46.1862 63.6152 45.8477C63.9863 45.5026 64.3477 44.9525 64.6992 44.1973L64.9824 44.3828C64.8066 44.793 64.6016 45.1673 64.3672 45.5059C64.1393 45.8444 63.8919 46.1341 63.625 46.375C63.3581 46.6159 63.0716 46.8047 62.7656 46.9414C62.4661 47.0716 62.1602 47.1367 61.8477 47.1367ZM64.4258 39.9395C64.2956 39.9395 64.1556 40.0404 64.0059 40.2422C63.8561 40.444 63.7064 40.7077 63.5566 41.0332C63.4069 41.3522 63.2604 41.7168 63.1172 42.127C62.974 42.5306 62.8438 42.9342 62.7266 43.3379L64.3867 42.0195C64.4648 41.7396 64.5365 41.4661 64.6016 41.1992C64.6667 40.9258 64.6992 40.7207 64.6992 40.584C64.6992 40.5124 64.6927 40.4408 64.6797 40.3691C64.6732 40.291 64.6602 40.2194 64.6406 40.1543C64.6211 40.0892 64.5918 40.0371 64.5527 39.998C64.5202 39.959 64.4779 39.9395 64.4258 39.9395ZM68.8301 49.0605C68.7715 49.2884 68.6543 49.5033 68.4785 49.7051C68.3027 49.9069 68.1009 50.0892 67.873 50.252C67.6452 50.4212 67.4043 50.571 67.1504 50.7012C66.8965 50.8379 66.6589 50.9486 66.4375 51.0332C66.2161 51.1243 66.0273 51.1927 65.8711 51.2383C65.7083 51.2904 65.6074 51.3164 65.5684 51.3164C65.5098 51.3164 65.4316 51.3099 65.334 51.2969C65.2298 51.2839 65.1484 51.2578 65.0898 51.2188C65.0182 51.1797 64.9336 51.1048 64.8359 50.9941C64.7383 50.89 64.6406 50.7663 64.543 50.623C64.4453 50.4798 64.3574 50.3268 64.2793 50.1641C64.1947 50.0078 64.1393 49.8613 64.1133 49.7246L65.2949 48.7383C65.4186 49.0508 65.5521 49.3275 65.6953 49.5684C65.7539 49.6725 65.819 49.7734 65.8906 49.8711C65.9622 49.9753 66.0371 50.0664 66.1152 50.1445C66.1934 50.2227 66.2747 50.2845 66.3594 50.3301C66.444 50.3757 66.5286 50.3984 66.6133 50.3984C66.6784 50.3984 66.737 50.3724 66.7891 50.3203C66.8477 50.2682 66.8997 50.1999 66.9453 50.1152C66.9974 50.0371 67.0462 49.9427 67.0918 49.832C67.1374 49.7279 67.1829 49.6172 67.2285 49.5C67.3717 49.1159 67.5052 48.7285 67.6289 48.3379C67.7526 47.9538 67.8698 47.5632 67.9805 47.166C68.0977 46.7689 68.2116 46.3652 68.3223 45.9551C68.4395 45.5449 68.5566 45.125 68.6738 44.6953C68.4655 44.9688 68.2441 45.252 68.0098 45.5449C67.7819 45.8314 67.5573 46.0951 67.3359 46.3359C67.1211 46.5703 66.9193 46.7656 66.7305 46.9219C66.5417 47.0781 66.3887 47.1562 66.2715 47.1562C66.2259 47.1562 66.1445 47.1367 66.0273 47.0977C65.9102 47.0586 65.793 46.9967 65.6758 46.9121C65.5521 46.821 65.4414 46.707 65.3438 46.5703C65.2461 46.4336 65.194 46.2708 65.1875 46.082C65.1875 46.0169 65.2298 45.8574 65.3145 45.6035C65.3926 45.3496 65.4967 45.0436 65.627 44.6855C65.7507 44.321 65.8841 43.9303 66.0273 43.5137C66.1706 43.0905 66.304 42.6803 66.4277 42.2832C66.5579 41.8796 66.6621 41.5085 66.7402 41.1699C66.8249 40.8314 66.8672 40.5677 66.8672 40.3789C66.8672 40.3268 66.8607 40.2812 66.8477 40.2422C66.8346 40.2031 66.8216 40.1706 66.8086 40.1445C66.7891 40.1185 66.7695 40.0957 66.75 40.0762V39.9395C66.8932 39.8483 67.0658 39.7734 67.2676 39.7148C67.4694 39.6497 67.6647 39.6009 67.8535 39.5684C68.0684 39.5293 68.293 39.5 68.5273 39.4805L68.5664 39.5391C68.5208 39.8841 68.4427 40.2682 68.332 40.6914C68.2214 41.1081 68.0977 41.5378 67.9609 41.9805C67.8242 42.4167 67.681 42.8496 67.5312 43.2793C67.388 43.709 67.2546 44.1061 67.1309 44.4707C67.0072 44.8353 66.9062 45.1576 66.8281 45.4375C66.75 45.7109 66.7109 45.9128 66.7109 46.043C66.7109 46.1341 66.737 46.1797 66.7891 46.1797C66.8411 46.1797 66.9225 46.1341 67.0332 46.043C67.1439 45.9453 67.2708 45.8216 67.4141 45.6719C67.5573 45.5221 67.707 45.3561 67.8633 45.1738C68.026 44.9915 68.179 44.8158 68.3223 44.6465C68.472 44.4707 68.6055 44.3112 68.7227 44.168C68.8398 44.0182 68.9277 43.9076 68.9863 43.8359C69.0775 43.5495 69.1751 43.2402 69.2793 42.9082C69.3835 42.5697 69.4811 42.2441 69.5723 41.9316C69.6699 41.6191 69.7513 41.3294 69.8164 41.0625C69.888 40.7956 69.9336 40.5872 69.9531 40.4375C69.9661 40.3659 69.9661 40.3105 69.9531 40.2715C69.9401 40.2259 69.9238 40.1868 69.9043 40.1543C69.8783 40.1217 69.8522 40.0957 69.8262 40.0762V39.9395C69.9759 39.8483 70.1517 39.7734 70.3535 39.7148C70.5553 39.6497 70.7507 39.6009 70.9395 39.5684C71.1543 39.5293 71.3789 39.5 71.6133 39.4805L71.6523 39.5391C71.6068 39.6888 71.5319 39.9264 71.4277 40.252C71.3236 40.571 71.2031 40.9388 71.0664 41.3555C70.9362 41.7656 70.7962 42.2018 70.6465 42.6641C70.5033 43.1198 70.3633 43.5592 70.2266 43.9824C70.0964 44.3991 69.9792 44.7799 69.875 45.125C69.7773 45.4635 69.709 45.7207 69.6699 45.8965L68.8301 49.0605Z" fill="white"/>
</g>
<defs>
<clipPath id="clip0_129_211">
<rect width="81" height="80" fill="white"/>
</clipPath>
</defs>
</svg>
