<svg width="90" height="122" viewBox="0 0 90 122" fill="none" xmlns="http://www.w3.org/2000/svg">
<path d="M45 85C39.7471 85 34.5457 83.9654 29.6927 81.9552C24.8396 79.945 20.4301 76.9986 16.7157 73.2843C13.0014 69.5699 10.055 65.1604 8.04482 60.3073C6.03463 55.4543 5 50.2529 5 45C5 39.7471 6.03463 34.5457 8.04482 29.6927C10.055 24.8396 13.0014 20.4301 16.7157 16.7157C20.4301 13.0014 24.8396 10.055 29.6927 8.04482C34.5457 6.03463 39.7471 5 45 5C50.2529 5 55.4543 6.03463 60.3073 8.04482C65.1604 10.055 69.5699 13.0014 73.2843 16.7157C76.9986 20.4301 79.945 24.8396 81.9552 29.6927C83.9654 34.5457 85 39.7471 85 45C85 50.2529 83.9654 55.4543 81.9552 60.3073C79.945 65.1604 76.9986 69.5699 73.2843 73.2843C69.5699 76.9986 65.1604 79.945 60.3073 81.9552C55.4543 83.9654 50.2529 85 45 85L45 85Z" stroke="#cdcdcd" stroke-width="10"/>
<path d="M85 45C85 52.9112 82.654 60.6448 78.2588 67.2228C73.8635 73.8008 67.6164 78.9277 60.3074 81.9552C52.9983 84.9827 44.9557 85.7748 37.1964 84.2314C29.4372 82.688 22.3099 78.8784 16.7158 73.2843C11.1217 67.6902 7.31202 60.5629 5.7686 52.8037C4.22518 45.0445 5.0173 37.0018 8.04479 29.6927C11.0723 22.3837 16.1992 16.1365 22.7771 11.7413C29.3551 7.346 37.0886 5.00002 44.9999 5" stroke="url(#paint0_linear_8_1095)" stroke-width="10" stroke-linecap="round"/>
<path d="M21.832 51.144C21.4693 51.144 21.176 51.064 20.952 50.904C20.728 50.7333 20.6 50.5093 20.568 50.232C20.536 49.9547 20.6107 49.6507 20.792 49.32L25.224 41.272V42.12H20.728C20.3333 42.12 20.024 42.0187 19.8 41.816C19.5867 41.6133 19.48 41.3147 19.48 40.92C19.48 40.5253 19.5867 40.2267 19.8 40.024C20.024 39.8213 20.3333 39.72 20.728 39.72H26.744C27.1387 39.72 27.464 39.8267 27.72 40.04C27.9867 40.2533 28.12 40.5573 28.12 40.952C28.12 41.2933 28.0667 41.592 27.96 41.848C27.864 42.0933 27.7413 42.3547 27.592 42.632L23.496 50.216C23.3253 50.5467 23.1067 50.7867 22.84 50.936C22.584 51.0747 22.248 51.144 21.832 51.144ZM33.3138 51.176C32.8018 51.176 32.2631 51.1173 31.6978 51C31.1324 50.8827 30.6098 50.7013 30.1298 50.456C29.8418 50.3067 29.6391 50.1147 29.5218 49.88C29.4151 49.6347 29.3778 49.3893 29.4098 49.144C29.4524 48.8987 29.5484 48.68 29.6978 48.488C29.8578 48.296 30.0551 48.1733 30.2898 48.12C30.5351 48.056 30.8018 48.0987 31.0898 48.248C31.4418 48.4187 31.8044 48.5467 32.1778 48.632C32.5618 48.7173 32.9191 48.76 33.2498 48.76C33.6124 48.76 33.9218 48.7067 34.1778 48.6C34.4338 48.4933 34.6258 48.3387 34.7538 48.136C34.8924 47.9333 34.9618 47.6933 34.9618 47.416C34.9618 46.9893 34.8178 46.6533 34.5298 46.408C34.2418 46.1627 33.8578 46.04 33.3778 46.04C33.1644 46.04 32.9298 46.072 32.6738 46.136C32.4284 46.2 32.1724 46.3227 31.9058 46.504C31.7884 46.568 31.6284 46.6427 31.4258 46.728C31.2231 46.8027 31.0151 46.84 30.8018 46.84C30.4178 46.84 30.1351 46.7493 29.9538 46.568C29.7724 46.3867 29.6818 46.1307 29.6818 45.8V40.968C29.6818 40.5627 29.7884 40.2533 30.0018 40.04C30.2258 39.8267 30.5351 39.72 30.9298 39.72H35.9538C36.3484 39.72 36.6524 39.8213 36.8658 40.024C37.0791 40.2267 37.1858 40.5253 37.1858 40.92C37.1858 41.304 37.0791 41.5973 36.8658 41.8C36.6524 42.0027 36.3484 42.104 35.9538 42.104H32.4498V44.616H31.7778C32.0338 44.3173 32.3698 44.0933 32.7858 43.944C33.2018 43.784 33.6551 43.704 34.1458 43.704C34.8604 43.704 35.4898 43.8587 36.0338 44.168C36.5778 44.4667 36.9991 44.888 37.2978 45.432C37.6071 45.976 37.7618 46.6107 37.7618 47.336C37.7618 48.104 37.5804 48.7813 37.2178 49.368C36.8658 49.944 36.3538 50.392 35.6818 50.712C35.0204 51.0213 34.2311 51.176 33.3138 51.176ZM40.3635 51.096C39.8835 51.096 39.4995 50.952 39.2115 50.664C38.9342 50.376 38.7955 49.9973 38.7955 49.528C38.7955 49.0693 38.9342 48.7013 39.2115 48.424C39.4995 48.136 39.8835 47.992 40.3635 47.992C40.8648 47.992 41.2488 48.136 41.5155 48.424C41.7928 48.7013 41.9315 49.0693 41.9315 49.528C41.9315 49.9973 41.7928 50.376 41.5155 50.664C41.2488 50.952 40.8648 51.096 40.3635 51.096ZM45.0589 51C44.6642 51 44.3602 50.8987 44.1469 50.696C43.9442 50.4827 43.8429 50.184 43.8429 49.8C43.8429 49.416 43.9442 49.1227 44.1469 48.92C44.3602 48.7173 44.6642 48.616 45.0589 48.616H46.4989V42.072H47.8429L45.5229 43.496C45.2455 43.6667 44.9842 43.736 44.7389 43.704C44.4935 43.6613 44.2855 43.5547 44.1149 43.384C43.9442 43.2133 43.8322 43.0053 43.7789 42.76C43.7255 42.5147 43.7469 42.2693 43.8429 42.024C43.9389 41.7787 44.1309 41.5707 44.4189 41.4L46.6269 40.024C46.8615 39.8747 47.1015 39.7627 47.3469 39.688C47.6029 39.6133 47.8695 39.576 48.1469 39.576C48.5522 39.576 48.8669 39.6827 49.0909 39.896C49.3149 40.0987 49.4269 40.3973 49.4269 40.792V48.616H50.7069C51.1015 48.616 51.4002 48.7173 51.6029 48.92C51.8162 49.1227 51.9229 49.416 51.9229 49.8C51.9229 50.184 51.8162 50.4827 51.6029 50.696C51.4002 50.8987 51.1015 51 50.7069 51H45.0589ZM57.9486 50.712C57.81 50.9573 57.634 51.1173 57.4206 51.192C57.2073 51.2773 56.9993 51.2933 56.7966 51.24C56.594 51.1867 56.418 51.0853 56.2686 50.936C56.1193 50.7867 56.0286 50.6 55.9966 50.376C55.9646 50.152 56.018 49.9173 56.1566 49.672L61.7566 40.024C61.906 39.768 62.082 39.6027 62.2846 39.528C62.4873 39.4427 62.69 39.4267 62.8926 39.48C63.106 39.5333 63.282 39.64 63.4206 39.8C63.57 39.9493 63.6606 40.136 63.6926 40.36C63.7353 40.5733 63.682 40.8027 63.5326 41.048L57.9486 50.712ZM55.6286 46.44C54.6686 46.44 53.922 46.1253 53.3886 45.496C52.866 44.856 52.6046 44.0133 52.6046 42.968C52.6046 42.264 52.7273 41.656 52.9726 41.144C53.218 40.632 53.5646 40.2373 54.0126 39.96C54.4606 39.6827 54.9993 39.544 55.6286 39.544C56.578 39.544 57.314 39.8587 57.8366 40.488C58.37 41.1067 58.6366 41.9333 58.6366 42.968C58.6366 43.6613 58.514 44.2693 58.2686 44.792C58.034 45.3147 57.6926 45.72 57.2446 46.008C56.7966 46.296 56.258 46.44 55.6286 46.44ZM55.6286 44.68C55.7886 44.68 55.922 44.6267 56.0286 44.52C56.146 44.4027 56.2313 44.2213 56.2846 43.976C56.3486 43.72 56.3806 43.384 56.3806 42.968C56.3806 42.3387 56.3113 41.9013 56.1726 41.656C56.0446 41.4107 55.8633 41.288 55.6286 41.288C55.458 41.288 55.314 41.3413 55.1966 41.448C55.09 41.544 55.0046 41.7147 54.9406 41.96C54.8873 42.2053 54.8606 42.5413 54.8606 42.968C54.8606 43.608 54.9246 44.056 55.0526 44.312C55.1806 44.5573 55.3726 44.68 55.6286 44.68ZM64.0766 51.176C63.1273 51.176 62.386 50.8613 61.8526 50.232C61.33 49.6027 61.0686 48.7653 61.0686 47.72C61.0686 47.0053 61.186 46.392 61.4206 45.88C61.666 45.368 62.0126 44.9733 62.4606 44.696C62.9193 44.4187 63.458 44.28 64.0766 44.28C65.026 44.28 65.7673 44.5947 66.3006 45.224C66.834 45.8533 67.1006 46.6853 67.1006 47.72C67.1006 48.4133 66.978 49.0213 66.7326 49.544C66.498 50.056 66.1566 50.456 65.7086 50.744C65.2606 51.032 64.7166 51.176 64.0766 51.176ZM64.0766 49.432C64.2473 49.432 64.386 49.3787 64.4926 49.272C64.61 49.1547 64.6953 48.9733 64.7486 48.728C64.8126 48.472 64.8446 48.136 64.8446 47.72C64.8446 47.0907 64.7753 46.6533 64.6366 46.408C64.5086 46.1627 64.322 46.04 64.0766 46.04C63.9166 46.04 63.778 46.0933 63.6606 46.2C63.554 46.296 63.4686 46.4667 63.4046 46.712C63.3513 46.9467 63.3246 47.2827 63.3246 47.72C63.3246 48.36 63.3886 48.808 63.5166 49.064C63.6446 49.3093 63.8313 49.432 64.0766 49.432Z" fill="url(#paint1_linear_8_1095)"/>
<path d="M11.1641 121.18C10.6041 121.18 10.1774 121.033 9.88406 120.74C9.59073 120.447 9.44406 120.013 9.44406 119.44V108.54C9.44406 107.953 9.59073 107.507 9.88406 107.2C10.1774 106.88 10.5641 106.72 11.0441 106.72C11.4707 106.72 11.8041 106.8 12.0441 106.96C12.2841 107.12 12.5507 107.387 12.8441 107.76L19.1841 115.68H18.6241V108.44C18.6241 107.88 18.7641 107.453 19.0441 107.16C19.3374 106.867 19.7641 106.72 20.3241 106.72C20.8841 106.72 21.3041 106.867 21.5841 107.16C21.8774 107.453 22.0241 107.88 22.0241 108.44V119.52C22.0241 120.027 21.8907 120.433 21.6241 120.74C21.3574 121.033 20.9974 121.18 20.5441 121.18C20.0907 121.18 19.7307 121.1 19.4641 120.94C19.2107 120.767 18.9374 120.5 18.6441 120.14L12.3041 112.2H12.8641V119.44C12.8641 120.013 12.7174 120.447 12.4241 120.74C12.1441 121.033 11.7241 121.18 11.1641 121.18ZM29.7203 121.22C28.5203 121.22 27.4803 121.013 26.6003 120.6C25.7336 120.173 25.067 119.573 24.6003 118.8C24.1336 118.027 23.9003 117.113 23.9003 116.06C23.9003 115.047 24.1203 114.16 24.5603 113.4C25.0136 112.627 25.627 112.027 26.4003 111.6C27.187 111.16 28.0803 110.94 29.0803 110.94C29.8136 110.94 30.4803 111.06 31.0803 111.3C31.6803 111.527 32.1936 111.867 32.6203 112.32C33.047 112.76 33.367 113.293 33.5803 113.92C33.807 114.547 33.9203 115.247 33.9203 116.02C33.9203 116.287 33.847 116.487 33.7003 116.62C33.5536 116.74 33.3203 116.8 33.0003 116.8H26.8803V115.12H31.3203L31.0003 115.38C31.0003 114.887 30.9336 114.487 30.8003 114.18C30.667 113.873 30.467 113.64 30.2003 113.48C29.947 113.32 29.627 113.24 29.2403 113.24C28.827 113.24 28.467 113.34 28.1603 113.54C27.867 113.727 27.6403 114.007 27.4803 114.38C27.3203 114.753 27.2403 115.22 27.2403 115.78V115.96C27.2403 116.907 27.447 117.587 27.8603 118C28.287 118.4 28.9403 118.6 29.8203 118.6C30.1136 118.6 30.447 118.567 30.8203 118.5C31.207 118.42 31.5736 118.313 31.9203 118.18C32.267 118.047 32.567 118.027 32.8203 118.12C33.0736 118.2 33.267 118.347 33.4003 118.56C33.547 118.76 33.627 118.993 33.6403 119.26C33.6536 119.513 33.5936 119.767 33.4603 120.02C33.327 120.26 33.107 120.447 32.8003 120.58C32.3336 120.793 31.8336 120.953 31.3003 121.06C30.7803 121.167 30.2536 121.22 29.7203 121.22ZM36.8145 121.16C36.3745 121.16 36.0212 121.04 35.7545 120.8C35.4879 120.56 35.3479 120.253 35.3345 119.88C35.3345 119.507 35.4879 119.127 35.7945 118.74L38.7545 115.14V116.72L36.0345 113.4C35.7279 113 35.5745 112.62 35.5745 112.26C35.5879 111.887 35.7279 111.58 35.9945 111.34C36.2612 111.1 36.6145 110.98 37.0545 110.98C37.4812 110.98 37.8279 111.053 38.0945 111.2C38.3745 111.333 38.6412 111.56 38.8945 111.88L40.7545 114.28H39.5145L41.3745 111.88C41.6279 111.56 41.8945 111.333 42.1745 111.2C42.4545 111.053 42.8012 110.98 43.2145 110.98C43.6679 110.98 44.0212 111.1 44.2745 111.34C44.5412 111.58 44.6745 111.887 44.6745 112.26C44.6879 112.633 44.5345 113.013 44.2145 113.4L41.4945 116.72V115.14L44.4745 118.74C44.7945 119.113 44.9479 119.487 44.9345 119.86C44.9212 120.233 44.7812 120.547 44.5145 120.8C44.2479 121.04 43.8879 121.16 43.4345 121.16C43.0212 121.16 42.6745 121.093 42.3945 120.96C42.1145 120.813 41.8479 120.58 41.5945 120.26L39.5145 117.6H40.7345L38.6345 120.26C38.3945 120.567 38.1345 120.793 37.8545 120.94C37.5879 121.087 37.2412 121.16 36.8145 121.16ZM52.0398 121.22C51.0398 121.22 50.2132 121.067 49.5598 120.76C48.9198 120.453 48.4398 119.993 48.1198 119.38C47.7998 118.753 47.6398 117.973 47.6398 117.04V113.78H46.9598C46.5332 113.78 46.1998 113.667 45.9598 113.44C45.7332 113.213 45.6198 112.887 45.6198 112.46C45.6198 112.033 45.7332 111.713 45.9598 111.5C46.1998 111.273 46.5332 111.16 46.9598 111.16H47.6398V109.92C47.6398 109.333 47.7932 108.887 48.0998 108.58C48.4065 108.273 48.8465 108.12 49.4198 108.12C49.9932 108.12 50.4332 108.273 50.7398 108.58C51.0465 108.887 51.1998 109.333 51.1998 109.92V111.16H52.8398C53.2798 111.16 53.6132 111.273 53.8398 111.5C54.0798 111.713 54.1998 112.033 54.1998 112.46C54.1998 112.887 54.0798 113.213 53.8398 113.44C53.6132 113.667 53.2798 113.78 52.8398 113.78H51.1998V116.92C51.1998 117.413 51.3132 117.78 51.5398 118.02C51.7798 118.247 52.1532 118.36 52.6598 118.36C52.8465 118.36 53.0265 118.34 53.1998 118.3C53.3732 118.26 53.5332 118.24 53.6798 118.24C53.8932 118.227 54.0665 118.293 54.1998 118.44C54.3332 118.573 54.3998 118.887 54.3998 119.38C54.3998 119.78 54.3398 120.12 54.2198 120.4C54.0998 120.667 53.8865 120.86 53.5798 120.98C53.3932 121.047 53.1398 121.1 52.8198 121.14C52.4998 121.193 52.2398 121.22 52.0398 121.22ZM57.5247 121.12C56.9247 121.12 56.4447 120.94 56.0847 120.58C55.738 120.22 55.5647 119.747 55.5647 119.16C55.5647 118.587 55.738 118.127 56.0847 117.78C56.4447 117.42 56.9247 117.24 57.5247 117.24C58.1514 117.24 58.6314 117.42 58.9647 117.78C59.3114 118.127 59.4847 118.587 59.4847 119.16C59.4847 119.747 59.3114 120.22 58.9647 120.58C58.6314 120.94 58.1514 121.12 57.5247 121.12ZM62.3756 121.16C61.8423 121.187 61.429 121.053 61.1356 120.76C60.8556 120.453 60.7156 120.067 60.7156 119.6C60.7156 119.24 60.8156 118.927 61.0156 118.66C61.2156 118.393 61.5156 118.247 61.9156 118.22L62.4756 118.18C62.9556 118.153 63.309 118.04 63.5356 117.84C63.7623 117.627 63.8756 117.28 63.8756 116.8V108.58C63.8756 107.967 64.0356 107.507 64.3556 107.2C64.6756 106.88 65.129 106.72 65.7156 106.72C66.3023 106.72 66.7556 106.88 67.0756 107.2C67.3956 107.507 67.5556 107.967 67.5556 108.58V116.74C67.5556 117.66 67.389 118.44 67.0556 119.08C66.7223 119.707 66.2223 120.193 65.5556 120.54C64.9023 120.873 64.0823 121.067 63.0956 121.12L62.3756 121.16ZM75.3286 121.22C74.7953 121.22 74.2353 121.18 73.6486 121.1C73.0753 121.033 72.5286 120.927 72.0086 120.78C71.4886 120.633 71.0219 120.46 70.6086 120.26C70.2486 120.087 69.9953 119.86 69.8486 119.58C69.7019 119.287 69.6486 118.98 69.6886 118.66C69.7286 118.34 69.8419 118.06 70.0286 117.82C70.2153 117.567 70.4619 117.4 70.7686 117.32C71.0753 117.227 71.4219 117.267 71.8086 117.44C72.3153 117.68 72.8886 117.867 73.5286 118C74.1686 118.133 74.7686 118.2 75.3286 118.2C76.2086 118.2 76.8219 118.087 77.1686 117.86C77.5286 117.62 77.7086 117.327 77.7086 116.98C77.7086 116.673 77.5819 116.427 77.3286 116.24C77.0886 116.053 76.6553 115.893 76.0286 115.76L73.6886 115.26C72.4086 114.993 71.4553 114.527 70.8286 113.86C70.2019 113.193 69.8886 112.333 69.8886 111.28C69.8886 110.587 70.0286 109.96 70.3086 109.4C70.6019 108.827 71.0086 108.34 71.5286 107.94C72.0619 107.54 72.6886 107.233 73.4086 107.02C74.1419 106.793 74.9553 106.68 75.8486 106.68C76.5419 106.68 77.2419 106.76 77.9486 106.92C78.6686 107.067 79.2886 107.293 79.8086 107.6C80.1153 107.76 80.3353 107.98 80.4686 108.26C80.6019 108.54 80.6553 108.833 80.6286 109.14C80.6019 109.433 80.4953 109.693 80.3086 109.92C80.1353 110.147 79.8953 110.3 79.5886 110.38C79.2953 110.447 78.9419 110.393 78.5286 110.22C78.1419 110.047 77.7019 109.92 77.2086 109.84C76.7286 109.747 76.2619 109.7 75.8086 109.7C75.3153 109.7 74.8953 109.76 74.5486 109.88C74.2019 109.987 73.9353 110.147 73.7486 110.36C73.5753 110.573 73.4886 110.82 73.4886 111.1C73.4886 111.38 73.6019 111.62 73.8286 111.82C74.0686 112.007 74.5019 112.167 75.1286 112.3L77.4486 112.8C78.7419 113.08 79.7086 113.54 80.3486 114.18C80.9886 114.82 81.3086 115.653 81.3086 116.68C81.3086 117.373 81.1686 118 80.8886 118.56C80.6086 119.12 80.2086 119.6 79.6886 120C79.1686 120.387 78.5419 120.687 77.8086 120.9C77.0753 121.113 76.2486 121.22 75.3286 121.22Z" fill="url(#paint2_linear_8_1095)"/>
<defs>
<linearGradient id="paint0_linear_8_1095" x1="5" y1="45" x2="85" y2="45" gradientUnits="userSpaceOnUse">
<stop offset="0.186043" stop-color="#0D434F"/>
<stop offset="0.678087" stop-color="#1E3236"/>
</linearGradient>
<linearGradient id="paint1_linear_8_1095" x1="19" y1="44.5" x2="71" y2="44.5" gradientUnits="userSpaceOnUse">
<stop offset="0.186043" stop-color="#0D434F"/>
<stop offset="0.678087" stop-color="#1E3236"/>
</linearGradient>
<linearGradient id="paint2_linear_8_1095" x1="5" y1="110.5" x2="85" y2="110.5" gradientUnits="userSpaceOnUse">
<stop offset="0.186043" stop-color="#0D434F"/>
<stop offset="0.678087" stop-color="#1E3236"/>
</linearGradient>
</defs>
</svg>
