<svg width="90" height="122" viewBox="0 0 90 122" fill="none" xmlns="http://www.w3.org/2000/svg">
<path d="M45 85C39.7471 85 34.5457 83.9654 29.6927 81.9552C24.8396 79.945 20.4301 76.9986 16.7157 73.2843C13.0014 69.5699 10.055 65.1604 8.04482 60.3073C6.03463 55.4543 5 50.2529 5 45C5 39.7471 6.03463 34.5457 8.04482 29.6927C10.055 24.8396 13.0014 20.4301 16.7157 16.7157C20.4301 13.0014 24.8396 10.055 29.6927 8.04482C34.5457 6.03463 39.7471 5 45 5C50.2529 5 55.4543 6.03463 60.3073 8.04482C65.1604 10.055 69.5699 13.0014 73.2843 16.7157C76.9986 20.4301 79.945 24.8396 81.9552 29.6927C83.9654 34.5457 85 39.7471 85 45C85 50.2529 83.9654 55.4543 81.9552 60.3073C79.945 65.1604 76.9986 69.5699 73.2843 73.2843C69.5699 76.9986 65.1604 79.945 60.3073 81.9552C55.4543 83.9654 50.2529 85 45 85L45 85Z" stroke="#5E5E5E" stroke-width="10"/>
<path d="M85 45C85 52.9112 82.654 60.6448 78.2588 67.2228C73.8635 73.8008 67.6164 78.9277 60.3074 81.9552C52.9983 84.9827 44.9557 85.7748 37.1964 84.2314C29.4372 82.688 22.3099 78.8784 16.7158 73.2843C11.1217 67.6902 7.31202 60.5629 5.7686 52.8037C4.22518 45.0445 5.0173 37.0018 8.04479 29.6927C11.0723 22.3837 16.1992 16.1365 22.7771 11.7413C29.3551 7.346 37.0886 5.00002 44.9999 5" stroke="url(#paint0_linear_8_1150)" stroke-width="10" stroke-linecap="round"/>
<path d="M21.832 51.144C21.4693 51.144 21.176 51.064 20.952 50.904C20.728 50.7333 20.6 50.5093 20.568 50.232C20.536 49.9547 20.6107 49.6507 20.792 49.32L25.224 41.272V42.12H20.728C20.3333 42.12 20.024 42.0187 19.8 41.816C19.5867 41.6133 19.48 41.3147 19.48 40.92C19.48 40.5253 19.5867 40.2267 19.8 40.024C20.024 39.8213 20.3333 39.72 20.728 39.72H26.744C27.1387 39.72 27.464 39.8267 27.72 40.04C27.9867 40.2533 28.12 40.5573 28.12 40.952C28.12 41.2933 28.0667 41.592 27.96 41.848C27.864 42.0933 27.7413 42.3547 27.592 42.632L23.496 50.216C23.3253 50.5467 23.1067 50.7867 22.84 50.936C22.584 51.0747 22.248 51.144 21.832 51.144ZM33.3938 51.176C32.0071 51.176 30.9404 50.6693 30.1938 49.656C29.4578 48.632 29.0898 47.1867 29.0898 45.32C29.0898 44.0613 29.2551 43.0053 29.5858 42.152C29.9164 41.288 30.4018 40.6373 31.0418 40.2C31.6818 39.7627 32.4658 39.544 33.3938 39.544C34.7911 39.544 35.8578 40.0347 36.5938 41.016C37.3298 41.9973 37.6978 43.4267 37.6978 45.304C37.6978 46.552 37.5324 47.6133 37.2018 48.488C36.8711 49.3627 36.3858 50.0293 35.7458 50.488C35.1058 50.9467 34.3218 51.176 33.3938 51.176ZM33.3938 48.84C33.9058 48.84 34.2844 48.5627 34.5298 48.008C34.7858 47.4427 34.9138 46.5413 34.9138 45.304C34.9138 44.0773 34.7858 43.2027 34.5298 42.68C34.2844 42.1467 33.9058 41.88 33.3938 41.88C32.8818 41.88 32.4978 42.1467 32.2418 42.68C31.9964 43.2027 31.8738 44.0773 31.8738 45.304C31.8738 46.5413 31.9964 47.4427 32.2418 48.008C32.4978 48.5627 32.8818 48.84 33.3938 48.84ZM40.3635 51.096C39.8835 51.096 39.4995 50.952 39.2115 50.664C38.9342 50.376 38.7955 49.9973 38.7955 49.528C38.7955 49.0693 38.9342 48.7013 39.2115 48.424C39.4995 48.136 39.8835 47.992 40.3635 47.992C40.8648 47.992 41.2488 48.136 41.5155 48.424C41.7928 48.7013 41.9315 49.0693 41.9315 49.528C41.9315 49.9973 41.7928 50.376 41.5155 50.664C41.2488 50.952 40.8648 51.096 40.3635 51.096ZM47.2669 51.176C46.7549 51.176 46.2162 51.1173 45.6509 51C45.0855 50.8827 44.5629 50.7013 44.0829 50.456C43.7949 50.3067 43.5922 50.1147 43.4749 49.88C43.3682 49.6347 43.3309 49.3893 43.3629 49.144C43.4055 48.8987 43.5015 48.68 43.6509 48.488C43.8109 48.296 44.0082 48.1733 44.2429 48.12C44.4882 48.056 44.7549 48.0987 45.0429 48.248C45.3949 48.4187 45.7575 48.5467 46.1309 48.632C46.5149 48.7173 46.8722 48.76 47.2029 48.76C47.5655 48.76 47.8749 48.7067 48.1309 48.6C48.3869 48.4933 48.5789 48.3387 48.7069 48.136C48.8455 47.9333 48.9149 47.6933 48.9149 47.416C48.9149 46.9893 48.7709 46.6533 48.4829 46.408C48.1949 46.1627 47.8109 46.04 47.3309 46.04C47.1175 46.04 46.8829 46.072 46.6269 46.136C46.3815 46.2 46.1255 46.3227 45.8589 46.504C45.7415 46.568 45.5815 46.6427 45.3789 46.728C45.1762 46.8027 44.9682 46.84 44.7549 46.84C44.3709 46.84 44.0882 46.7493 43.9069 46.568C43.7255 46.3867 43.6349 46.1307 43.6349 45.8V40.968C43.6349 40.5627 43.7415 40.2533 43.9549 40.04C44.1789 39.8267 44.4882 39.72 44.8829 39.72H49.9069C50.3015 39.72 50.6055 39.8213 50.8189 40.024C51.0322 40.2267 51.1389 40.5253 51.1389 40.92C51.1389 41.304 51.0322 41.5973 50.8189 41.8C50.6055 42.0027 50.3015 42.104 49.9069 42.104H46.4029V44.616H45.7309C45.9869 44.3173 46.3229 44.0933 46.7389 43.944C47.1549 43.784 47.6082 43.704 48.0989 43.704C48.8135 43.704 49.4429 43.8587 49.9869 44.168C50.5309 44.4667 50.9522 44.888 51.2509 45.432C51.5602 45.976 51.7149 46.6107 51.7149 47.336C51.7149 48.104 51.5335 48.7813 51.1709 49.368C50.8189 49.944 50.3069 50.392 49.6349 50.712C48.9735 51.0213 48.1842 51.176 47.2669 51.176ZM57.9486 50.712C57.81 50.9573 57.634 51.1173 57.4206 51.192C57.2073 51.2773 56.9993 51.2933 56.7966 51.24C56.594 51.1867 56.418 51.0853 56.2686 50.936C56.1193 50.7867 56.0286 50.6 55.9966 50.376C55.9646 50.152 56.018 49.9173 56.1566 49.672L61.7566 40.024C61.906 39.768 62.082 39.6027 62.2846 39.528C62.4873 39.4427 62.69 39.4267 62.8926 39.48C63.106 39.5333 63.282 39.64 63.4206 39.8C63.57 39.9493 63.6606 40.136 63.6926 40.36C63.7353 40.5733 63.682 40.8027 63.5326 41.048L57.9486 50.712ZM55.6286 46.44C54.6686 46.44 53.922 46.1253 53.3886 45.496C52.866 44.856 52.6046 44.0133 52.6046 42.968C52.6046 42.264 52.7273 41.656 52.9726 41.144C53.218 40.632 53.5646 40.2373 54.0126 39.96C54.4606 39.6827 54.9993 39.544 55.6286 39.544C56.578 39.544 57.314 39.8587 57.8366 40.488C58.37 41.1067 58.6366 41.9333 58.6366 42.968C58.6366 43.6613 58.514 44.2693 58.2686 44.792C58.034 45.3147 57.6926 45.72 57.2446 46.008C56.7966 46.296 56.258 46.44 55.6286 46.44ZM55.6286 44.68C55.7886 44.68 55.922 44.6267 56.0286 44.52C56.146 44.4027 56.2313 44.2213 56.2846 43.976C56.3486 43.72 56.3806 43.384 56.3806 42.968C56.3806 42.3387 56.3113 41.9013 56.1726 41.656C56.0446 41.4107 55.8633 41.288 55.6286 41.288C55.458 41.288 55.314 41.3413 55.1966 41.448C55.09 41.544 55.0046 41.7147 54.9406 41.96C54.8873 42.2053 54.8606 42.5413 54.8606 42.968C54.8606 43.608 54.9246 44.056 55.0526 44.312C55.1806 44.5573 55.3726 44.68 55.6286 44.68ZM64.0766 51.176C63.1273 51.176 62.386 50.8613 61.8526 50.232C61.33 49.6027 61.0686 48.7653 61.0686 47.72C61.0686 47.0053 61.186 46.392 61.4206 45.88C61.666 45.368 62.0126 44.9733 62.4606 44.696C62.9193 44.4187 63.458 44.28 64.0766 44.28C65.026 44.28 65.7673 44.5947 66.3006 45.224C66.834 45.8533 67.1006 46.6853 67.1006 47.72C67.1006 48.4133 66.978 49.0213 66.7326 49.544C66.498 50.056 66.1566 50.456 65.7086 50.744C65.2606 51.032 64.7166 51.176 64.0766 51.176ZM64.0766 49.432C64.2473 49.432 64.386 49.3787 64.4926 49.272C64.61 49.1547 64.6953 48.9733 64.7486 48.728C64.8126 48.472 64.8446 48.136 64.8446 47.72C64.8446 47.0907 64.7753 46.6533 64.6366 46.408C64.5086 46.1627 64.322 46.04 64.0766 46.04C63.9166 46.04 63.778 46.0933 63.6606 46.2C63.554 46.296 63.4686 46.4667 63.4046 46.712C63.3513 46.9467 63.3246 47.2827 63.3246 47.72C63.3246 48.36 63.3886 48.808 63.5166 49.064C63.6446 49.3093 63.8313 49.432 64.0766 49.432Z" fill="url(#paint1_linear_8_1150)"/>
<path d="M12.248 121.18C11.688 121.18 11.2614 121.033 10.968 120.74C10.6747 120.447 10.528 120.013 10.528 119.44V108.54C10.528 107.953 10.6747 107.507 10.968 107.2C11.2614 106.88 11.648 106.72 12.128 106.72C12.5547 106.72 12.888 106.8 13.128 106.96C13.368 107.12 13.6347 107.387 13.928 107.76L20.268 115.68H19.708V108.44C19.708 107.88 19.848 107.453 20.128 107.16C20.4214 106.867 20.848 106.72 21.408 106.72C21.968 106.72 22.388 106.867 22.668 107.16C22.9614 107.453 23.108 107.88 23.108 108.44V119.52C23.108 120.027 22.9747 120.433 22.708 120.74C22.4414 121.033 22.0814 121.18 21.628 121.18C21.1747 121.18 20.8147 121.1 20.548 120.94C20.2947 120.767 20.0214 120.5 19.728 120.14L13.388 112.2H13.948V119.44C13.948 120.013 13.8014 120.447 13.508 120.74C13.228 121.033 12.808 121.18 12.248 121.18ZM30.4243 121.22C29.331 121.22 28.3776 121.013 27.5643 120.6C26.751 120.187 26.1176 119.593 25.6643 118.82C25.211 118.047 24.9843 117.133 24.9843 116.08C24.9843 115.28 25.111 114.567 25.3643 113.94C25.6176 113.3 25.9843 112.76 26.4643 112.32C26.9443 111.867 27.5176 111.527 28.1843 111.3C28.851 111.06 29.5976 110.94 30.4243 110.94C31.5176 110.94 32.471 111.147 33.2843 111.56C34.0976 111.973 34.7243 112.567 35.1643 113.34C35.6176 114.1 35.8443 115.013 35.8443 116.08C35.8443 116.867 35.7176 117.58 35.4643 118.22C35.211 118.86 34.8443 119.407 34.3643 119.86C33.8976 120.3 33.3243 120.64 32.6443 120.88C31.9776 121.107 31.2376 121.22 30.4243 121.22ZM30.4243 118.6C30.7843 118.6 31.1043 118.513 31.3843 118.34C31.6643 118.153 31.8776 117.88 32.0243 117.52C32.1843 117.147 32.2643 116.667 32.2643 116.08C32.2643 115.187 32.091 114.547 31.7443 114.16C31.3976 113.76 30.9576 113.56 30.4243 113.56C30.0643 113.56 29.7443 113.647 29.4643 113.82C29.1843 113.993 28.9643 114.267 28.8043 114.64C28.6443 115 28.5643 115.48 28.5643 116.08C28.5643 116.96 28.7376 117.6 29.0843 118C29.431 118.4 29.8776 118.6 30.4243 118.6ZM41.3155 121.22C40.4755 121.22 39.7289 121.013 39.0755 120.6C38.4355 120.187 37.9289 119.593 37.5555 118.82C37.1955 118.047 37.0155 117.133 37.0155 116.08C37.0155 115 37.1955 114.08 37.5555 113.32C37.9289 112.56 38.4355 111.973 39.0755 111.56C39.7289 111.147 40.4755 110.94 41.3155 110.94C42.0489 110.94 42.7089 111.113 43.2955 111.46C43.8822 111.807 44.2755 112.253 44.4755 112.8H44.2555V108.52C44.2555 107.933 44.4089 107.487 44.7155 107.18C45.0222 106.873 45.4622 106.72 46.0355 106.72C46.5955 106.72 47.0289 106.873 47.3355 107.18C47.6555 107.487 47.8155 107.933 47.8155 108.52V119.38C47.8155 119.967 47.6622 120.413 47.3555 120.72C47.0622 121.027 46.6289 121.18 46.0555 121.18C45.4955 121.18 45.0622 121.027 44.7555 120.72C44.4489 120.413 44.2955 119.967 44.2955 119.38V118.24L44.5155 119.22C44.3289 119.82 43.9355 120.307 43.3355 120.68C42.7489 121.04 42.0755 121.22 41.3155 121.22ZM42.4555 118.6C42.8155 118.6 43.1355 118.513 43.4155 118.34C43.6955 118.153 43.9089 117.88 44.0555 117.52C44.2155 117.147 44.2955 116.667 44.2955 116.08C44.2955 115.187 44.1222 114.547 43.7755 114.16C43.4289 113.76 42.9889 113.56 42.4555 113.56C42.0955 113.56 41.7755 113.647 41.4955 113.82C41.2155 113.993 40.9955 114.267 40.8355 114.64C40.6755 115 40.5955 115.48 40.5955 116.08C40.5955 116.96 40.7689 117.6 41.1155 118C41.4622 118.4 41.9089 118.6 42.4555 118.6ZM55.2379 121.22C54.0379 121.22 52.9979 121.013 52.1179 120.6C51.2512 120.173 50.5846 119.573 50.1179 118.8C49.6512 118.027 49.4179 117.113 49.4179 116.06C49.4179 115.047 49.6379 114.16 50.0779 113.4C50.5312 112.627 51.1446 112.027 51.9179 111.6C52.7046 111.16 53.5979 110.94 54.5979 110.94C55.3312 110.94 55.9979 111.06 56.5979 111.3C57.1979 111.527 57.7112 111.867 58.1379 112.32C58.5646 112.76 58.8846 113.293 59.0979 113.92C59.3246 114.547 59.4379 115.247 59.4379 116.02C59.4379 116.287 59.3646 116.487 59.2179 116.62C59.0712 116.74 58.8379 116.8 58.5179 116.8H52.3979V115.12H56.8379L56.5179 115.38C56.5179 114.887 56.4512 114.487 56.3179 114.18C56.1846 113.873 55.9846 113.64 55.7179 113.48C55.4646 113.32 55.1446 113.24 54.7579 113.24C54.3446 113.24 53.9846 113.34 53.6779 113.54C53.3846 113.727 53.1579 114.007 52.9979 114.38C52.8379 114.753 52.7579 115.22 52.7579 115.78V115.96C52.7579 116.907 52.9646 117.587 53.3779 118C53.8046 118.4 54.4579 118.6 55.3379 118.6C55.6312 118.6 55.9646 118.567 56.3379 118.5C56.7246 118.42 57.0912 118.313 57.4379 118.18C57.7846 118.047 58.0846 118.027 58.3379 118.12C58.5912 118.2 58.7846 118.347 58.9179 118.56C59.0646 118.76 59.1446 118.993 59.1579 119.26C59.1712 119.513 59.1112 119.767 58.9779 120.02C58.8446 120.26 58.6246 120.447 58.3179 120.58C57.8512 120.793 57.3512 120.953 56.8179 121.06C56.2979 121.167 55.7712 121.22 55.2379 121.22ZM61.2916 121.16C60.7583 121.187 60.345 121.053 60.0516 120.76C59.7716 120.453 59.6316 120.067 59.6316 119.6C59.6316 119.24 59.7316 118.927 59.9316 118.66C60.1316 118.393 60.4316 118.247 60.8316 118.22L61.3916 118.18C61.8716 118.153 62.225 118.04 62.4516 117.84C62.6783 117.627 62.7916 117.28 62.7916 116.8V108.58C62.7916 107.967 62.9516 107.507 63.2716 107.2C63.5916 106.88 64.045 106.72 64.6316 106.72C65.2183 106.72 65.6716 106.88 65.9916 107.2C66.3116 107.507 66.4716 107.967 66.4716 108.58V116.74C66.4716 117.66 66.305 118.44 65.9716 119.08C65.6383 119.707 65.1383 120.193 64.4716 120.54C63.8183 120.873 62.9983 121.067 62.0116 121.12L61.2916 121.16ZM74.2446 121.22C73.7113 121.22 73.1513 121.18 72.5646 121.1C71.9913 121.033 71.4446 120.927 70.9246 120.78C70.4046 120.633 69.9379 120.46 69.5246 120.26C69.1646 120.087 68.9113 119.86 68.7646 119.58C68.6179 119.287 68.5646 118.98 68.6046 118.66C68.6446 118.34 68.7579 118.06 68.9446 117.82C69.1313 117.567 69.3779 117.4 69.6846 117.32C69.9913 117.227 70.3379 117.267 70.7246 117.44C71.2313 117.68 71.8046 117.867 72.4446 118C73.0846 118.133 73.6846 118.2 74.2446 118.2C75.1246 118.2 75.7379 118.087 76.0846 117.86C76.4446 117.62 76.6246 117.327 76.6246 116.98C76.6246 116.673 76.4979 116.427 76.2446 116.24C76.0046 116.053 75.5713 115.893 74.9446 115.76L72.6046 115.26C71.3246 114.993 70.3713 114.527 69.7446 113.86C69.1179 113.193 68.8046 112.333 68.8046 111.28C68.8046 110.587 68.9446 109.96 69.2246 109.4C69.5179 108.827 69.9246 108.34 70.4446 107.94C70.9779 107.54 71.6046 107.233 72.3246 107.02C73.0579 106.793 73.8713 106.68 74.7646 106.68C75.4579 106.68 76.1579 106.76 76.8646 106.92C77.5846 107.067 78.2046 107.293 78.7246 107.6C79.0313 107.76 79.2513 107.98 79.3846 108.26C79.5179 108.54 79.5713 108.833 79.5446 109.14C79.5179 109.433 79.4113 109.693 79.2246 109.92C79.0513 110.147 78.8113 110.3 78.5046 110.38C78.2113 110.447 77.8579 110.393 77.4446 110.22C77.0579 110.047 76.6179 109.92 76.1246 109.84C75.6446 109.747 75.1779 109.7 74.7246 109.7C74.2313 109.7 73.8113 109.76 73.4646 109.88C73.1179 109.987 72.8513 110.147 72.6646 110.36C72.4913 110.573 72.4046 110.82 72.4046 111.1C72.4046 111.38 72.5179 111.62 72.7446 111.82C72.9846 112.007 73.4179 112.167 74.0446 112.3L76.3646 112.8C77.6579 113.08 78.6246 113.54 79.2646 114.18C79.9046 114.82 80.2246 115.653 80.2246 116.68C80.2246 117.373 80.0846 118 79.8046 118.56C79.5246 119.12 79.1246 119.6 78.6046 120C78.0846 120.387 77.4579 120.687 76.7246 120.9C75.9913 121.113 75.1646 121.22 74.2446 121.22Z" fill="url(#paint2_linear_8_1150)"/>
<defs>
<linearGradient id="paint0_linear_8_1150" x1="5" y1="45" x2="85" y2="45" gradientUnits="userSpaceOnUse">
<stop offset="0.186043" stop-color="#0D434F"/>
<stop offset="0.678087" stop-color="#1E3236"/>
</linearGradient>
<linearGradient id="paint1_linear_8_1150" x1="19" y1="44.5" x2="71" y2="44.5" gradientUnits="userSpaceOnUse">
<stop offset="0.186043" stop-color="#0D434F"/>
<stop offset="0.678087" stop-color="#1E3236"/>
</linearGradient>
<linearGradient id="paint2_linear_8_1150" x1="5" y1="110.5" x2="85" y2="110.5" gradientUnits="userSpaceOnUse">
<stop offset="0.186043" stop-color="#0D434F"/>
<stop offset="0.678087" stop-color="#1E3236"/>
</linearGradient>
</defs>
</svg>
