<svg width="16" height="12" viewBox="0 0 16 12" fill="none" xmlns="http://www.w3.org/2000/svg">
<path d="M3.33325 1.5V10.5H7.33325V8.75H8.66659V10.5H12.6666V1.5H3.33325ZM4.66659 2.5H5.99992V3.5H4.66659V2.5ZM7.33325 2.5H8.66659V3.5H7.33325V2.5ZM9.99992 2.5H11.3333V3.5H9.99992V2.5ZM4.66659 4.5H5.99992V5.5H4.66659V4.5ZM7.33325 4.5H8.66659V5.5H7.33325V4.5ZM9.99992 4.5H11.3333V5.5H9.99992V4.5ZM4.66659 6.5H5.99992V7.5H4.66659V6.5ZM7.33325 6.5H8.66659V7.5H7.33325V6.5ZM9.99992 6.5H11.3333V7.5H9.99992V6.5ZM4.66659 8.5H5.99992V9.5H4.66659V8.5ZM9.99992 8.5H11.3333V9.5H9.99992V8.5Z" fill="#D9D9D9"/>
</svg>
