<svg width="90" height="122" viewBox="0 0 90 122" fill="none" xmlns="http://www.w3.org/2000/svg">
<path d="M45 85C39.7471 85 34.5457 83.9654 29.6927 81.9552C24.8396 79.945 20.4301 76.9986 16.7157 73.2843C13.0014 69.5699 10.055 65.1604 8.04482 60.3073C6.03463 55.4543 5 50.2529 5 45C5 39.7471 6.03463 34.5457 8.04482 29.6927C10.055 24.8396 13.0014 20.4301 16.7157 16.7157C20.4301 13.0014 24.8396 10.055 29.6927 8.04482C34.5457 6.03463 39.7471 5 45 5C50.2529 5 55.4543 6.03463 60.3073 8.04482C65.1604 10.055 69.5699 13.0014 73.2843 16.7157C76.9986 20.4301 79.945 24.8396 81.9552 29.6927C83.9654 34.5457 85 39.7471 85 45C85 50.2529 83.9654 55.4543 81.9552 60.3073C79.945 65.1604 76.9986 69.5699 73.2843 73.2843C69.5699 76.9986 65.1604 79.945 60.3073 81.9552C55.4543 83.9654 50.2529 85 45 85L45 85Z" stroke="#cdcdcd" stroke-width="10"/>
<path d="M85 45C85 52.9112 82.654 60.6448 78.2588 67.2228C73.8635 73.8008 67.6164 78.9277 60.3074 81.9552C52.9983 84.9827 44.9557 85.7748 37.1964 84.2314C29.4372 82.688 22.3099 78.8784 16.7158 73.2843C11.1217 67.6902 7.31202 60.5629 5.7686 52.8037C4.22518 45.0445 5.0173 37.0018 8.04479 29.6927C11.0723 22.3837 16.1992 16.1365 22.7771 11.7413C29.3551 7.346 37.0886 5.00002 44.9999 5" stroke="url(#paint0_linear_8_1160)" stroke-width="10" stroke-linecap="round"/>
<path d="M23.8 51.176C22.8933 51.176 22.1093 51.048 21.448 50.792C20.7867 50.5253 20.28 50.1467 19.928 49.656C19.576 49.1653 19.4 48.584 19.4 47.912C19.4 47.368 19.5067 46.888 19.72 46.472C19.944 46.056 20.248 45.72 20.632 45.464C21.016 45.1973 21.4533 45.0373 21.944 44.984V45.448C21.2827 45.3093 20.744 44.984 20.328 44.472C19.912 43.96 19.704 43.3467 19.704 42.632C19.704 41.9813 19.8693 41.4267 20.2 40.968C20.5307 40.5093 21.0053 40.1573 21.624 39.912C22.2427 39.6667 22.968 39.544 23.8 39.544C24.6427 39.544 25.368 39.6667 25.976 39.912C26.5947 40.1573 27.0693 40.5093 27.4 40.968C27.7307 41.4267 27.896 41.9813 27.896 42.632C27.896 43.112 27.8 43.5547 27.608 43.96C27.4267 44.3547 27.1707 44.68 26.84 44.936C26.52 45.192 26.1467 45.3573 25.72 45.432V44.984C26.4453 45.0907 27.0373 45.4107 27.496 45.944C27.9653 46.4667 28.2 47.1227 28.2 47.912C28.2 48.584 28.024 49.1653 27.672 49.656C27.32 50.1467 26.8133 50.5253 26.152 50.792C25.5013 51.048 24.7173 51.176 23.8 51.176ZM23.8 48.968C24.3653 48.968 24.7973 48.8613 25.096 48.648C25.3947 48.424 25.544 48.104 25.544 47.688C25.544 47.2613 25.3947 46.9413 25.096 46.728C24.7973 46.5147 24.3653 46.408 23.8 46.408C23.2347 46.408 22.8027 46.5147 22.504 46.728C22.2053 46.9413 22.056 47.2613 22.056 47.688C22.056 48.104 22.2053 48.424 22.504 48.648C22.8027 48.8613 23.2347 48.968 23.8 48.968ZM23.8 44.184C24.1093 44.184 24.3707 44.136 24.584 44.04C24.7973 43.944 24.9573 43.8053 25.064 43.624C25.1813 43.432 25.24 43.2133 25.24 42.968C25.24 42.5947 25.112 42.3013 24.856 42.088C24.6 41.864 24.248 41.752 23.8 41.752C23.352 41.752 23 41.864 22.744 42.088C22.4987 42.3013 22.376 42.5947 22.376 42.968C22.376 43.3413 22.4987 43.64 22.744 43.864C23 44.0773 23.352 44.184 23.8 44.184ZM31.4258 51.144C31.0631 51.144 30.7698 51.064 30.5458 50.904C30.3218 50.7333 30.1938 50.5093 30.1618 50.232C30.1298 49.9547 30.2044 49.6507 30.3858 49.32L34.8178 41.272V42.12H30.3218C29.9271 42.12 29.6178 42.0187 29.3938 41.816C29.1804 41.6133 29.0738 41.3147 29.0738 40.92C29.0738 40.5253 29.1804 40.2267 29.3938 40.024C29.6178 39.8213 29.9271 39.72 30.3218 39.72H36.3378C36.7324 39.72 37.0578 39.8267 37.3138 40.04C37.5804 40.2533 37.7138 40.5573 37.7138 40.952C37.7138 41.2933 37.6604 41.592 37.5538 41.848C37.4578 42.0933 37.3351 42.3547 37.1858 42.632L33.0898 50.216C32.9191 50.5467 32.7004 50.7867 32.4338 50.936C32.1778 51.0747 31.8418 51.144 31.4258 51.144ZM40.3635 51.096C39.8835 51.096 39.4995 50.952 39.2115 50.664C38.9342 50.376 38.7955 49.9973 38.7955 49.528C38.7955 49.0693 38.9342 48.7013 39.2115 48.424C39.4995 48.136 39.8835 47.992 40.3635 47.992C40.8648 47.992 41.2488 48.136 41.5155 48.424C41.7928 48.7013 41.9315 49.0693 41.9315 49.528C41.9315 49.9973 41.7928 50.376 41.5155 50.664C41.2488 50.952 40.8648 51.096 40.3635 51.096ZM47.2669 51.176C46.7549 51.176 46.2162 51.1173 45.6509 51C45.0855 50.8827 44.5629 50.7013 44.0829 50.456C43.7949 50.3067 43.5922 50.1147 43.4749 49.88C43.3682 49.6347 43.3309 49.3893 43.3629 49.144C43.4055 48.8987 43.5015 48.68 43.6509 48.488C43.8109 48.296 44.0082 48.1733 44.2429 48.12C44.4882 48.056 44.7549 48.0987 45.0429 48.248C45.3949 48.4187 45.7575 48.5467 46.1309 48.632C46.5149 48.7173 46.8722 48.76 47.2029 48.76C47.5655 48.76 47.8749 48.7067 48.1309 48.6C48.3869 48.4933 48.5789 48.3387 48.7069 48.136C48.8455 47.9333 48.9149 47.6933 48.9149 47.416C48.9149 46.9893 48.7709 46.6533 48.4829 46.408C48.1949 46.1627 47.8109 46.04 47.3309 46.04C47.1175 46.04 46.8829 46.072 46.6269 46.136C46.3815 46.2 46.1255 46.3227 45.8589 46.504C45.7415 46.568 45.5815 46.6427 45.3789 46.728C45.1762 46.8027 44.9682 46.84 44.7549 46.84C44.3709 46.84 44.0882 46.7493 43.9069 46.568C43.7255 46.3867 43.6349 46.1307 43.6349 45.8V40.968C43.6349 40.5627 43.7415 40.2533 43.9549 40.04C44.1789 39.8267 44.4882 39.72 44.8829 39.72H49.9069C50.3015 39.72 50.6055 39.8213 50.8189 40.024C51.0322 40.2267 51.1389 40.5253 51.1389 40.92C51.1389 41.304 51.0322 41.5973 50.8189 41.8C50.6055 42.0027 50.3015 42.104 49.9069 42.104H46.4029V44.616H45.7309C45.9869 44.3173 46.3229 44.0933 46.7389 43.944C47.1549 43.784 47.6082 43.704 48.0989 43.704C48.8135 43.704 49.4429 43.8587 49.9869 44.168C50.5309 44.4667 50.9522 44.888 51.2509 45.432C51.5602 45.976 51.7149 46.6107 51.7149 47.336C51.7149 48.104 51.5335 48.7813 51.1709 49.368C50.8189 49.944 50.3069 50.392 49.6349 50.712C48.9735 51.0213 48.1842 51.176 47.2669 51.176ZM57.9486 50.712C57.81 50.9573 57.634 51.1173 57.4206 51.192C57.2073 51.2773 56.9993 51.2933 56.7966 51.24C56.594 51.1867 56.418 51.0853 56.2686 50.936C56.1193 50.7867 56.0286 50.6 55.9966 50.376C55.9646 50.152 56.018 49.9173 56.1566 49.672L61.7566 40.024C61.906 39.768 62.082 39.6027 62.2846 39.528C62.4873 39.4427 62.69 39.4267 62.8926 39.48C63.106 39.5333 63.282 39.64 63.4206 39.8C63.57 39.9493 63.6606 40.136 63.6926 40.36C63.7353 40.5733 63.682 40.8027 63.5326 41.048L57.9486 50.712ZM55.6286 46.44C54.6686 46.44 53.922 46.1253 53.3886 45.496C52.866 44.856 52.6046 44.0133 52.6046 42.968C52.6046 42.264 52.7273 41.656 52.9726 41.144C53.218 40.632 53.5646 40.2373 54.0126 39.96C54.4606 39.6827 54.9993 39.544 55.6286 39.544C56.578 39.544 57.314 39.8587 57.8366 40.488C58.37 41.1067 58.6366 41.9333 58.6366 42.968C58.6366 43.6613 58.514 44.2693 58.2686 44.792C58.034 45.3147 57.6926 45.72 57.2446 46.008C56.7966 46.296 56.258 46.44 55.6286 46.44ZM55.6286 44.68C55.7886 44.68 55.922 44.6267 56.0286 44.52C56.146 44.4027 56.2313 44.2213 56.2846 43.976C56.3486 43.72 56.3806 43.384 56.3806 42.968C56.3806 42.3387 56.3113 41.9013 56.1726 41.656C56.0446 41.4107 55.8633 41.288 55.6286 41.288C55.458 41.288 55.314 41.3413 55.1966 41.448C55.09 41.544 55.0046 41.7147 54.9406 41.96C54.8873 42.2053 54.8606 42.5413 54.8606 42.968C54.8606 43.608 54.9246 44.056 55.0526 44.312C55.1806 44.5573 55.3726 44.68 55.6286 44.68ZM64.0766 51.176C63.1273 51.176 62.386 50.8613 61.8526 50.232C61.33 49.6027 61.0686 48.7653 61.0686 47.72C61.0686 47.0053 61.186 46.392 61.4206 45.88C61.666 45.368 62.0126 44.9733 62.4606 44.696C62.9193 44.4187 63.458 44.28 64.0766 44.28C65.026 44.28 65.7673 44.5947 66.3006 45.224C66.834 45.8533 67.1006 46.6853 67.1006 47.72C67.1006 48.4133 66.978 49.0213 66.7326 49.544C66.498 50.056 66.1566 50.456 65.7086 50.744C65.2606 51.032 64.7166 51.176 64.0766 51.176ZM64.0766 49.432C64.2473 49.432 64.386 49.3787 64.4926 49.272C64.61 49.1547 64.6953 48.9733 64.7486 48.728C64.8126 48.472 64.8446 48.136 64.8446 47.72C64.8446 47.0907 64.7753 46.6533 64.6366 46.408C64.5086 46.1627 64.322 46.04 64.0766 46.04C63.9166 46.04 63.778 46.0933 63.6606 46.2C63.554 46.296 63.4686 46.4667 63.4046 46.712C63.3513 46.9467 63.3246 47.2827 63.3246 47.72C63.3246 48.36 63.3886 48.808 63.5166 49.064C63.6446 49.3093 63.8313 49.432 64.0766 49.432Z" fill="url(#paint1_linear_8_1160)"/>
<path d="M17.7196 121.18C17.1329 121.18 16.6796 121.02 16.3596 120.7C16.0396 120.367 15.8796 119.907 15.8796 119.32V108.76C15.8796 108.16 16.0396 107.7 16.3596 107.38C16.6929 107.06 17.1529 106.9 17.7396 106.9H22.6596C24.2596 106.9 25.4929 107.293 26.3596 108.08C27.2396 108.853 27.6796 109.933 27.6796 111.32C27.6796 112.213 27.4796 112.993 27.0796 113.66C26.6929 114.313 26.1263 114.82 25.3796 115.18C24.6463 115.527 23.7396 115.7 22.6596 115.7L22.8196 115.34H23.7796C24.3529 115.34 24.8596 115.48 25.2996 115.76C25.7396 116.027 26.1063 116.44 26.3996 117L27.3996 118.8C27.6129 119.187 27.7129 119.567 27.6996 119.94C27.6863 120.3 27.5396 120.6 27.2596 120.84C26.9929 121.067 26.5996 121.18 26.0796 121.18C25.5596 121.18 25.1329 121.073 24.7996 120.86C24.4796 120.647 24.1929 120.313 23.9396 119.86L22.1196 116.52C21.9596 116.227 21.7529 116.027 21.4996 115.92C21.2596 115.8 20.9796 115.74 20.6596 115.74H19.5596V119.32C19.5596 119.907 19.4063 120.367 19.0996 120.7C18.7929 121.02 18.3329 121.18 17.7196 121.18ZM19.5596 113.14H21.9996C22.7063 113.14 23.2463 113 23.6196 112.72C23.9929 112.44 24.1796 112.007 24.1796 111.42C24.1796 110.86 23.9929 110.44 23.6196 110.16C23.2463 109.867 22.7063 109.72 21.9996 109.72H19.5596V113.14ZM34.8473 121.22C33.6473 121.22 32.6073 121.013 31.7273 120.6C30.8606 120.173 30.1939 119.573 29.7273 118.8C29.2606 118.027 29.0273 117.113 29.0273 116.06C29.0273 115.047 29.2473 114.16 29.6873 113.4C30.1406 112.627 30.7539 112.027 31.5273 111.6C32.3139 111.16 33.2073 110.94 34.2073 110.94C34.9406 110.94 35.6073 111.06 36.2073 111.3C36.8073 111.527 37.3206 111.867 37.7473 112.32C38.1739 112.76 38.4939 113.293 38.7073 113.92C38.9339 114.547 39.0473 115.247 39.0473 116.02C39.0473 116.287 38.9739 116.487 38.8273 116.62C38.6806 116.74 38.4473 116.8 38.1273 116.8H32.0073V115.12H36.4473L36.1273 115.38C36.1273 114.887 36.0606 114.487 35.9273 114.18C35.7939 113.873 35.5939 113.64 35.3273 113.48C35.0739 113.32 34.7539 113.24 34.3673 113.24C33.9539 113.24 33.5939 113.34 33.2873 113.54C32.9939 113.727 32.7673 114.007 32.6073 114.38C32.4473 114.753 32.3673 115.22 32.3673 115.78V115.96C32.3673 116.907 32.5739 117.587 32.9873 118C33.4139 118.4 34.0673 118.6 34.9473 118.6C35.2406 118.6 35.5739 118.567 35.9473 118.5C36.3339 118.42 36.7006 118.313 37.0473 118.18C37.3939 118.047 37.6939 118.027 37.9473 118.12C38.2006 118.2 38.3939 118.347 38.5273 118.56C38.6739 118.76 38.7539 118.993 38.7673 119.26C38.7806 119.513 38.7206 119.767 38.5873 120.02C38.4539 120.26 38.2339 120.447 37.9273 120.58C37.4606 120.793 36.9606 120.953 36.4273 121.06C35.9073 121.167 35.3806 121.22 34.8473 121.22ZM44.421 121.22C43.581 121.22 42.8343 121.013 42.181 120.6C41.541 120.187 41.0343 119.593 40.661 118.82C40.301 118.047 40.121 117.133 40.121 116.08C40.121 115 40.301 114.08 40.661 113.32C41.0343 112.56 41.541 111.973 42.181 111.56C42.8343 111.147 43.581 110.94 44.421 110.94C45.1543 110.94 45.8143 111.113 46.401 111.46C46.9877 111.807 47.381 112.253 47.581 112.8H47.361V108.52C47.361 107.933 47.5143 107.487 47.821 107.18C48.1277 106.873 48.5677 106.72 49.141 106.72C49.701 106.72 50.1343 106.873 50.441 107.18C50.761 107.487 50.921 107.933 50.921 108.52V119.38C50.921 119.967 50.7677 120.413 50.461 120.72C50.1677 121.027 49.7343 121.18 49.161 121.18C48.601 121.18 48.1677 121.027 47.861 120.72C47.5543 120.413 47.401 119.967 47.401 119.38V118.24L47.621 119.22C47.4343 119.82 47.041 120.307 46.441 120.68C45.8543 121.04 45.181 121.22 44.421 121.22ZM45.561 118.6C45.921 118.6 46.241 118.513 46.521 118.34C46.801 118.153 47.0143 117.88 47.161 117.52C47.321 117.147 47.401 116.667 47.401 116.08C47.401 115.187 47.2277 114.547 46.881 114.16C46.5343 113.76 46.0943 113.56 45.561 113.56C45.201 113.56 44.881 113.647 44.601 113.82C44.321 113.993 44.101 114.267 43.941 114.64C43.781 115 43.701 115.48 43.701 116.08C43.701 116.96 43.8743 117.6 44.221 118C44.5677 118.4 45.0143 118.6 45.561 118.6ZM56.6634 121.22C55.81 121.22 55.11 121.067 54.5634 120.76C54.0167 120.44 53.6034 119.967 53.3234 119.34C53.0567 118.713 52.9234 117.92 52.9234 116.96V112.76C52.9234 112.173 53.0767 111.733 53.3834 111.44C53.69 111.133 54.13 110.98 54.7034 110.98C55.2767 110.98 55.7167 111.133 56.0234 111.44C56.33 111.733 56.4834 112.173 56.4834 112.76V117.06C56.4834 117.54 56.5834 117.9 56.7834 118.14C56.9834 118.38 57.2967 118.5 57.7234 118.5C58.2034 118.5 58.5967 118.327 58.9034 117.98C59.21 117.633 59.3634 117.173 59.3634 116.6V112.76C59.3634 112.173 59.5167 111.733 59.8234 111.44C60.13 111.133 60.57 110.98 61.1434 110.98C61.7167 110.98 62.1567 111.133 62.4634 111.44C62.77 111.733 62.9234 112.173 62.9234 112.76V119.38C62.9234 120.58 62.35 121.18 61.2034 121.18C60.6434 121.18 60.21 121.027 59.9034 120.72C59.5967 120.413 59.4434 119.967 59.4434 119.38V118.22L59.7634 119.2C59.47 119.853 59.0567 120.353 58.5234 120.7C58.0034 121.047 57.3834 121.22 56.6634 121.22ZM66.3751 121.16C65.9351 121.16 65.5817 121.04 65.3151 120.8C65.0484 120.56 64.9084 120.253 64.8951 119.88C64.8951 119.507 65.0484 119.127 65.3551 118.74L68.3151 115.14V116.72L65.5951 113.4C65.2884 113 65.1351 112.62 65.1351 112.26C65.1484 111.887 65.2884 111.58 65.5551 111.34C65.8217 111.1 66.1751 110.98 66.6151 110.98C67.0417 110.98 67.3884 111.053 67.6551 111.2C67.9351 111.333 68.2017 111.56 68.4551 111.88L70.3151 114.28H69.0751L70.9351 111.88C71.1884 111.56 71.4551 111.333 71.7351 111.2C72.0151 111.053 72.3617 110.98 72.7751 110.98C73.2284 110.98 73.5817 111.1 73.8351 111.34C74.1017 111.58 74.2351 111.887 74.2351 112.26C74.2484 112.633 74.0951 113.013 73.7751 113.4L71.0551 116.72V115.14L74.0351 118.74C74.3551 119.113 74.5084 119.487 74.4951 119.86C74.4817 120.233 74.3417 120.547 74.0751 120.8C73.8084 121.04 73.4484 121.16 72.9951 121.16C72.5817 121.16 72.2351 121.093 71.9551 120.96C71.6751 120.813 71.4084 120.58 71.1551 120.26L69.0751 117.6H70.2951L68.1951 120.26C67.9551 120.567 67.6951 120.793 67.4151 120.94C67.1484 121.087 66.8017 121.16 66.3751 121.16Z" fill="url(#paint2_linear_8_1160)"/>
<defs>
<linearGradient id="paint0_linear_8_1160" x1="5" y1="45" x2="85" y2="45" gradientUnits="userSpaceOnUse">
<stop offset="0.186043" stop-color="#0D434F"/>
<stop offset="0.678087" stop-color="#1E3236"/>
</linearGradient>
<linearGradient id="paint1_linear_8_1160" x1="19" y1="44.5" x2="71" y2="44.5" gradientUnits="userSpaceOnUse">
<stop offset="0.186043" stop-color="#0D434F"/>
<stop offset="0.678087" stop-color="#1E3236"/>
</linearGradient>
<linearGradient id="paint2_linear_8_1160" x1="5" y1="110.5" x2="85" y2="110.5" gradientUnits="userSpaceOnUse">
<stop offset="0.186043" stop-color="#0D434F"/>
<stop offset="0.678087" stop-color="#1E3236"/>
</linearGradient>
</defs>
</svg>
